<?xml version="1.0" encoding="UTF-8"?>
<svg id="Camada_2" data-name="Camada 2" xmlns="http://www.w3.org/2000/svg" viewBox="0 0 181.9 644.52">
  <defs>
    <style>
      .cls-1 {
        fill: #819872;
        stroke-width: 0px;
      }
    </style>
  </defs>
  <g id="Plantas_verde" data-name="Plantas verde">
    <path id="_1_-_Espada_de_São_Jorge" data-name="1 - Espada de São Jorge" class="cls-1" d="M181.66,157.42c.69-11.39-.04-23.22-2.48-40.28-.23-1.58-.53-3.77-.69-4.87-.33-2.36-1.91-4.94-3.22-5.22-.83-.18-.93.12-.98,3.1-.22,11.09-1.45,18.48-4.44,26.64-1.89,5.14-7.72,15.79-20.95,38.2-7.86,13.33-8.45,14.62-13.05,29-1.08,3.39-1.86,6.35-2.43,9.13.12-1.27.3-2.53.49-3.78.81-5.35,2-10.64,3.19-15.92,3.06-13.64,3.8-27.71,8.1-41.09,5.17-16.12,12.57-31.43,17.36-47.69,4.73-16.05,6.24-32.78,5.56-49.47-.76-18.73-4.64-37.4-12.66-54.41-.75-1.64-5.2-.25-4.53,1.21,2.49,5.42,2.77,11.95,3.09,17.81.34,6.29.37,12.61.22,18.91-.22,9.32-2.49,18.4-3.94,27.57-1.46,9.22-2.1,18.47-4.08,27.61-3.73,17.23-10.27,33.47-15.89,50.12-4.1,12.13-6.38,25.03-7.28,37.78-.22,3.15-.39,6.44-.42,9.78-.37-1.06-.71-1.98-1-2.72-4.71-11.87-5.59-38.88-1.97-60.28,2.05-12.12,7.51-32.4,10.61-39.4.72-1.62,1.3-3.14,1.3-3.39,0-.81-2.29-.46-2.86.44-.31.49-2.56,3.29-4.99,6.22-7.37,8.88-13.03,19.42-17.79,33.07-2.35,6.76-3.31,10.49-4.01,15.66l-.58,4.3-5.89-13.33,1.28-5.26c2.36-9.73,3.85-17.89,5.17-28.36,4.16-33.05,4.74-42.42,3.54-56.94-.45-5.4-1.13-11.08-1.52-12.61-.38-1.54-.86-4.11-1.05-5.71-.28-2.35-.53-2.92-1.27-2.92-.95,0-1.79,1.65-1.27,2.49.83,1.34-1.9,22.26-4.62,35.33-3.24,15.61-10.34,38.94-14.14,46.45l-1.67,3.3-1.39-3.05c-.76-1.67-2.11-4.64-2.98-6.6-1.99-4.46-7.5-13.96-8.08-13.96-.24,0-1-.44-1.69-.99-1.43-1.12-2.71-.88-2.71.52,0,.52,1.15,4.32,2.56,8.45,2.69,7.88,5.9,21.25,6.41,26.68.26,2.77.13,3.54-.98,5.72-2.89,5.72-6.58,18.42-8.99,30.95-4.08,21.23-4.09,45.38,0,66.38,1.31,6.75,1.28,7.66-.52,17.88-.83,4.74-1.52,8.85-1.53,9.14,0,.29-.23.16-.49-.28-.98-1.68-3.56-13.21-4.59-20.52-4-28.5-9.9-47.39-20.07-64.26-5.93-9.83-11.41-15.9-19.18-21.19-2.86-1.95-4.33-2.63-5.66-2.63-2.28,0-2.27.54.03,4.34,4.34,7.17,10.37,20.35,13.92,30.43,6.06,17.23,7.1,24.13,12.47,83.26,2.3,25.34,5.89,39.75,14.17,56.86l3.68,7.61.29,12.18c.44,18.8,2.49,35.17,6.25,50,3.74,14.77,11,33.51,16.42,42.39.54.88,1.05,1.72,1.46,2.4h-.2c-1.26.05-2.51.09-3.77.15,0-.05,0-.1,0-.15h-2.35c0,.06,0,.12,0,.18-1.86,0-3.95-.01-6.17-.01l-1.61-2.97c-3.17-5.87-6.28-13.85-9.62-24.72-5.01-16.3-5.8-20.6-7.93-42.64-1.86-19.25-8.4-43.18-16.02-58.64-5.05-10.23-11.54-20.15-22.12-33.76-.98-1.26-2.33-3.01-3.01-3.89-1.45-1.89-4.11-3.35-5.38-2.94-.81.26-.75.56.68,3.18,5.31,9.74,7.9,16.76,9.35,25.33.91,5.4,1.12,17.54.74,43.56-.23,15.47-.09,16.89,3.04,31.66,2.7,12.74,4.97,19.3,10.33,29.97,5.66,11.26,12.42,20.64,22.13,30.69l5.02,5.19c-18.95.05-40.05.17-41.23.16-.07,0-.12.02-.18.04-.57.02-.81.67-.91,1.17-3.11,27.35-5.35,54.81-6.55,82.31-.03.68-.06,1.35-.1,2.03-1.37,16.03-2.03,32.12-1.55,48.21.1,8.13.63,16.24,1.38,24.34.55,5.82.85,11.72,2.04,17.45v.05h.01c.43,2.05.97,4.09,1.69,6.08,2.21,6.61,5.51,13.07,10.43,18.08,8.94,9.11,22.66,12.69,35.1,13.12,28.92,1.01,59.26,4.22,87.8-2.37,17.3-2.98,28.68-14.19,31.32-31.24,3.04-19.63.14-59.35-.25-71.64-.52-16.53-1.62-33.03-2.78-49.52-.98-12.93-2.14-25.87-3.29-38.78-.37-2.79-.64-15.65-1.1-16.91-.07-.18-.14-.35-.25-.51-.43-.59-1.36-.91-2.07-.91-5.44-.04-16.75-.38-27.53-.73,2.48-3.27,7.76-12.21,10.46-17.74,6.32-12.91,10.33-28.39,11.17-43.11.26-4.49.49-19.47.52-33.3.03-13.82.25-27.18.48-29.7.24-2.51.69-7.35,1-10.75.81-8.8,3.65-22.26,6.54-31,2.08-6.3,9.14-25.01,11.97-31.72.99-2.35.99-2.29-.19-2.92-1.54-.82-3.33.15-7.26,3.93-6.13,5.89-9.97,11.25-16.13,22.84,3.65-16.24,5.15-20.49,14.14-40.49,7.93-17.64,14.11-41.66,15.15-58.87ZM54.9,300.22c-.75,17.79-.53,16.31-1.94,13.28-8.2-17.55-12.64-36.91-14.28-62.19-2.51-38.82-7.58-67.38-14.94-84.16-1.26-2.87-2.09-5.1-1.85-4.95,1.49.92,8.44,16.25,10.83,23.89,1.42,4.52,4.43,17.67,5.9,25.74.89,4.89,1.47,9.12,3.38,24.76,2.05,16.75,5.95,32.2,11.83,46.88l1.59,3.98-.54,12.78ZM57.5,265.94c-.62,5.22-1.3,11.19-1.52,13.29-.45,4.39-.35,4.53-3.33-4.06-5.21-14.97-7.39-25.87-10.17-50.65-1.5-13.35-5.37-31.42-8.84-41.25-3.84-10.89-8.09-19-16.16-30.89-2.34-3.45-4.14-6.4-3.99-6.54.43-.43,5.5,4.13,9.05,8.13,4.35,4.9,6.55,8.23,11.65,17.64,3.55,6.54,8.97,21.7,11.31,31.64.67,2.84,2.04,10.29,3.04,16.57,2.44,15.25,3.8,20.51,8.24,31.91l1.84,4.73-1.13,9.48ZM140.72,206.63c3.6-12.34,4.28-13.82,16.45-36.01,6.24-11.39,12.24-22.79,13.33-25.34,2.02-4.74,4.91-14.53,5.36-18.14.14-1.1.35-2.04.47-2.07.55-.15.32,7.13-.43,13.84-2.46,21.88-5.69,31.62-19.92,59.96-8.6,17.14-12.41,33.03-13.75,57.42-.46,8.35-.31,15.8-.03,22.36-1.05,2.84-1.94,5.62-2.72,8.45-.55,2-1.07,3.84-1.35,4.84-.13-.57-.25-1.15-.37-1.73-.03-1.34-.06-3.13-.07-5.14-.08-14.82-1.09-30.26-2.74-43.25.84-12.88,2.83-25.14,5.76-35.19ZM137.93,292.61s-.02.06-.02.07c-.02.07-.04-.08-.07-.38.03.11.06.21.09.31ZM121.8,428.36c-.33.56-.6,1.02-.85,1.44-1.41-.05-2.75-.1-3.98-.14,0-.01,0-.03,0-.04h-1.31c1.59-14.86,2.02-17.35,5.57-33.11,1.54-6.84,3.14-14.26,3.56-16.5.78-4.16,5.57-25.08,6.16-26.91.36-1.1,1.2,6.71,2.18,20.05,1.62,22.26-1.82,39.05-11.32,55.21ZM131.95,224.11c-.09-.4-.19-.82-.29-1.24.13-.02.26-.05.4-.09-.04.44-.07.89-.1,1.33ZM127.41,184.2c.64-12.96,2.84-26.04,6.7-38.44,2.4-7.71,5.46-15.23,8.09-22.87,2.86-8.3,5.5-16.68,7.56-25.22,2.15-8.91,3.33-17.86,4.38-26.95,1.06-9.23,3.48-18.26,4.34-27.52.6-6.46.5-13.07.28-19.57,2.3,8.67,3.77,17.56,4.47,26.51,1.31,16.82.46,34.14-3.82,50.51-4.27,16.36-11.33,31.8-17.04,47.67-2.97,8.26-4.89,16.71-6.26,25.38-.94,5.94-1.58,11.91-2.88,17.79-1.29,5.81-2.66,11.62-3.62,17.5-.08.48-.15.96-.22,1.44-2.38-8.46-2.39-17.91-1.98-26.23ZM104.14,145.46c.6-6.37,1.13-9.12,3.03-15.63,3.2-10.96,8.89-23.82,13.56-30.63,2.52-3.68,5.01-6.8,5.42-6.8.13,0-.56,2.11-1.54,4.69-3.81,10.12-7.53,26.24-9,38.97-1.04,9.01-1.07,28.48-.05,34.75.41,2.5.68,4.61.6,4.69-.07.07-2.92-5.51-6.31-12.42l-6.18-12.55.47-5.08ZM100.03,149.01c2.9,6.98,7.78,18.4,10.85,25.38,9.44,21.5,15.21,41.36,18.09,62.19,2.24,16.25,2.81,26.5,2.76,49.5-.07,33.04-1.6,46.52-8.6,76.09-1.25,5.27-2.74,12.01-3.31,14.98-.57,2.96-1.61,7.79-2.3,10.72-3.71,15.66-6.28,30.3-7.07,40.23-.04.53-.09,1.04-.15,1.51h-1.05c.02-3.15.43-8.94,1.25-17.88,1.89-20.69,2.59-25.34,8.13-54.07,2.29-11.88,4.2-23.35,5.41-32.49.46-3.48.66-11.37.65-25.13-.01-17.73-.17-21.84-1.41-35.51-1.29-14.28-3.72-35.36-4.16-36.07-.1-.17-.68-3.37-1.28-7.13-2-12.5-4.77-23.29-9.85-38.3-3.75-11.07-11.73-36.33-12.73-40.29-.45-1.78-.75-3.95-.66-4.82.12-1.27,1.24,1.01,5.43,11.1ZM90.75,193.18c-.46-32.06-1.08-40.91-3.78-54.2-.5-2.45-.74-4.27-.55-4.06.63.68,4.85,13.36,7.23,21.71,5.92,20.81,8.86,41.99,9.33,67.34.34,18.05-.76,33.62-3.65,51.64-5.75,35.9-8.28,54.17-9.12,65.8-.87,12.03-1.28,34.32-.79,42.92.63,11.11,2.97,27.03,6.37,43.38.14.67.27,1.32.38,1.89h-2.67c-.51-1.58-1.22-4.18-2.4-8.49-3.22-11.79-8.27-37.12-9.87-49.5-2.37-18.29-1.56-62.91,1.61-89.1.48-3.96,2.02-14.28,4.81-32.24,2.87-18.46,3.48-29.75,3.09-57.11ZM93.7,134.26c.44.54.8,1.17.8,1.4s-.23.41-.51.41-.51-.21-.51-.47-.13-.88-.3-1.4c-.27-.85-.23-.85.51.06ZM100.35,311.15c.97-6.74,1.77-12.5,1.77-12.79,0-1.18.9.53,1.43,2.71,1.71,7.06,2.67,16.21,2.67,25.34,0,11.64-.39,15.32-3.86,36.2-2.57,15.51-4.29,28.77-4.31,33.25,0,1.05-.21,2.23-.45,2.62-.72,1.13-1-3.37-1.36-21.27-.5-24.91.5-41,4.12-66.07ZM106.9,364.45c2.59-15.47,3.25-20.87,3.68-30.37.5-11.1-1.1-23.71-4.94-38.97l-1.99-7.93.98-5.87c2.85-17.01,3.79-29.18,3.78-48.77,0-19-.93-30.23-3.76-45.94-.83-4.59-1.49-8.53-1.47-8.74.07-.73,2.53,6.65,4.27,12.81,2.28,8.05,3.66,15.16,4.33,22.18,1.72,18.26,2.16,22.52,2.81,27.57.4,3.07,1.08,9.35,1.51,13.96,3.57,37.92,4.36,53.54,3.31,65.56-.66,7.59-3.15,23.87-5.38,35.21-5.53,28.08-8.23,49.13-9.11,70.82-.06,1.59-.12,2.77-.18,3.67h-2.65c-.14-1.01-.3-2.36-.49-4.18-1.14-10.65,1.01-35.34,5.31-61ZM82.04,109.69c3.65-5.55,10.84-25.37,14.19-39.12,2.05-8.43,4.05-18.95,4.91-25.92.33-2.64.8-5.01,1.04-5.28.62-.67.55,22.44-.09,29.93-.68,8.04-3.38,32.17-4.31,38.58-.94,6.51-3.86,20.56-4.27,20.56-.17,0-.72-.68-1.21-1.52-.85-1.44-2.03-1.98-2.54-1.14-.13.21.07,2.09.43,4.19.36,2.09.6,3.87.52,3.95-.07.08-2.25-5.05-4.83-11.4-4.59-11.29-4.67-11.57-3.84-12.84ZM63.24,170.34c1.86-13.96,4.84-28.01,7.97-37.57l1.66-5.08.35,2.28c.76,4.9,1.08,25.65.5,31.98-1.22,13.28-3.29,27.58-6.92,47.7-.98,5.43-1.87,9.96-1.97,10.06-.25.25-.62-1.68-1.66-8.77-1.23-8.42-1.19-31.13.07-40.61ZM67.9,388.64c-2.42-9.53-3.53-16.32-5.21-32-1.32-12.29-1.42-14.6-1.4-34.25.03-33.24,1.24-44.3,11.64-106.36,3.63-21.68,4.85-30.81,6.16-46.08.81-9.41.84-11.94.28-23.61-.83-17.39-2.31-29.76-4.48-37.43-.19-.68-.12-.85.22-.51,1.61,1.6,6.89,18.76,9.27,30.14,3.24,15.46,4.22,39.17,3.02,73.17-.63,17.9-1.56,25.51-6.03,49.24-3.89,20.65-4.75,28.15-5.9,51.53-2.2,44.64.81,70.87,13.15,114.61l.71,2.52h-5.43c-.66-1.25-1.8-3.43-3-5.7-5.26-9.97-9.45-21.34-12.99-35.28ZM17.82,285.06c.21.13,2.01,2.94,3.99,6.25,11.92,19.88,19.12,43.43,21.65,70.93,1.38,14.97,2.27,20.59,4.57,28.94,4.12,14.92,7.94,25.79,11.69,33.26,1.26,2.51,2.18,4.56,2.04,4.56-.56,0-8.24-13.58-12.93-22.85-5.97-11.82-8.93-18.62-11.35-26.15-3.81-11.84-4.69-17.4-6.73-42.39-1.56-19.1-4.05-30.14-10.16-45.04-1.75-4.27-3-7.65-2.79-7.51ZM19.87,363.84c-2.99-12.5-3.13-14.12-3.56-39.43-.22-12.98-.66-25.86-.98-28.62-.59-5.12-2.94-15.06-4.34-18.41-.43-1.03-.71-1.94-.62-2.03.4-.4,3.81,6.03,6.48,12.24,8.71,20.22,10.73,30.28,12.42,61.95,1.02,19.15,5.59,34.84,16.52,56.69,4.66,9.32,6.88,13.29,11.28,20.12.84,1.31,1.56,2.53,2.05,3.44-.49,0-.98,0-1.48,0-.11-.11-.23-.22-.34-.35-20.62-21.69-31.5-40.75-37.44-65.6ZM160.89,612.92c-5.69,17.18-22.98,18.83-38.68,19.91-19,1.3-38.02,3.2-57.08,2.64-15.94-.47-35.04-1.7-45.92-15.16-6.21-7.68-8.18-17.69-9.28-27.29,1.29,1.1,3.17,2.81,5.22,4.75l6.67,6.34,1.94-2.18c1.07-1.2,3.37-3.82,5.12-5.83,1.74-2,4.78-5.39,6.75-7.53l3.57-3.88,7.75,7.55c8.75,8.53,11.27,10.49,12.75,9.9.57-.23,4.39-4.04,8.51-8.48l7.48-8.07,9.69,8.29c5.33,4.56,10.2,8.56,10.82,8.89.92.49,2.91-1.2,10.53-8.96l9.4-9.56,4.72,3.75c2.6,2.06,7.63,6.24,11.18,9.27,4.44,3.8,6.74,5.36,7.37,4.99.5-.29,3.66-4.17,7.01-8.61,3.36-4.44,6.48-8.39,6.93-8.77.62-.51,2.38.9,6.9,5.51l3.61,3.68c-.29,6.45-1.04,12.99-2.98,18.85ZM163.68,545.85c-3.65-2.67-7.28-1.17-7.28,3.02,0,1.9.34,2.4,2.15,3.2,2.05.9,3.93.74,5.25,0,.18,10.31.26,20.61.25,30.92-3.71-4.48-10.17-10.74-11.1-10.71-.8.02-3.71,3.78-11.41,14.76-2.83,4.03-3.28,4.42-4.26,3.59-.6-.51-3.77-3.14-7.05-5.84-3.28-2.7-7.71-6.48-9.86-8.4-4.25-3.78-5.2-4.11-6.51-2.24-.47.68-4.53,5.02-9.01,9.66l-8.14,8.42-6.44-5.78c-3.54-3.18-8.26-7.52-10.51-9.66-2.24-2.14-4.37-3.88-4.72-3.88s-4.29,4-8.74,8.9c-4.45,4.89-8.45,8.76-8.88,8.59-.43-.16-4.63-4.18-9.32-8.92-4.76-4.8-8.98-8.54-9.53-8.43-.55.11-3.4,2.89-6.35,6.18-2.94,3.29-6.85,7.64-8.67,9.66l-3.31,3.67-7.09-7.34-4.2-4.35c-.72-9.51-1.37-19.03-1.52-28.55-.18-7.68.42-15.32.81-22.97,2.69-3.19,5.94-6.78,6.27-6.78.24,0,2.56,1.72,5.15,3.81,13.58,10.98,13.66,11.03,15.25,10.03.81-.51,5.14-3.9,9.61-7.55,11-8.96,10.37-8.56,12.05-7.78.79.37,4.67,3.1,8.63,6.07,3.96,2.97,8.4,6.01,9.85,6.75l2.65,1.35,2.08-1.91c1.14-1.05,4.09-3.75,6.55-6l4.48-4.09,6.78,4.38c3.73,2.41,7.83,5.06,9.11,5.9,5.66,3.71,5.05,3.88,13.23-3.77,4.05-3.78,7.64-6.98,7.99-7.1.35-.12,5.41,2.64,11.25,6.13,5.84,3.49,10.94,6.35,11.32,6.35s4.72-2.66,9.63-5.91c1.15-.76,2.16-1.42,3.06-2,.19,6.2.35,12.4.47,18.6ZM159.63,436.57c.2,20.01,1.77,40.09,2.39,60.11.27,5.82.51,11.64.73,17.47-2.1,1.69-4.6,3.72-6.17,4.97l-3.56,2.85-10.68-8.05c-5.87-4.43-11.1-8.21-11.62-8.41-.59-.23-3.83,2.47-8.66,7.21-4.25,4.17-8.39,8.12-9.2,8.79-1.7,1.41-1.06,1.79-12.94-7.7-3.55-2.84-6.83-5.16-7.29-5.16-.45,0-4.24,3.28-8.41,7.29-4.17,4-7.78,7.28-8.01,7.28s-4.12-3.16-8.64-7.03c-11.73-10.02-10.32-9.45-15.16-6.13-2.25,1.54-7.24,5.43-11.1,8.64-3.86,3.21-7.34,5.83-7.74,5.81-.4-.01-4.55-3.43-9.23-7.59-7.1-6.3-8.69-7.44-9.61-6.82-.6.41-3.19,3.14-5.74,6.08l-.2.23c.41-10.14.71-20.29,1.27-30.43.95-13.6,2.2-27.29,3.22-40.82.23-3.39.36-6.7.31-10.04,9.86.26,53.08-.06,61.5.26,11.82-.12,23.63-.07,35.45.24,5.52.09,42.21,1.48,49.1.93ZM167.59,242.11c1.14-2.96,2.53-5.8,3.08-6.3.55-.5,1.01-.81,1.01-.68s-1.16,2.96-2.58,6.3c-7.51,17.69-12.52,33.08-14.94,45.92-.79,4.18-1.92,25.43-1.43,26.73.4,1.04-.84,55.24-1.4,61.36-.73,8.01-2.67,16.99-5.21,24.2-1.22,3.44-3.16,8.2-4.33,10.57-2.39,4.87-2.39,4.91.34-3.64,4.44-13.92,5.17-18.81,5.17-34.82,0-8.46-.34-14.82-1.35-25.14-1.5-15.32-1.79-28.59-.76-35.14,2.39-15.32,5.06-24.63,12.54-43.83,1.81-4.65,4.3-11.08,5.54-14.29,1.23-3.21,3.17-8.26,4.32-11.23ZM165.39,242.83c.18.17-2.7,7.7-10.72,28.03-6.91,17.52-9.86,28.14-11.66,42.04-1.2,9.23-.93,17.63,1.31,40.21.84,8.5.87,29.35.04,34.98-.76,5.18-4.25,17.59-6.94,24.67-1,2.65-3.46,8.19-5.45,12.31l-2.44,5.04c-1.5-.05-2.98-.1-4.4-.15.11-.19.21-.38.32-.58,4.21-7.49,8.79-20.3,10.55-29.47,1.4-7.32,1.13-23.42-.62-37.41-2.07-16.56-2.12-19.41-.54-31.22,3.43-25.64,6.2-38.23,11.45-52.04,3.8-9.99,18.16-37.35,19.11-36.4ZM151.64,244.33c-2.41,9.45-4.09,17.4-5.14,24.1-.71,1.53-1.38,3.01-2,4.46.04-4.88.18-10.53.42-15.15.67-13.22,1.48-20.6,3.11-28.33,2.56-12.17,4.55-17.44,15.17-40.15,8.11-17.36,11.42-28.19,13.5-44.16.6-4.57,1.18-8.13,1.3-7.91.12.22.29,3.56.37,7.4.5,23.17-4.93,47.2-16.35,72.34-6.22,13.69-8.23,19-10.37,27.4ZM93.27,545.51c-2.84-1.39-5.11-1.1-7.11.91-1.61,1.61-1.71,5.06-.21,6.72,1.56,1.72,6.16,1.62,8.46-.19,1.45-1.14,1.74-1.85,1.58-3.81-.17-2.05-.58-2.59-2.71-3.63ZM90.48,552.37c-.55,0-.99-.29-.99-.64s.45-.47.99-.26c.55.21.99.5.99.64s-.45.26-.99.26ZM14.69,548.15c-3.21.08-4.47.98-5.04,3.56-.5,2.29.55,4.49,2.53,5.29,4.03,1.62,7.74-.25,7.74-3.9,0-3.1-2.04-5.03-5.23-4.95ZM14.96,555.69c-.23-.37.05-.67.62-.67s1.03.13,1.03.29c0,.7-1.27.99-1.65.38ZM58.96,546.39c-2.76-.74-5.45-.34-6.54.97-1.49,1.79-1.5,4.64-.04,6.51,1.13,1.43,1.98,1.81,4.07,1.81,3.34,0,5.09-.93,5.93-3.14,1.06-2.78-.36-5.32-3.43-6.15ZM127.58,544.42c-3.38,0-5.47,1.5-6.01,4.32-.44,2.25,1.51,5.34,3.95,6.26,1.55.59,5.22-.66,7.22-2.47.95-.86,1.13-1.66.82-3.45-.55-3.16-2.48-4.66-5.97-4.66Z"/>
  </g>
</svg>