<?xml version="1.0" encoding="UTF-8"?>
<svg id="Camada_2" data-name="Camada 2" xmlns="http://www.w3.org/2000/svg" viewBox="0 0 493.58 635.95">
  <defs>
    <style>
      .cls-1 {
        fill: #819872;
        stroke-width: 0px;
      }
    </style>
  </defs>
  <g id="Plantas_verde" data-name="Plantas verde">
    <path id="_1_-_Costela_de_Adão" data-name="1 - Costela de Adão" class="cls-1" d="M257.88,292c-7.22,6.42,10.36,12.95,15.35,11.04,4.34-.89,4.98-4.83,2.1-7.84-3.79-3.44-13.1-7.11-17.45-3.21ZM266.11,301c-2.74-.73-9.11-2.45-7.87-6.28,4.07-4.31,10.41-.37,14.36,2.28,4.77,3.89-3.8,4.94-6.49,4ZM412.79,276.06c-6.51-1.97-18.94,3.03-17.03,10.75,1.05,4.24,7.26,5.81,11.27,5.48,9.06-1.06,17.63-11.51,5.76-16.24ZM399.91,288.26c-5.52-5.34,8.7-14.29,14.34-8.56,6.53,5.27-9.61,15.18-14.34,8.56ZM485.66,344.47c-2.81-3.57-6.43-6.49-10.47-8.55-3.34-1.7-7.4-3.44-11.3-3.72-5.4-1.53-10.99-2.38-15.95-3.06-4.64-.57-13.62-1.58-18.02-4.65-2-4.28,1.31-7.16,5.83-7.66.57-.06,1.13-.1,1.69-.11,3.83.14,7.72,1.36,11.39,2.52.28.12.57.25.85.37,3.88,1.77,7.52,4.01,11.3,5.97,2.95,1.53,6.17,3.13,9.61,2.67,6.35-.84,9.32-7.55,9-13.34-.29-5.09-2.42-9.88-5.71-13.68-.9-1.34-1.85-2.52-2.81-3.45-6.04-7.42-16.07-12.05-26.18-12.05-2.5.09-5.16-.19-7.39-1.16-.26-.44-.33-.92,0-1.45.23-.37,1.61-.67,2.04-.8,1.85-.6,3.82-.82,5.74-1.02,2.61-.28,5.42-.31,7.94-1.12,4.88-1.56,5.49-5.76,3.61-10.06-6.4-14.61-23.67-20.37-38.45-18.47-17.93,2.3-37.01,16.79-37.4,36.06-11.09-7.51-26.93-11.67-39.14-4.29-10.12,6.23-16.92,19.78-16.17,31.8-4.01,2.75-8,5.54-11.91,8.42-2.09-3.27-8.37-8.18-8.39-11.41.88-.51,1.55,0,3.8,1.12,1.64.92,4.35,1.84,5.95,1.84,8.52-.56,2.94-10.98.29-15.05-11.98-18.82-37.87-24.69-58.05-19.35-2.92-5.5-7.6-12.37-11.79-17.18,3.86-17.39,6.69-32.24,9.49-49.82,10.41-1.09,3.87-25.84,15.44-36.35,1.95-1.31,4.42-2.44,6.2-1.38.1.26.16.56.18.89-.02.27-.02.54-.04.8-.02.25-.04.5-.05.75-.18,1.06-.59,2.27-1.19,3.48-4.51,13.65-19.39,30.9-5.33,43.2,6.05,4.15,21.03,15.08,24.65,3.02.84-6.95-1.93-13.4-3.38-20.01-1.44-8.25-2.31-18.69,3.7-26.08,1.85-2.44,4.18,1.3,4.72,3.19,2.93,9.69,1.51,20.16,1.27,30.13-.69,8.06-.13,16.29,7.2,21.22,6.5,5.64,15.61,6.49,21.91,6.64,12.91-.04,16.27-8.73,10.86-20.21-3.53-7.77-7.18-15.5-10.85-23.2-2.65-5.55-6.11-12.29-3.73-18.52,9.37,2.82,11.57,12.81,14.71,20.8,3.25,8.91,2.69,22.45,6.77,32.46,2.26,7.2,8.37,11.92,16.18,11.72,5.29-.23,12.77-1.07,18.43-5.69,9.38-7.21-15.67-24.05-13.92-34.03,9.85,2.39,13.73,28.7,31.53,27.88,6.41-.09,12.46-1.5,18.41-3.39,2.49-.77,5.8-2.68,8.39-3.19,1.62-.32,1.56-9.78,2.25-13.18.79-4.52.87-8.82.72-13.49,1.44-21.13-27.3-17.77-41.46-17.84-2.6.3-16.14-2.08-11.2-5.71,6.31-5.73,25.68-.16,32.74.98,3.87.53,8.35,2.74,12.12,1.57.14.03.29.03.45-.02,7.71-2.25,4.83-12.85,1.18-17.33-6.09-7.47-16.93-9.2-26.02-9.03-11.07.21-21.91,3.13-32.74,5.11-5.13.94-10.69,1.91-15.83.51-1.04-.28-3.75-.9-4.29-2.06-.55-1.18.87-2.93,1.64-3.63.58-.54,1.22-.99,1.88-1.39,11.37-4.9,24.57-4.15,36.76-2.81,8.26-.06,25.87,8.29,31.23.3.81-1.67.83-3.79.09-5.56-.61-5.74-5.84-10.17-10.93-12.98-8.13-4.48-16.18-5.82-25.29-4.14-9.77,1.8-19.35,4.51-28.92,7.16-4.9,1.36-9.84,2.47-14.77,3.7-2.43.6-5.08,1.58-7.6,1.61-1.31.02-2.95-1.19-3.18-2.55.98-.91,2.48-1.94,4.63-3.07,13.06-9.06,28.79-3.77,42.69-8.59,8.41-3.4,7.76-7.55,3.58-11.07-6.92-7.78-18.06-11.28-28.36-9.92-6.37.84-12.77,3.2-17.87,7.15-2.78,2.15-5.45,4.45-8.16,6.69-1.52,1.26-3.02,2.53-4.56,3.77-1.52,1.23-3.13,2.68-4.64,1.32.13-.44.34-.87.62-1.3.85-.99,1.99-2.12,3.23-3.32,1.27-1.03,2.54-1.95,3.33-2.67,2.21-2.03,5.35-5.06,5.23-8.34-.21-5.96-9.18-5.12-13.12-4.87-9.59.62-18.47,3.87-26.25,9.51-3.27,2.37-6.15,5.13-8.61,8.34-.65.84-1.39,1.8-2.08,2.83-4.49-11.93-15.63-22.77-28.61-26.66-7.19-2.86-13.71-6.52-21.81-9.78-30.52-12.84-26.93-38.74-.27-22.05,10.91,6.55,19.5,16.48,27.14,26.37,4.35,5.72,9.26,11.11,14.03,16.53,2.25,3.49,8.85,8.36,12.71,2.33,11.41-14.81,10.51-33.59-4.68-44.73-6.5-4.18-13.99-6.32-21.24-8.66-2.68-.12-32.52-12.42-21.78-15.31,9.05-.36,17.79,3.3,25.64,7.65,4.9,2.29,8.78,6.35,14.44,6.73,3.46.2,4.3-2.85,5.53-5.32,4.51-10.42-3.88-23.06-12.73-28.99-23.91-16.13-57.48-16.43-76.97,6.03-2.29-5.5-3.79-10.8-8.94-15.65-9.57-10.31-31.55-17.16-43.89-7.31-3.04,2.63-10.79,11.9-7.65,17,3.09,3.97,8.4,4.44,12.74,6.08-3.82,1.45-8.56.64-12.58-.04-7.24-.83-14.51-1.48-21.77-1.89-11.1-.22-20.12,6.87-27.35,14.49-11.4,13.61-12.18,34-12.56,51.19-1.36,13.45,6.6,13,14.33,4.8,6.93-6.21,13.18-13.64,21.38-18.25,10.56-7.47,28.26-12.45,41.01-8.7-.51,2.09-2.75,2.42-4.41,3.32-11.38,5.86-24.6,6.92-35.52,13.86-10.01,7.06-20.22,15.58-26.77,26.59-19.23,32.93,3.8,84.67,18.2,52.31,8.97-17.55,27.29-54.11,49.27-55.15,1.09,0,4.26.17,4.69,1.54-.32,4.59-3.6,8.46-6.67,11.67-9.7,10.88-21.39,19.07-31.75,29.2-11.64,11.41-25.94,28.48-18.07,45.31,2.5,4.35,4.96,7.8,7.95,10.7,2.83,3.81,9.59,11.79,16.42,11.05-10.47,5.74-20.81,15.46-25.84,25.75-8.53-6.06-21.38-10.19-31.67-9.96-7.12.38-14.18,2.17-20.73,4.88-8.61,3.68-15.02,17.33-3.4,20.33,5.3,1.67,10.71-1.42,16.04-1.31,3.79-.56,12.72,3.01,7.41,7.14-3.36,1.71-7.63,2.87-12.03,3.45-20.43,2.35-26.54,7.27-38.09,23.88-9.54,13.98-9.12,35.31,2.15,49.41.99,1.25,5.85,7.52,9.11,5.81,3.88-2.6,5.57-7.43,7.55-11.43,3.79-8.05,7.7-16.72,12.37-24.09,4.29-7.03,11.14-15.52,19.42-16.07,7.96-.61,7.67,6.7,4.15,11.23-5.25,6.64-12.78,10.95-18.98,16.64-12.94,11.22-24.67,29.66-16.68,46.1,3.04,7.36,9.7,14.7,15.69,20.32,21.57,19.42,15.66-22.74,26.96-25.13,4.35-.92,1.89,4.43,1.5,5.5-5.17,11.85-10.45,21.11-1.06,32.88-6.49,3.72-17.35,14.72-11.63,22.19,3.03,3.96,9.1,1.8,13.4,1.95,10.63-.39,22.37-2.04,32.67-1.14,8.01.41,13.67,1.7,19.03,4.44,1.29.44,3.3,1.63,5.2,3.1-1.39,2.47-3,5.32-4.77,8.45-4.35-.91-8.46-2.85-13.05-3.73-11.64-2.45-26.25-4.27-36.46,3.52-6.47,4.94-11.8,15.9-10.6,24.09,1.36,9.28,11.01,8.81,17.97,6.41,9.53-3.29,18.17-12.34,29.02-7.56.09.04.17.09.26.13-2.68,4.77-5.37,9.57-7.96,14.2-16.7,2.82-40.66-4.37-47.04,14.22-1.93,5.62-2.97,12.84-1.58,18.76,2.61,11.14,10.85,7.36,17.53,2.07,3.33-2.64,9.37-5.49,13.87-4.05-.59,1.1-.68,1.31-.74,1.45-1.29,2.98-2.29,6.01-3.03,9.02-12.43,6.17-31.78,11.56-25.37,29.59,1.69,4.75,3,9.84,6.47,13.67.24.27.5.53.78.76,1.87,1.5,4.58,1.73,6.83,2.25,7.52,1.73,15.24,2.94,22.97,3.03.08.25.19.5.34.74,6.57,10.18,15.06,18.96,22.51,26.4,19.65,19.61,40.25,30.94,64.83,35.65,1.92.37,32.14,1.11,57.6,1.11,15.71,0,29.6-.28,33.9-1.11,24.58-4.71,45.18-16.04,64.83-35.65,11.75-11.72,23.4-24.63,29.4-39.59.17,0,.33,0,.49-.02,1.58-.15,3.07-.83,4.33-2.32,4.2-4.97,2.29-12.79.23-18.2-1.35-3.53-3.19-6.93-4.29-10.56-.7-2.31-.81-6.32,2.85-5.64,2.06.38,3.75,2.24,4.88,3.86,4.38,6.25,2.9,13.86,3.51,20.99.52,6.08,2.92,11.2,8.32,14.38,4.74,2.8,10.68,3.71,16.16,2.92,2.15.09,4.05-.1,5.19-.75.49-.15.95-.46,1.27-1.02,2.09-3.52,4-7.17,5.78-10.85,2.22-4.6,4.29-9.76,3.34-14.95-2.52-13.8-18.37-16.64-28.84-22.75-1.19-.9-1.76-1.84-.73-2.67,7.27-2.37,15.31,6.41,22.26,7.08,10,.97,6.08-13.99,4.14-18.85-1.69-4.23-3.5-8.49-6.81-11.74-2.84-2.79-6.49-4.6-10.25-5.79-8.37-2.66-17.69-1.87-26.18-3.96-1.18-.47-2.32-1.04-3.4-1.75-5.02-2.09-4.52-7.62.77-8.56,2.75-.72,5.52-.6,8.26-.04,5.37,1.69,10.33,4.55,15.55,6.63,3.41,1.36,8.03,3.7,11.64,1.84,3.45-1.77,4.13-5.93,3.7-9.43-1.12-9.02-5.56-18.45-10.99-25.66-4.86-6.46-11.76-10.58-20.03-10.34-3.3.1-6.54,1.22-9.65,2.22-.76.24-1.53.48-2.29.72-1.99.48-4.01,1.06-6.07,1.69-2.98.83-6.11,2.05-9.18,1.5-.26-.15-.34-.5-.32-.92.79-5.74,6.48-8.21,11.62-9.81,3.84-1.2,8.82-1.99,9.99-6.53,2.01-7.79-6.95-13.8-12.41-17.42-7.41-4.93-16.42-7.38-25.31-6.35-7.95.92-16.09,4.22-21.54,10.25-2.69,2.98-4.52,6.6-5.79,10.38-.59,1.76-1.12,3.54-1.53,5.35-.38,1.7-.84,3.64-.7,5.4-1.79-1.25-3.74-2.24-5.7-3.17-4.74-2.26-11.23-4.59-19-5.45.7-1.15,1.29-2.29,1.74-3.36,3.72-8.81.48-18.8-3.27-27.02-.72-1.59-9.96-16.04-10.03-15.96,1.94-2.18,3.9-4.33,5.88-6.47,2.97,6.16,5.11,12.67,7.38,19.11,2.11,5.99,3.67,14.88,8.91,19.07,5.62,4.49,12.72-1.64,16.13-6.01,4.36-5.59,4.57-12.22,3.16-18.94-1.57-7.46-4.43-14.57-8.78-20.81-2.48-4.19-5.3-8.06-8.12-11.32.96-.9,1.92-1.8,2.89-2.7,3.74,7.39,6.74,15.63,13.11,20.72,3.31,2.65,7.49,2.7,10.83.08,3.25-2.56,4.22-6.67,4.37-10.65,1.23-9.25-3.07-21.83-7.15-27.67-.14-.23-.27-.45-.41-.68,3.27-2.55,6.6-5.02,9.99-7.41,1.56,6.96,5.83,7.91,11.82,4.84,9.36-2.76,22.73-14.65,33.01-10.59.21.07.38.15.53.23.47,2.61-10.23,6.49-11.91,7.23-3.83,1.71-7.54,3.48-10.68,6.32-6,5.42-9.42,13.54-9.58,21.58-.03,1.43.05,2.95.23,4.5.06,7.97,2.64,15.47,9.18,20.63,11.56,7.51,26.73-33.69,44.23-33.95,1.68.58,1.91,1.87,1.16,3.65-1.56,2.57-4.19,4.94-5.93,6.75-2.56,2.65-5.33,5.13-8.09,7.58-4.92,4.36-10.25,8.48-14.03,13.93-3.58,5.15-5.54,11.78-3.25,17.85,2.11,5.59,6.75,9.99,11.25,13.7.85.7,1.88.46,2.47-.14.4-.14.77-.43,1.1-.9,3.69-5.2,8.03-15.4,12.94-20.97,4.54-5.44,9.56-11.7,16.7-13.69,5.34-1.49,7.66,3.48,6.12,7.84-1.08,3.07-3.86,5.61-6.05,7.92-2.48,2.62-5.14,5.08-8.02,7.26-3.93,2.98-8.14,5.72-11.41,9.46-13.84,15.82,9.83,26.91,22.53,30.91,7.24,2.52,14.45,5.2,21.59,7.87,3.09,1.11,5.96,3.04,9.16,3.74,1.64.05,1.66-1.61,2.12-2.73,2.71-7.43,8.11-12.09,13.91-15.83,1.42-.7,2.73-1.66,4.13-2.39,1.78-.94,3.6-1.78,5.42-2.64,3.53-1.68,7.17-3.41,10.07-6.09,6.49-6.01,4.84-15.13.18-21.72-5.54-7.83-12.69-13.69-21.18-18.03-1.05-.54-3.18-1.42-5.72-2.56-1.58-.84-3.44-1.67-5.34-2.53-6.75-3.44-13.42-8.02-10.87-12.48,6.8-5.69,20.27,3.61,28.45,9.88,4.32,4.7,8.01,10.1,12.47,14.96,2.96,3.23,7.43,6.45,11.96,4.23,4.16-2.04,5.97-7.62,6.56-11.86,1.32-9.48-1.69-21.04-7.62-28.56ZM254.21,284.84c-19.13,33.37-32.79,88.96-45.09,131.56-4.2-1.25-8.6-1.86-13.15-1.72-1.25-.05-2.5-.02-3.78.09-.67-2.71-1.71-5.49-2.99-7.84,7.27-6.49,16.14-11.18,22.23-19.01,5.36-6.19.55-14.85-7.69-13.99-11.68.73-19.85,11.3-25.16,19.93-3.16-2.55-6.83-4.86-10.49-6.61.77-8.6,8.39-16.82,15.48-21.84,12.26-7.92,26.28-10.27,38.73-17.51,9.11-4.81,10.19-13.86-.21-17.63-5.19-1.9-11.27-.42-16.51.92-15.51,4.61-25.68,18.25-37.77,28.12.33-7.16-2.33-12.22-6.78-18.45.03-1.62.09-3.3.19-5.09,14.46,7.48,19.78-9.38,17.84-20.84,10.79-3.71,23.4-1.29,34.73-2.07,7.64-1.48,3.64-8.62.82-11.28-8.65-8.7-28.11-6.51-38.94-.87-2.02-6.71-7.04-12.98-12.99-14.87.31-1.21.67-2.38,1.07-3.5,3.88,2.29,7.92,4.69,12.46,5.29,8.72-1.52,4.67-13.28,3.41-19.12,10.7-.76,19.53,5.62,27.24,10.39,6.51,4.9,23.19,12.63,25.74,2.3,2.97-12.01-17.2-16.4-26.86-18.3-1.15-.12-1.92-1.24-1.02-2.15,11.43-9.66,28.52-4.09,37.59,6.71,5.84,6.24,11.53,16.75,11.89,17.38ZM187.71,404.23c-1.64-2.75-3.41-4.99-5.51-7.12,7.2-6.67,13.74-20.71,24.21-17.68,11.32,3.27-14.8,20.03-18.71,24.8ZM149.14,406.52c3.07,2.51,15.93,13.15,6.86,14.88-6.01-.85-10.57-6.27-15-9.94-4.7-4.36-9.09-8.09-15.13-11.1,13.4-9.73,7.37-24.74-.91-33.43-6.58-7.03-15.17-11.76-21.39-19.14-9.7-12.25.39-11.76,8.04-5.81,6.04,4.02,11.16,8.88,15.86,14.3,5.41,5.18,17.04,24.42,23.73,23.83,8.55-.44,14.8-8.27,16.15-16.51,6.45-2.1,11.53-7.06,17.15-11.97,9.54-8.14,18.95-16.61,32.36-17.8.26,3.59.53,7.17.8,10.76-11.91,6.04-24.85,9.6-36.11,17.07-7.74,5.64-15.1,13.14-18.01,23.71-22.22-7.06-37.68,3.92-14.39,21.16ZM221.69,335.13c2.69,1.58,3.21,4.46.31,6.51-.15-2.17-.23-4.34-.31-6.51ZM177.11,305.21c10.67-1.84,23.77-8.06,33.89-1.44,2.69,2.43,6.79,6.59.09,6.77-10.84-.64-22.03-4.55-32.94-1.19-.29-1.36-.64-2.74-1.04-4.15ZM201.16,263.83c1.9,3.43,7.07,3.48,10.54,4.74.37,3.12.6,6.26.9,9.38-9.91-6.11-22.12-15.24-34.45-13.47-10.42-21.29-44.07-15.56-63.23-12.25,6.29-6.8,16.68-13.44,27.28-12.92,5.02,3.48,10.65,7.23,16.81,7.93,10.27-10.19,32.56-3.35,44.83-12.17,1.3-.84,2.5-1.81,3.58-2.89.76,7.22,1.58,14.45,2.37,21.67-4.26,1.11-11.25,4.62-8.62,9.98ZM217.47,270.48c4.16,1.71,12.91,5.88,10.95,10.3-1.52,3.42-6.71,1.83-10,.37-.28-3.56-.54-7.12-.95-10.66ZM241.4,261.03c-6.89-6.71-16.62-9.49-25.86-8.36-.87-9.83-1.93-19.65-2.68-29.49,1.61-4.83,1.77-9.92-.16-15.11-3.24-10.04-2.29-21.22-3.75-31.69,5.28,9.53,9.61,19.4,14.43,29.14,3.49,10.02,11.19,2.89,14.59-3.05,1.82,5.65,8.02,10.29,13.64,10.92-3.72,16.99-6.68,30.91-10.22,47.65ZM416.28,220.67c-26.81-23.37-56.7-43.83-90.04-56.7-16.55-6.37-34-13.44-51.7-14.84,2.85-6.18,4.11-12.69,2.94-19.04.49-.92.84-1.92,1.38-2.89.05-.09.11-.18.16-.27,8.46-13.4,27.03-21.58,42.54-18.91.12.4.03.93-.37,1.64-.32.57-.7,1.11-1.1,1.63-1.48,1.23-3.49,2.66-5.64,4.11-1.84,1.1-7.8,5.16-6.3,10.79,1.12,2.89,3.96,2.96,5.57,2.93,4.55.02,8.5-4.51,11.91-7.24,4.65-3.89,9.44-6.84,14.23-8.75,4.31-1.79,8.95-2.7,13.78-2.7,5.25-1.22,34.48,7.94,17.89,12.37-16.57,3.33-33.43-2.26-48.27,10.07-1.85,1.71-3.92,4.07-3.46,7.14,2.28,11.08,29.92-.35,37.16-2.17,9.5-3.08,19.38-6.23,29.55-6.26,9.26-.09,27.66,5.67,26.04,17.53-4.61,1.21-9.61-.02-14.03-1.27-5.53-1.36-11.04-2.86-16.62-4.11-16.75-2.8-30.97,1.83-37.79,7.42-1.99,1.32-3.52,2.91-3.86,4.69-1.78,4.2,1.32,7.92,11.35,8.48,1.61.15,3.27.14,4.94.03,4.71-.17,10.49-.88,17.48-2.29,14.53-1.71,35.69-7.61,46.51,4.85,1.55,2.47,2.21,5.97,1.83,9.84-2.1,1.85-6-.82-8.48-1.31-10.32-3.4-27.15-9.78-37.43-2.65-1.73,1.38-5.52,4.97-3.67,8.83,12.94,12.76,36.01-1.35,49.35,10.09,3.9,4.51,1.94,12.36,1.01,18.26-.95,4.82-.52,9.65-.4,14.49-8.92,1.87-18.5,8.11-27.11,4.77-6.71-2.6-10.4-10.29-14.54-16.02-2.9-4.4-7.17-10.93-12.65-10.73-5.13.53-6.17,3.94-3.93,10.35,1.62,4.66,5.07,8.27,8.09,12.02,1.54,2.69,9.45,9.92,7.39,12.74-4.37,3.7-10.44,4.53-16.01,4.94-11.38.62-12-11.83-12.73-20.2-1.08-10.97-2.19-20.53-8.84-30.35-3.32-5.19-8.65-13.9-15.7-13.9-4.75.65-6.5,6.23-6.61,11.05.91,13.27,11.37,23.96,16.73,35.73,3.95,6.42,5.16,13.88-4.73,13.95-11.14.08-27.38-5.47-27.1-18.81-.9-9.32,3.99-42.14-8.82-43.03-13.09,2.72-13.1,25.25-9.32,35.26.75,3.03,6.06,16.42,1.51,17.2-19.15-6.72-26.16-12.49-16.44-32.48,2.32-5.72,9.89-18.34,6.72-23.1-.66-1.09-1.69-1.74-2.77-1.75-1.94-.03-3.75.43-5.4,1.26-.75.24-1.47.53-2.12.87-4.69,2.44-8.15,6.87-9.95,11.78-2.37,6.46-1.19,13.38-3.12,19.85-.22.75-.56,2.04-1.06,2.58-.84.89-2.13,1.3-3.35,1.22-3.15-1.46-6.05-4.43-7.99-7.67-.72-1.4-1.23-2.88-1.64-4.56,4.76-7.05,6.93-15.6,6.19-24.04,1.75-1.96,4.08-3.77,6.19-5.55,5.73,1.98,16.47-10.65,19.54-16.03,18.63,2.1,36.71,9.07,54.11,15.73,32.05,13.68,62.12,31.8,88.63,54.45.23.29.46.67.89.61,1.13-.43.03-1.45-.48-1.95ZM246.26,166.89c-5.93-21.72-22.79-38.39-41.3-49.3-.38-5.28-.84-10.56-1.44-15.81,12.33,9.87,21.98,24.45,30.75,38.02,5.02,8.16,8.88,17.48,15.39,24.6-1.17.76-2.3,1.59-3.39,2.49ZM114.14,215.6c-8.44-1.26-19.64-18.05-21.31-24.56-.88-6.15.9-10.89,4.17-16.38,4.74-8.99,13.59-15.8,21.02-22.75,9.38-6.62,53.36-45.48,22.55-47.84-24.14.71-40.57,32.74-49.19,52.36-1.18,2.89-2.46,5.21-3.45,8.29-1.08,3.2-2.39,7.23-5.38,6.96-9.6-4.15-10.28-24.11-8.65-35.54.59-10.72,4.4-20.74,11.7-28.82,6.88-8.79,19.87-18.88,32.4-21.37,8.21-2.29,16.42-5.45,23.75-9.87,10.65-7.38.73-14.13-7.86-14.88-14.23-2.31-30.42,4.61-42.19,14.31-5.89,5.47-10.58,11.37-15.75,17.2-2.37,2.67-4.96,6.34-6.63,5.45-.68-.76-.77-3.33-.29-7.64.17-11.43,1.89-24.4,5.54-34.66,2.78-9.86,10.43-16.96,18.39-22.36,12.28-8.66,27.21.79,40.64.68,4.03-.05,7.11-.81,9.43-2.34,4.09-2.99,1.32-7.51-3.05-8.49-4.33-1.64-13.48-1.78-8.36-8.36,4.31-7.43,9.7-9.07,17.86-9.27,14.42-.06,30.2,9.67,33.85,24.64.71,1.08.36,2.3-.17,3.35-1.26,3.69-2.8,7.27-4.04,10.96-9.58,31.29-14.93,63.57-18.38,96.07-3.22,28.63-6.13,58.01-.32,86.47.03.23.08.6.39.54.9-.25.19-2.22.22-2.92-.48-7.07-1.66-14.06-1.82-21.15.33-23.14,2.08-46.35,6.08-69.16,2.56-17.31,4.19-34.75,8.13-51.83,3.19-13.87,6.12-27.9,10.87-41.32,1.47-3.81,1.62-8.37,4.53-11.46,10.17-8.95,21.11-15.9,35.3-15.67,14.06.13,31.27,6.31,42.03,15.92,3.86,4.02,10.57,13.82,6.14,20.72-3.46-.61-5.83-3.61-8.71-5.4-4.75-3.29-9.93-6.11-15.54-7.64-6.96-1.63-24.13-4.23-22.55,7.29,9.46,15.11,33.59,15.26,47.48,24.51,5.23,3.57,9.82,10.36,9.83,17.11-.02,7.24-2.37,16.53-8.68,21.85-.34,0-.79-.34-1.6-1.22-4.77-5.88-8.51-10.95-11.76-15.94-11.01-15.65-21.43-26.36-32.8-33.71-5.46-3.59-16.26-7.32-23.54-3.57-6.26,3.58-7.88,11.13-4.22,16.99,6.09,10.69,17.71,17.87,29.15,22.25,8.39,3.81,16.85,7.61,25.23,11.45,16.45,9.31,24.2,29.84,13.08,46.47-1.26,1.56-10.68,15.27-13.29,12.94-2.09-1.98-3.81-4.16-5.09-6.46-13.64-22.82-28.26-58.42-55.7-68.78-5.68-1.9-14.89-.36-14.7,6.77,4.79,22.58,35.56,27.41,47.45,44.45,13.67,13.4,22.77,36.07,12.41,53.99-2.75,4.44-4.81,10.29-9.98,12.47-8.75-22.22-19.92-44.78-39.37-59.17-5.71-3.37-15.33-4.68-18.89,1.62-4.07,13.38,13.69,29.12,21.83,38.48,10.3,10.76,27.11,27.44,12.77,41.87-13.02,10.59-33.13.28-46.57,15.26-11.64-5.04-25.62-16.25-28.98-27.37-1.12-3.65-3.09-12.8,2.71-18.91,6.7-8.95,18.38-17.65,20.45-28.84.27-2.77,1.16-7.08-1.24-9.32-5.84-9.47-18.34,1.36-22.96,7.07-10.52,11.6-11.89,22.14-10.69,35.68-.03,3.94,2,11.95-3.67,12.5ZM199.75,114.1c-5.41-3.74-10.84-7.71-14.61-13.11-7.01-12.61,9.55-5.67,14.04-2.28.25,5.13.43,10.26.57,15.39ZM204.2,192.56c-8.21-12.57-20.36-21.34-27.66-34.42-7.37-12.46,5.89-9.72,11.83-5.85,4.71,3.33,9.33,8.12,13.73,14.14.64,8.72,1.37,17.43,2.1,26.14ZM124.33,215.53c-1.54.52-3.02,1.19-4.36,1.86,5.77-7.58,2.18-22.39,4.93-31.93,1.83-6.64,11.91-23.26,21.55-23.91,2.21-.27,2.85,1.57,3.35,4.09-.87,7.54-6.72,12.8-11.11,17.96-6.09,7.42-14.65,14.42-14.98,24.78-.08,2.42.14,4.81.63,7.16ZM70.75,380.47c1.8-4.73,4.7-7.71,4.28-12.42-.3-3.35-4.05-6.64-7.68-5.68-9.44,2.04-10.99,18.64-13.41,27.7-.57,1.53-1.93,3.39-3.9,3.12-4.04-.38-7.8-4.9-10.54-7.7-9.05-8.31-15.84-23-10.48-34.04,7.58-17.38,26.25-25.85,35.91-42.04,5.44-7.17,1.95-17.25-8.2-16.01-16.33,2.12-25.79,20.85-32.14,35.51-1.9,3.85-2.62,8.39-4.23,12.39-.67,1.66-1.51,4.4-3.07,5.48-1.98,1.38-3.68-1.9-4.6-3.32-.73-1.13-1.39-2.3-2.02-3.48-1.86-3.47-3.36-7.14-4.39-10.94-1.96-7.28-2.12-15.03,0-22.3.93-3.19,2.28-6.25,3.99-9.09,1.89-3.14,4.46-5.53,6.62-8.41,8.15-10.87,17.89-11.75,30.16-14.54,4.95-1.49,12.67-2.73,14.75-8.51,1.63-7.65-6.89-11.67-14.54-11.82-5.06-.27-10.4,2.04-15.27.08-1.22-4.57,4.38-8.21,7.52-9.99,15.2-5.68,33.75-3.14,48,4.65-16.29,39.49-16.83,91.5-3.77,132.13.98,3.31,1.96,5.98,3.8,10.02.13.54.54.87,1.03.78,1.98-.82-.72-4.27-.87-5.9-13.32-41.57-13.78-83.37-.46-125.84,6.11-20.66,19.59-32.17,38.22-40.67,2.35,6.57,6.93,12.59,13.3,17.37-9.74-.23-19.8,4.1-26.12,11.12-1.9,2.53-5.59,5.39-4.36,8.07.53.82,1.62,1.17,2.45.68,7.4-1.24,15.15-2.63,22.72-2.78,6.19-.67,12.14-.78,18,.13,11.23,1.53,22.62,5.07,24.68,16.85.87,4.03,3.02,9.62.69,12.98-3.19,1.06-10.2-4.63-13.12-6.39-13.34-9.69-32.4-17.61-49.33-14.32-17.12,2.47-21.95,19.88-.94,21.08,11.5,1.8,25.47.65,36.56,2.82,18.3,1.02,21.92,12.39,23.51,28.43.51,6.13,1.25,18.06-7.15,18.29-7-1.13-10.59-8.84-15.74-13.08-13.15-11.97-27.67-26.78-46.1-27.48-5.13.09-9.18,2.19-9.97,7.04-1.53,6.95,21.85,16.48,26.96,18.8,8,3.6,15.81,7.77,22.91,12.89,10.97,9.27,22.61,21.34,15.06,36.01-1.53,2.98-5.13,7.92-9,7.49-1.23-.14-2.31-.75-3.3-1.62-1.45-2.12-2.52-4.85-4.13-6.49-2.21-2.92-4.53-5.94-6.99-8.92-2.41-3.07-5.01-6.06-7.81-8.63-2.53-2.5-5.23-4.88-8.14-7.04-4.9-3.62-9.96-7.36-16-8.47-13.13-1.68-8.62,10.47-2.83,16.64,8.34,10.44,17.93,15.76,25.97,25.79,6.41,10.49.35,14.5-7.9,20.49-8.55,6.21-11.96,10.25-16.18,21.09-16.6-6.23-42.36-15.98-32.41-38.03ZM159.76,280.16c-.73,1.36-1.36,2.73-1.86,4.11-12.68-4.28-29.94-2.66-43.88-4.16-27.19-1.09-.59-28.31,45.74.06ZM157.83,333.53c-.38.96-.66,1.85-.84,2.74-8.65-7.97-17.87-14.4-29.47-18.83-6.35-2.79-12.73-5.33-18.82-8.67-3.54-2.38-8.75-3.57-10.21-8-.07-.16-.14-.31-.21-.47,8.8-15.74,50.58,26.17,59.55,33.23ZM113.62,471.18c.72,2.86-.89,6.15-4.19,7.83-.09.04-.18.08-.27.12,1.48-2.63,2.97-5.29,4.46-7.95ZM88.52,567.58c-7.86.07-16.29-1.8-24.17-2.7-2.98-7.56-7.46-15.79-5.13-24.15,2.41-5.07,8.63-6.51,13.59-8.59,5.32-2.3,10.12-4.75,15.33-7.12,11.12-5.89,6.88-18.89-5.23-18.56-1.47,0-2.95.19-4.29.56-3.63.77-7.25,2.73-10.72,5.84-5.37,5.42-9.84,6.62-9.72-2.65.1-11.14,4.56-20.41,18-20.58,9.3-.12,16.95-.06,27.09-2.44.07-.02.15-.04.22-.06.24-.03.46-.1.68-.19,6.28-1.82,16.27-6.7,14.83-16.47-.46-3.85-3.84-6.46-10.33-7.97-16-3.36-22.08,7.41-34.13,8.64-5.17.53-6.54-4.88-5.08-8.78,1.5-5.21,3.38-12.94,7.85-15.52,10.12-5.85,24.38-2.42,35.12-.89,4.96.95,11.14,2.8,16.73,3.11,5.05.29,10.79-4.22,8.31-9.42-2.66-6.28-9.17-9.55-14.91-12.42-7.02-3.02-15.01-4.43-23.85-4.45-6.2.1-12.29.79-18.56,1.38-4.25.4-17.47,1.66-18.43.45-2-2.5,1.14-6.29,2.87-9.08,1.92-2.82,4.04-5.4,7.01-7.24,6.05,6.16,14.47,10.56,23.49,12.43,2.39.5,7.18,1.59,9.17,1.01.38.11.8.04,1.13-.34,3.68-4.15,6.95-8.41,10.97-12.28,2.09-2.01,4.5-3.97,6.74-6.05,11.32,4.78,22.28,20.87,33.91,21.93,7.87-.01,7.6-9.28,3.78-13.89-3.42-4.97-8.44-8.38-13.28-11.45-2.38-1.52-5.26-2.9-5.88-5.84-.53-1.96-.24-3.06.97-3.72,12.51-6.27,28.66,2.16,38.09,10.91,3.58,3.36,6.83,8.66,9.36,14.72-.06.06-1.3.78-1.59.99-32.07,22.65-55.69,55.16-76.99,87.69-10.2,15.85-21.5,31.01-30.52,47.6-.19.32-.36.64-.24,1.02.23.73,1.26.76,1.65.15,1.88-2.9,4.09-5.56,5.96-8.46,28.74-42.73,55.48-88.23,95.22-121.92,2.59-1.82,4.83-4.69,7.83-5.72,16.36-.09,33.66,12.36,42.35,25.96,7.07,9.88,15.08,21.09,12.07,33.55-1.93,6.53-4.94,12.25-9.27,16.22-.81.68-2.83,3.17-4.01,2.74-1.89-.7-1.4-6.04-1.51-7.57-.23-3.22-.58-6.47-1.62-9.54-1.11-3.27-2.59-6.43-4.21-9.47-2.72-5.09-12.25-21.71-19.64-13.63-2.6,2.84-.92,6.89,1.5,10.66,1.38,3.15,3.33,6.18,4.28,7.88,4.29,7.73,9.32,15.2,12.02,23.69.42,1.33.81,2.71,1.1,4.1,1.13,5.14-.96,11.75-3.83,15.96-1.92,2.81-4.45,5.07-7.33,6.86-2.15,1.33-4.56,3.9-7.28,3.85-4.17-.07-2.43-6.35-2.34-8.88.08-2.36-.18-4.85-.44-7.2-.57-5.27-1.73-10.45-3.09-15.57-1.33-5.01-2.78-10.04-4.98-14.76-3.37-7.23-8.72-13.09-16.52-15.43-3.8-1.14-7.43-1.43-10.32,1.76-2.36,2.62-3.49,6.63-2.57,10.07,1.07,4.02,3.23,7.65,5.31,11.15,7.01,11.46,14.01,23.19,16.53,37.43,1.78,8.11,1.18,15.52-5.19,21.65-3.07,2.95-6.28,5.8-9.98,7.95-2.04,1.19-4.23,2.16-6.52,2.75-1.84.47-5.07,1.23-6.92.52-2.57-.99.67-11.93,1.02-14.02,2.51-14.76,3.99-47.75-14.08-57.55-7.61-4.13-15.95,1.47-16.12,10.78-.19,13.89,7.35,26.96,7.98,40.94.41,9.23,3.93,25.98-9.54,27.85-1.21.17-2.45.17-3.67.12-2.83-.11-3.2-2.05-3.21-4.53-.01-4.28-.03-8.68-.75-13.02-1.07-8.05-10.46-7.55-12.76-.77-1.71,5.03,5.78,16.97-3.02,18.25-5.44.79-10.83,0-16.28-.24ZM128.54,444.65c1.04-1.85,2.02-3.59,2.92-5.18,1.88,2.48,1.99,4.77-2.7,5.17-.08,0-.15,0-.23.01ZM331.98,594.42c-18.66,18.62-38.15,29.36-61.34,33.81-10.26,1.97-84.97.44-89.04-.01-23.16-4.46-42.63-15.2-61.27-33.8-6.54-6.53-13.87-14.13-19.81-22.68.49-.05.98-.11,1.46-.18.08.08.16.16.25.23l31.01,22.69c5.22,3.82,12.24,3.82,17.46,0l27.99-20.48c3.4-2.49,7.96-2.49,11.36,0l27.99,20.48c2.61,1.91,5.67,2.87,8.73,2.87,3.06,0,6.12-.96,8.73-2.87l27.99-20.48c3.4-2.49,7.96-2.49,11.36,0l28,20.48c5.22,3.82,12.24,3.82,17.46,0l31.87-23.31c-5.7,8.29-12.93,15.99-20.21,23.26ZM358.6,560.07l-41.33,30.24c-3.4,2.48-7.96,2.48-11.36,0l-28-20.48c-5.22-3.82-12.24-3.82-17.46,0l-27.99,20.48c-3.4,2.49-7.96,2.49-11.36,0l-27.99-20.48c-5.22-3.82-12.24-3.82-17.46,0l-27.99,20.48c-3.4,2.48-7.96,2.48-11.36,0l-28-20.49c3.02-1.45,5.28-3.88,5.7-8.05.24-2.39-.07-7.73,0-10.63.04-1.65,2.4-1.88,2.76-.27,1.55,6.84-1.54,16.03,3.55,19.17,4.53,3.36,10.05,1.51,14.52-.94,4.55-2.48,6.67-6.52,8.24-11.28,1.07-3.26,1.5-6.78,1.39-10.31-.48-14.88-7.79-28.52-9.81-43.07-.49-3.51-.87-10.45,2.95-12.38,5.45-2.74,10.17,2.19,12.5,6.71,3.04,5.89,4.59,13.09,5.48,19.61,1.24,9.11,2.03,18.27.33,27.38-.71,3.81-1.49,7.54-1.47,11.43.01,2.18.21,4.29,1.89,5.88,5.45,5.15,15.17,1,20.46-2.34,5.99-3.79,12.45-9.32,14.94-16.15,2.56-7.02,1.66-14.9-.15-21.98-1-3.92-2.34-7.74-3.88-11.47-.76-1.83-1.57-3.65-2.42-5.44-3.94-8.27-9.59-15.62-13.36-23.97-1.5-3.34-1.76-7.24,1.52-9.67,4.16-3.08,10.61,2.92,13.02,5.89,4.49,5.53,6.61,12.11,8.48,18.87,2,7.24,3.53,14.61,4.38,22.07.24,2.09.38,4.55.82,6.79.08,2.42.58,4.96,2.43,6.35,2.75,2.07,7.12.93,10.07-.14,5.8-2.09,10.47-6.77,13.46-12.21.08,0,.17,0,.25,0-.02-.59.16-1.16.56-1.59.58-1.21,1.08-2.44,1.48-3.69,2.35-7.23.42-15.02-2.69-22-2.26-6.06-5.53-11.75-8.33-16.43-1.73-2.86-3.83-5.47-5.62-8.29-1.18-1.86-6.42-10.69-.08-8.68,1.54.49,2.84,1.63,3.93,2.78,2.27,2.38,3.92,5.28,5.58,8.09,2.62,4.44,5.08,9.42,5.99,14.54.91,4.28.42,10.07,3.71,13.44,3.38,3.47,7.52-1.04,10-3.35,7.9-7.35,10.53-17.91,9.04-28.37-.74-5.19-2.36-10.25-4.51-15.02-.53-1.17-2.25-5.57-4-8.83,10.26,0,20.32-.05,30.07-.13-3.83,4.47-5.23,10.21-4.77,16.35.34,4.53,1.85,8.97,4.37,12.76,2.2,3.32,5.79,7.39,9.45,9.11,2.08.98,4.69,1.06,6.54-.46,1.8-1.48,2.91-4,4.08-5.96,1.32-2.21,2.67-4.45,4.4-6.37,2.85-3.16,5.85-7.86,10.51-7.36,4.29.46-1,7.52-1.93,8.68-2.85,3.58-5.97,6.69-8.49,10.57-2.57,3.96-5.45,8.49-6.62,13.12-1.71,6.75,1.06,14.37,4.89,19.9,3.05,4.4,8.15,9.19,13.76,9.64,6.73.55,7.89-5.71,9-11,1.27-6.06,1.94-12.64,4.17-18.59.7-1.88,2.47-7.35,4.75-7.84,2.36-.52,3.37,3.14,3.88,4.84,1.62,5.45.18,11.15-1.8,16.3-3.61,9.33-9.35,17.09-1.44,26.29,7.83,9.12,18.75,16.69,28.92,23.03,1.31.82,2.85,1.78,4.48,2.61-.32.78-.66,1.55-1.02,2.32ZM307.44,434.38c26.36,19.42,48.37,44.18,65.09,72.28.29.34.36,1.2.93,1.1.26-.12.25-.4.16-.65-15.63-30.22-38.97-56.1-66.01-76.61.11-10.83,5.3-21.93,14.6-27.08,2.33-1.13,4.78-1.99,7.29-2.58.16-.03.31-.06.47-.09,6.86-1.15,14.53.19,22.16,3.89,3.99,1.59,21.22,12.83,12.87,16.36-6.98,3.22-15.65,4.43-19.08,13.24-.69,2.5-.43,4.35.77,5.51,6.79,5.2,23.73-6.46,33.81-3.84,11.26,3.08,19,15.8,22.23,27.09.37,2,1.97,5.49,1.65,7.87-.15.61-.38,1.16-.72,1.6-.26.28-.61.5-1.05.66-4.4.76-8.59-2.21-12.53-3.78-2.09-.97-4.13-1.87-6.2-2.63-4.8-2.05-9.75-3.51-15.01-2.33-2.45.55-4.8,1.85-6.26,3.89-2.18,2.1-3.18,5.03-1.68,7.88,6.84,8.93,26.11,7.26,35.97,11.53,9.4,3.12,13.1,8.99,15.43,18.67.88,4.26,1.09,6.68.54,7.71-.21.25-.46.44-.73.58-1.21.26-3.5-1.19-7.02-3.61-13.95-11.14-29.56-1.61-17.51,7.25,13.91,7.05,33.44,12.93,22.37,32.15-1.27,2.72-2.37,5.54-3.51,8.33-.37.64-.74,1.28-1.12,1.91-6.13.13-13.92-1.41-18.46-3.83-2.87-1.81-2.01-6.9-2.29-10.17-.02-3.67-.44-7.57-1.29-11.91-.94-3.7-2.96-7.26-5.82-10.27-1.34-1.92-3.04-3.6-5.01-4.53-2.3-1.69-5.09-2.89-7.73-2.11-7.36,3.54-3.6,14.76-1.55,20.84,1.35,3.96,6.83,11.54,3.05,15.06-6.26,2.42-22.91-13.34-29.07-17.13-4.41-3.6-12.07-7.48-10.38-14.27,1.04-9.22,6.92-17.61,7.65-26.47.72-6.65-.17-11.38-5.36-14.61-16.13-6.68-15.64,19.15-16.76,28.84-.4,7.74-3.41,12.34-10.24,5.76-5.27-4.7-11.89-11.7-9.97-20.55.25-2.21,1.28-4.52,2.76-6.86,2.02-3.66,4.11-7.44,6.71-10.79,3.2-4.84,7.98-7.87,9.6-13.47,1.26-5.77-5.95-10-11.01-8.1-17.37,6.28-12.34,30.01-22.93,16.43-3.77-6-8.11-12.8-6.18-20.08,2.41-10.73,24.17-16.48,36.35-18.12ZM288.26,424.47c1.53.44,3.04.95,4.53,1.52,1.25.48,2.47,1.12,3.6,1.86,1.19.78,3.7,3.01,3.73,3.01-5.24.19-11.71,1.53-16.3,3.32-1.11.43-2.2.92-3.28,1.44-.41-.18-.87-.29-1.35-.29h-.04c-10.16.11-20.74.18-31.56.2.58-.57,1.08-1.22,1.48-1.98,1.02-1.97,1.39-4.07,1.33-6.2,2.19-1.01,4.44-1.88,6.72-2.59,1,1.59,2.27,2.97,3.94,3.87,5.9,3.16,12-.99,16.12-6.14,3.75.28,7.47.94,11.09,1.99ZM248.39,395.94c3.28,7.11,4.01,15,6.08,22.47.3,1.08.67,2.2,1.11,3.3-1.91.61-3.79,1.32-5.64,2.14-.51-2.24-1.37-4.43-2.35-6.41-1.03-2.09-5.65-9.28-6.11-12.74-.05-.39,5.42-6.97,6.9-8.76ZM240.2,402.07c-1.9-3.82-8.68-17.13.09-14.73,2.83,1.23,4.89,3.21,6.46,5.6-2.29,2.96-4.49,6-6.55,9.13ZM265.25,369.71c-5.37-7.41-17.6-16.97-14.76-26.04,8.05-.79,17.82,12.72,21.18,18.74-2.18,2.4-4.32,4.84-6.42,7.31ZM289.25,344.37c-4.22-4.16-10.07-8.26-16-12.25-2.85-2.02-5.76-4.18-7.24-7.42-.21-.37-.39-.7-.53-1.01,4.83-2.45,10.52.57,14.74,3.37,2.22,1.47,4.26,3.21,6.14,5.13,2.38,2.8,4.5,5.82,6.56,8.82-1.23,1.11-2.45,2.23-3.67,3.36ZM319.75,349.44c.44,5.64-.85,17.4-8.96,11.48-7.65-8-10.57-19.54-17.73-28-3.75-5.39-20.28-22.72-30.94-14.73-5.63,7.38,9.89,16.83,14.88,20.51,3.07,2.21,6.01,4.58,8.77,7.11,2.02,2.44,4.43,4.66,6.67,6.95,5.41,6.45,9.53,13.83,11.58,22.28,2.6,9.86,1.88,16.9-6.02,23.56-7.9,6.45-9.31-1.06-10.63-7.79-1.6-7.09-2.95-13.96-5.35-20.87-5.12-12.74-17-31.67-31.91-32.16-13.4,5.13,2.84,24.76,8.39,30.96,6.53,7.61,14.27,16.88,18.04,28.97,1.2,4.35,1.98,8.78,1.8,13.29-.04,1.05-.2,2.05-.44,3-1.2,2.97-3.63,5.2-6.79,8.26-4.23,3.77-7.25,3.62-9.43,1.5-1.22-1.29-2.02-3.03-2.68-4.63-.56-1.37-1-2.77-1.38-4.19-.9-3.67-1.39-7.53-1.74-10.14-.37-5.05-1.87-9.42-3.96-12.97-1.84-3.47-4.47-6.42-7.76-8.22-7.01-4.36-14.16-2.25-12.13,8.89,3.67,11.73,11.54,21.29,14.06,33.54-.19,6.82-6.53,7.44-12.07,7.05-6.25-7.15-14.04-12.94-22.81-16.03,13.11-44.53,24.68-89.91,44.3-132.15,24.49-3.21,39.9.01,53.37,13.13,1.68,1.72,7.85,10.63,6.7,13.37-3.35,3.62-11.4-7.32-14.12.63-.72,3.92,5.55,9.33,8.13,12.79,5.44,7.08,9.5,15.57,10.16,24.57ZM487.03,378.32s-.05.1-.08.15c-.5.85-1.07,1.46-1.69,1.87-.1.04-.2.08-.31.11-3.05-.24-6.65-4.9-8.94-7.4-3.97-4.76-9.06-9.99-14.82-14.37-1.8-1.52-3.7-2.87-5.7-3.89-5.2-3.14-10.78-5.35-16.46-5.83-4.02-.08-8.94,1.62-10.2,6.18-1.22,9.47,8.82,14.02,16.14,17.34,5.95,2.78,13.34,6.37,19.42,11.07.12.11.25.22.37.33,3.04,2.88,7.52,7.47,10.02,12.35.33.83.6,1.69.81,2.57,1.53,6.03-1.97,10.35-7.44,12.61-4.71,2.5-9.64,4.49-13.98,7.74-7.4,5.38-11.04,9.19-14.67,18.92-7.59-4.55-15.64-8.08-23.96-11.02-9-4.28-28.38-6.81-26.34-19.01,1.49-8.97,9.61-12.82,15.92-18.33,4.68-4.04,8.45-6.62,11.8-11.23,7.52-13.37-8.44-19.54-18.08-11.38-9.58,6.41-19.58,20.88-22.81,32.23-3.13-2.99-6.91-5.92-8.93-9.78-.5-1.35-.81-2.8-.85-4.37-.04-1.71.21-3.32.67-4.86,1.68-4.83,5.54-9.09,9.04-12.54.06-.05.11-.1.16-.16,4.92-4.53,9.98-8.82,14.27-13.98.42-.51.87-1.04,1.33-1.59,1.36-1.46,2.7-2.94,4.01-4.44,4.72-4.65,2.55-12.03-4.18-11.97-13.65.08-22.29,12.78-29.48,22.86-2.14,3.14-4.03,5.29-5.87,8.65-1.88,2-3.93,3.24-5.64,1.68-2.96-2.7-4.91-7.35-6.03-11.1-.89-3.01-1.3-6.14-1.19-9.25.8-7.09,3.99-13.95,9.24-18.55,4.22-3.12,9.28-4.71,14.42-6.95,1.54-.67,3.68-1.82,5.47-3.27,2.11-1.28,3.61-2.65,3.8-4.1.29-6.09-6.65-7.07-10.9-7.2-14.84.75-21.71,8.54-33.04,14.02-.18.07-.42.21-.6.27-2.02-1.62-2.1-4.73-2.11-6.83-1.14-12.04,6.5-24.71,16.53-29.88,10.95-5.54,25.53-1.86,35.02,5.53,29.87,27.55,41.7,69.09,52.94,106.91,1.2,4.38,2.03,8.85,3.25,13.23.25.45.12,1.49.8,1.47.24-.08.45-.24.42-.53-1.98-10.76-4.36-21.45-7.72-31.87-9.29-28.97-18.84-60.09-39.71-82.94-1.39-1.52-5.45-6.17-6.1-6.89,1.8-6.77,2.95-14.14,7.83-19.55,12.01-14.92,39.4-23.47,53.81-6.75,2.18,2.18,8.69,11.28,4.25,12.22-6.15,1.3-17.11-1.77-19.03,5.52-2.38,9.05,14.07,6.15,19.63,8.03,9.6,2.79,18.27,9.26,22.16,17.88,4.33,9.06,2.49,19.8-9.55,13.31-8.19-3.78-18.28-9.23-27.11-8.98-7.56-.54-17.96,5.8-11.15,13.19,13.34,9.97,32.17,6.25,46.81,13.28,8.48,4.77,14.34,14.56,15.29,25.57.53,2.91.68,10.08-.99,13.72ZM185.52,212.59c-1.25-3.94-3.14-8.13-7.01-10.09-6.02-3.39-8.71,2.27-9.28,7.42-.16,3.53,1.19,6.95,3.01,9.92,7.95,13.12,17.95,6.16,13.28-7.25ZM180.32,207.33c1.69,3.07,6.59,18.78-1.17,15.73-4.37-2.22-7.1-7.65-7.44-12.47-.55-7.76,4.04-10.41,8.61-3.26ZM39.8,356.45c-2.29,14.73,3.88,38.51,13.84,13.85,2.35-8.24,4.78-19.18.34-25.96-6.03-7.94-13.62,3.18-14.18,12.11ZM46.98,375.01c-5.74,4.41-4.94-11.34-4.71-13.38.26-2.36,2.97-18.03,7.8-14.82,2.42,1.33,2.78,4.41,2.84,6.91.16,7,.29,16.51-5.93,21.29ZM332.71,411.79c-8.04,1.64-18.94,11.09-4.18,12.56,4.72-.18,10.85-.9,13.39-5.44,2.8-5.89-4.51-8.69-9.21-7.12ZM338.98,416.96c-.25,2.88-2.15,3.14-4.26,4.21-6.59,3.33-19.57-.44-6.01-5.06,1.95-.65,10.85-2.89,10.27.85ZM121.85,540.12c7.03-2.76,3.99-12.99,1.74-18.22-3.74-9.44-12.01-7.54-11.3,2.51.3,5.58,2.35,16.03,9.56,15.71ZM117.31,517.98c4.75,1.42,4.9,7.47,5.17,11.59-.04,2.45.41,5.48-1.55,7.33-5.71-.15-9.88-17.7-3.63-18.92ZM292.89,131.18c-3.29,2.14-9.13,6.73-6.1,10.99,2.39,3.31,9.78,1.5,12.43-.93,8.83-8.08,4.69-15.71-6.33-10.06ZM289.69,139.97c-2.91-5.07,9.62-10.99,11.45-6.63,2.01,4.77-8.46,11.86-11.45,6.63ZM347.83,528.87c6.45-5.74-4.36-32.16-11.78-19.32-1.59,5.29-.74,12.47,2.35,17.1,1.96,3.07,6.4,4.85,9.42,2.22ZM339.97,509.44c1.94-.52,2.96,2.09,3.76,3.42,1.56,3.48,2.48,8.82.42,12.18-2.07.76-4.37-2.38-4.9-4.14-.86-2.89-2.46-9.74.72-11.47ZM188.41,452.37c5.07.15,5.49-6.42,4.99-10.17-.09-5.76-7-11.22-11.21-5.41-4.64,5.22-1.41,16,6.23,15.58ZM186.59,437.23c4.33.88,5.54,10.62,2.39,13-3.61,1.5-6.38-3.25-6.41-6.37-.11-1.98,1.66-6.76,4.02-6.62ZM165.3,57.18c6.33-3.78.97-13.16-2.23-17.49-5.99-7.2-21.33-9.96-19.25,3.43.77,4.32,4.27,7.29,7.7,9.67,3.91,2.62,8.87,6.51,13.78,4.39ZM147.01,40.37c.23-3.23,2.78-5.14,5.95-4.49,3.34.55,7.77,3.71,9.6,6.52,1.68,2.93,5.25,9.41,1.88,12.09-4.3,2.2-18.63-9.14-17.43-14.12Z"/>
  </g>
</svg>