<?xml version="1.0" encoding="UTF-8"?>
<svg id="Camada_2" data-name="Camada 2" xmlns="http://www.w3.org/2000/svg" viewBox="0 0 500 597.32">
  <defs>
    <style>
      .cls-1 {
        fill: #a78b6c;
        stroke-width: 0px;
      }
    </style>
  </defs>
  <g id="Belga">
    <path id="_2_-_Belga" data-name="2 - Belga" class="cls-1" d="M495.59,90.14c-3.96-3.68-8.17-7.11-11.95-10.96-19.3-19.73-35.5-41.62-57.16-58.82-10.72-8.51-25.62-7.72-38.22-2.37-14.35,6.1-28.9,11.89-44.04,15.71-8.24,2.08-13.2,2.29-21.54.45-8.19-1.81-16.39-3.84-24.81-4.03-20.71-.46-40.38,10.15-61.1,10.35-33.06.31-61.92-21.58-94.64-5.08-1.68.85-3.48,1.47-5.53,2.33-1.49-2-18.81-23.33-26.63-31.74-5.72-6.16-12.54-7.76-20.87-3.86C60.94,15.3,31.65,26.42,4.62,41.88c-1.22.7-2.46,1.43-3.32,2.53-1.72,2.22-1.49,5.37-.72,8.07,2.63,9.15,4.79,18.6,5.73,28.12,1.15,11.59.63,23.34.92,35.02.11,4.53.21,9.08.75,13.58.48,4.03,2.29,4.74,5.66,2.28,2.38-1.73,4.7-3.72,6.53-6.01,7.61-9.56,15.02-19.27,22.5-28.93,1.24-1.6,2.43-3.23,3.83-5.09,5.34,6.17,16.16,40.93,18.56,51.48.3,1.32.35,2.79.1,4.11-4.06,21.76-3.02,43.43.79,65.1,2.23,12.69,7.86,24.12,12.44,36.01,10.09,26.23,19.13,52.86,28.61,79.33,3.05,8.51,6.63,16.88,11.29,24.65,3.2,5.33,6.77,9.64,11.18,13.34-6.88,16.6-35.39,86.75-41.33,111.37-8.25,34.2-10.69,69.68-7.45,106.38,1.15,12.98,1.53,13.24,14.57,13.31,32.53.19,143.61.8,143.89.8,43.3-.22,86.61-.54,129.91-.8,13.05-.08,13.43-.34,14.57-13.31,3.25-36.7.8-72.18-7.45-106.38-6.13-25.43-36.37-99.46-41.94-112.85.18-.21.36-.41.54-.62,6.97-8.43,11.72-18.15,16.18-28.05,5.02-11.14,10.19-22.22,15.32-33.32,7.09-15.34,15.01-30.33,20.89-46.2,5.58-15.09,9.69-30.75,11.87-46.7,3.11-22.71,2.21-45.85-2.56-68.26-.3-1.39-.31-3.28.4-4.38,3.88-6.01,19.65-25.79,25.65-27.9.63,4.31,1.06,8.25,1.81,12.13.93,4.79,1.69,9.68,3.31,14.24,2.06,5.79,6.56,6.98,11.69,3.69,1.61-1.03,3.06-2.33,4.64-3.41,9.49-6.51,18.9-13.14,28.52-19.45,7.3-4.78,14.96-9.01,22.29-13.74,6.76-4.37,6.8-6.29.78-11.87ZM70.38,124.62c-.37.05-.74.09-1.11.14-3.75-9.52-16.1-38.25-15.62-42.78.46-4.33,18.61-31.25,24.58-40.45,2.82-4.36,6.41-8.25,9.89-12.14,1.56-1.75,3.71-2.98,6.18-4.9.52,1.89,1.03,2.95,1.09,4.05.6,10.79,1.18,21.58,1.63,32.38.06,1.46-18.95,40.95-25.36,60.33-.38,1.14-.85,2.24-1.28,3.36ZM355.61,436.07c18.91,45.98,24.69,94.02,21.44,143.39-.49,7.48-3.22,10.27-11.13,10-14.39-.5-253.09-.5-267.48,0-7.91.27-10.63-2.52-11.13-10-3.26-49.38,2.53-97.41,21.44-143.39,3.24-7.87,13.18-32.09,20.81-49.79,29.89,20.92,65.66,33.71,97.08,34.48.91.02,1.83.03,2.75.03.57,0,1.17-.04,1.75-.05v18.71c-11.36,2.06-19.99,11.98-19.99,23.94,0,13.45,10.9,24.35,24.35,24.35s24.35-10.9,24.35-24.35c0-11.96-8.62-21.88-19.98-23.94v-19.15c32.11-2.62,69.75-16.67,94.25-35.59,7.71,17.81,18.15,43.24,21.48,51.35ZM243.69,464.51c1.53.57,2.71,1.35,3.56,2.36.85,1,1.27,2.16,1.27,3.46,0,1.94-.84,3.53-2.52,4.76-1.68,1.23-4.2,1.84-7.56,1.84h-13.57c-.42,0-.73-.09-.92-.25-.2-.17-.29-.39-.29-.67,0-.51.28-.85.84-1.02l1.1-.25c.33-.09.57-.23.73-.41.16-.18.25-.42.25-.73v-20.75c0-.3-.08-.54-.25-.72-.16-.18-.41-.32-.73-.41l-1.1-.25c-.56-.17-.84-.51-.84-1.02,0-.29.1-.51.29-.68.19-.16.5-.24.92-.24h10.59c2.43,0,4.5.33,6.21,1,1.71.67,3.02,1.59,3.93,2.78s1.36,2.57,1.36,4.15c0,1.31-.37,2.47-1.12,3.5-.74,1.03-1.84,1.85-3.29,2.45-.48.2-1.06.32-1.61.45.99.14,1.92.35,2.75.66ZM227.18,398.93c-19.42-.48-41.56-6.69-62.23-17,4.15.87,8.36,1.43,12.63,1.51,15.65.29,29.29-7.13,44.23-10.55,13.88-3.18,27.43-.17,40.74,3.81,10.44,3.12,21.09,4.79,31.96,5.18.81.03,1.6.03,2.39.02-22.19,10.69-48.7,17.5-69.72,17.02ZM392.28,121.82c-.66-2.36-1.12-4.01-1.57-5.66-4.44-16.18-9.1-32.27-16.81-47.31-.6-1.17-.36-3.6.49-4.54,6.43-7.12,12.95-14.18,19.77-20.92,3.52-3.48,4.99-3.21,7.28.88,9.56,17.06,14.96,35.61,19.71,55.12-10.05,8.12-18.81,15.04-28.87,22.43ZM482.5,102.47c-4.6,2.83-9.39,5.4-14.28,7.7-10.16,4.77-19.84,10.25-28.37,17.63-1.28,1.1-2.76,1.96-5.04,3.55-.91-4.97-1.9-9-2.35-13.09-2.85-25.58-9.89-49.95-21-73.14-1.49-3.12-3.46-6.08-5.58-8.82-2.99-3.85-6.31-4.93-10.63-2.78-4.49,2.23-9,4.82-12.68,8.16-6.83,6.21-12.98,13.16-19.58,19.63-2.6,2.54-2.36,4.78-.99,7.87,9.51,21.39,18.89,42.94,24.29,65.75,6.73,28.44,7.44,58.06,2.77,86.88-6.08,37.45-27.46,69.92-42.9,103.9-.77,1.7-1.55,3.41-2.32,5.11-2.58,5.71-5.46,11.34-8.7,16.7-8.45,13.98-21.09,21.51-37.28,23.05-12.56,1.19-25.14,2.06-37.1-3.37-9.07-4.11-15.34-9.11-20.58-17.03,1.92-1.43,4.01-2.68,6.11-3.77,6.18-3.21,12.88-5.6,18.26-10.02,5.38-4.42,9.26-11.65,7.2-18.3-2.92,2.92-6.25,5.44-9.86,7.45-3.54,1.97-7.88,3.45-11.56,1.76-3.24-1.49-5.02-5.08-5.74-8.58-.62-3.01-.64-6.22.47-9.09,1.11-2.87,3.46-5.34,6.44-6.12,1.43-.37,3.04-.33,4.28.47,1.24.8,1.96,2.48,1.37,3.84-.33.75-.98,1.3-1.42,1.98-1.26,1.97-.47,4.79,1.33,6.27,1.81,1.48,4.33,1.82,6.65,1.49,7.06-1.02,12.41-7.92,12.78-15.04.37-7.12-3.58-14.02-9.22-18.39-5.63-4.37-12.75-6.46-19.84-7.24-5.05-.55-10.07-1.07-15.14-1.11-5.04-.04-10.12.56-15.14,1.11-7.09.78-14.2,2.87-19.84,7.24-5.63,4.37-9.59,11.27-9.22,18.39.37,7.12,5.72,14.03,12.78,15.04,2.31.33,4.84,0,6.65-1.49,1.81-1.48,2.6-4.3,1.33-6.27-.44-.68-1.09-1.23-1.42-1.98-.59-1.35.13-3.03,1.37-3.84,1.24-.8,2.85-.85,4.28-.47,2.97.78,5.33,3.26,6.44,6.12,1.11,2.87,1.09,6.08.47,9.09-.73,3.5-2.5,7.08-5.74,8.58-3.68,1.7-8.02.21-11.56-1.76-3.61-2.01-6.94-4.52-9.86-7.45-2.06,6.65,1.82,13.89,7.2,18.3,5.38,4.42,12.08,6.81,18.26,10.02,2.08,1.08,4.13,2.32,6.04,3.72-1.99,4.19-5.01,7.74-8.54,10.9-8.26,7.42-18.26,10.81-29.13,11.68-13.74,1.09-27.25.22-39.82-6.26-14.11-7.28-22.68-19.43-28.53-33.62-3.58-8.69-6.49-17.68-9.25-26.68-6.05-19.73-15.25-38.25-22.84-57.4-7.98-20.14-12.23-40.16-13.51-61.79-1.36-22.96-.49-47.57,9.79-68.62,8.11-16.61,17.12-32.78,25.95-49.03,1.68-3.09,2.34-5.82,1.68-9.36-2.07-11.15-3.83-22.36-5.5-33.57-1.67-11.21-6.95-13.64-15.73-6.33-5.04,4.2-9.87,9.09-13.42,14.55-8.36,12.85-56.87,78.25-59.27,79.94-.21-3.17-1.93-42.01-5.82-58.9-.91-3.95-.07-6.32,3.11-8.92,13.13-10.75,27.82-18.54,43.75-24.15,11.69-4.12,23.42-8.13,35.04-12.41,4.7-1.73,8.32-1.07,11.61,2.84,8.6,10.22,18,23.53,28.62,31.72,7.04,5.42,15.65-.37,22.21-3.4,10.3-4.77,21.12-4.54,32.12-1.98,7.31,1.7,14.64,3.42,21.77,5.7,17.03,5.45,33.89,5.46,50.94.02,7.29-2.33,14.86-3.95,22.42-5.28,14.76-2.6,29.18-.65,43.39,3.88,2.99.95,6.57,1.24,9.63.62,18.56-3.72,36.43-9.66,53.6-17.69,3.63-1.7,7.35-3.24,11.13-4.58,7.48-2.64,14.5-1.68,20.64,3.53,6.65,5.65,13.42,11.19,19.69,17.25,16.19,15.65,32.13,31.56,48.15,47.39,1.22,1.21,2.31,2.54,4.28,4.73-3.68,2.82-6.65,5.5-10,7.56ZM303.58,180.97c-4.76,7.62-5.79,17.78-2.86,26.42,1.33,3.91,3.46,7.51,6.43,10.42,8.5,8.32,18.24,2.55,23.26-6.3,3.98-7.02,4.48-14.48,1.82-22.07-4.61-13.16-19.06-23.82-28.65-8.46ZM324.54,197.11c-3.22.67-4.75-1.5-5.65-4.09-1.27-3.68.52-8.45,3.35-9.41,2.48-.85,5.02,1.01,5.93,4.33,1.09,3.99-.62,8.55-3.63,9.17ZM146.48,167.44c-15.29-.99-21.73,18.78-18.61,31.05.38,1.49.95,3,1.69,4.49,5.66,11.4,20.86,21.34,29.48,7.47,6.93-11.15,7-22.9.44-34.22-2.74-4.73-7.39-8.42-13-8.79ZM154.22,197.11c-3.22.67-4.75-1.5-5.65-4.09-1.27-3.68.52-8.45,3.35-9.41,2.48-.85,5.02,1.01,5.93,4.33,1.09,3.99-.62,8.55-3.63,9.17ZM238.11,452.16c-.99-.53-2.21-.79-3.64-.79h-1.8v12.06h3.03c1.16,0,2.15-.22,2.96-.66.81-.44,1.42-1.08,1.85-1.93.42-.85.64-1.88.64-3.09,0-1.29-.26-2.41-.77-3.37-.52-.95-1.27-1.69-2.26-2.22ZM236.21,465.03h-3.54v8.12c0,.65.2,1.14.61,1.46.41.32,1,.48,1.78.48h2.05c1.16,0,2.14-.2,2.93-.6.79-.41,1.38-.98,1.78-1.72.4-.74.6-1.61.6-2.6,0-1.55-.53-2.8-1.58-3.73-1.06-.93-2.6-1.4-4.62-1.4Z"/>
  </g>
</svg>