<?xml version="1.0" encoding="UTF-8"?>
<svg id="Camada_2" data-name="Camada 2" xmlns="http://www.w3.org/2000/svg" viewBox="0 0 500 500">
  <defs>
    <style>
      .cls-1 {
        fill: #a78b6c;
        stroke-width: 0px;
      }
    </style>
  </defs>
  <g id="Selo_Cafezim" data-name="Selo Cafezim">
    <g id="_2_-_Selo_Cafezim" data-name="2 - Selo Cafezim">
      <path class="cls-1" d="M249.97,331.88c-7.2-30.82-34.38-53.54-67.4-53.99-1.14-.01-2.26.45-3.06,1.27-.8.83-1.23,1.95-1.17,3.1,1.74,37.68,31.46,67.34,69.15,68.98.06,0,.12,0,.18,0,.83,0,1.63-.25,2.31-.7.68.45,1.48.7,2.31.7.06,0,.12,0,.18,0,37.72-1.59,67.48-31.25,69.22-68.98.05-1.15-.37-2.27-1.17-3.1-.8-.83-1.93-1.27-3.06-1.27-33.06.43-60.27,23.15-67.47,53.99ZM187.06,286.48c29.96,2.58,53.53,26.09,56.18,56.05-29.6-3.37-52.73-26.45-56.18-56.05ZM312.94,286.47c-3.5,29.18-27.06,52.66-56.24,56.05,2.65-29.98,26.25-53.49,56.24-56.05ZM345.01,237.29l-93.04-97.76c-.87-.92-2.07-1.33-3.24-1.27-1.2-.06-2.41.37-3.29,1.32l-90.5,97.76c-1.04,1.12-1.11,4.81-1.11,5.22v27.68c0,51.98,42.26,95.11,94.21,96.15.65.01,1.29.02,1.94.02,24.98,0,48.59-9.69,66.68-27.42,19.03-18.65,29.51-43.61,29.51-70.27v-26.16c0-.42-.08-4.14-1.15-5.26ZM248.77,148.29l88.84,93.35h-48.95c-.29-26.35-17.23-47.72-38.22-47.92-.09,0-.19,0-.28,0-21.05,0-38.34,21.37-38.82,47.92h-48.99l86.42-93.35ZM255.51,247.6c-.9-1.16-1.84-2.29-2.78-3.43-2.95-3.58-5.73-6.95-7.33-10.8-2.05-4.94-2.07-10.82-.05-16.13,1.86-4.89,6.4-11.43,10.96-14.32,13.84,3.83,24.18,20.3,24.01,39.9-.17,18.92-10.1,34.75-23.3,39.04,3.48-4.34,5.8-9.7,6.14-14.48.58-8.21-4.08-15.22-7.64-19.78ZM237.68,236.57c2.07,4.99,5.39,9.02,8.6,12.91.89,1.08,1.78,2.16,2.64,3.26,4.31,5.51,6.18,9.98,5.89,14.04-.46,6.57-6.68,14.31-11.95,15.12-13.42-4.25-23.34-20.45-23.17-39.64.18-19.51,10.72-35.74,24.54-39.41-3.01,3.73-5.37,7.91-6.7,11.41-2.77,7.28-2.72,15.41.15,22.3ZM337.8,268.7c0,24.39-9.59,47.23-27,64.29-16.93,16.6-39.17,25.42-62.6,25.02-47.43-.95-86.01-40.33-86.01-87.79v-20.23h49.56c2.76,23.25,18.58,41.2,37.8,41.37.09,0,.19,0,.28,0,19.29,0,35.42-17.95,38.36-41.37h49.61v18.7Z"/>
      <g>
        <path class="cls-1" d="M54.06,217.6l-.48,4.28c-.93.06-1.77.28-2.52.65-.75.37-1.4.85-1.96,1.45-.56.6-1.01,1.28-1.35,2.05-.34.77-.56,1.61-.66,2.51-.18,1.62.06,3.12.73,4.49.67,1.37,1.75,2.51,3.24,3.42,1.49.92,3.37,1.5,5.64,1.76,2.29.26,4.26.1,5.92-.46s2.96-1.44,3.91-2.62,1.52-2.59,1.7-4.19c.1-.88.07-1.74-.08-2.57s-.43-1.59-.83-2.3c-.4-.7-.93-1.32-1.56-1.85-.64-.53-1.4-.93-2.28-1.21l.5-4.28c1.36.39,2.58.97,3.66,1.76,1.08.78,1.99,1.74,2.71,2.85.72,1.12,1.24,2.36,1.55,3.72.31,1.36.38,2.81.2,4.36-.28,2.43-1.1,4.54-2.47,6.31s-3.2,3.09-5.49,3.94-4.92,1.1-7.92.77c-3-.34-5.52-1.18-7.55-2.52-2.03-1.34-3.52-3.03-4.46-5.06-.94-2.04-1.28-4.27-1-6.69.17-1.49.54-2.86,1.11-4.11.57-1.25,1.33-2.34,2.26-3.29s2.03-1.69,3.28-2.23,2.65-.85,4.19-.92Z"/>
        <path class="cls-1" d="M76.88,204.09l-1.41,4.31-23.73-18.49,1.54-4.69,30.07-.87-1.41,4.31-24.51.39-.07.21,19.52,14.83ZM66.58,199.92l4.58-13.97,3.41,1.12-4.58,13.97-3.41-1.12Z"/>
        <path class="cls-1" d="M88.99,172.47l-24.74-13.76,8.53-15.34,3.21,1.79-6.46,11.61,7.54,4.2,5.84-10.51,3.2,1.78-5.85,10.51,10.79,6-2.08,3.73Z"/>
        <path class="cls-1" d="M86.15,119.96l-2.88-6.54,2.76-3.36,2.21,7.35-2.09,2.55ZM105.69,145.24l-21.89-17.96,11.25-13.72,2.84,2.33-8.55,10.42,6.67,5.47,7.96-9.7,2.83,2.32-7.96,9.71,6.7,5.49,8.65-10.55,2.84,2.33-11.36,13.85Z"/>
        <path class="cls-1" d="M125.66,95.09c-.96-.91-2.07-1.3-3.36-1.16-1.28.14-2.55.73-3.79,1.77-.89.74-1.54,1.53-1.95,2.36s-.6,1.63-.54,2.41c.05.78.33,1.48.85,2.09.43.52.93.85,1.49,1.02s1.14.21,1.75.13c.61-.08,1.21-.24,1.81-.46.6-.22,1.15-.46,1.66-.71l2.58-1.23c.83-.41,1.73-.78,2.7-1.1s1.96-.51,2.98-.56c1.02-.05,2.01.11,2.98.49s1.87,1.05,2.69,2.02c1.03,1.23,1.63,2.58,1.8,4.06.17,1.48-.11,3-.84,4.56-.73,1.55-1.95,3.04-3.64,4.47-1.62,1.36-3.24,2.29-4.86,2.77-1.62.49-3.16.53-4.63.15-1.47-.38-2.79-1.2-3.96-2.44l3.28-2.76c.72.73,1.53,1.17,2.41,1.31.88.14,1.78.04,2.69-.3.91-.34,1.79-.86,2.63-1.57.92-.78,1.62-1.62,2.1-2.52.48-.9.7-1.79.68-2.66s-.34-1.66-.93-2.37c-.54-.64-1.16-1.01-1.87-1.12-.71-.1-1.48-.03-2.32.22-.84.25-1.74.6-2.68,1.05l-3.15,1.46c-2.13.99-4.09,1.45-5.87,1.38s-3.31-.85-4.58-2.36c-1.05-1.24-1.63-2.62-1.74-4.12-.11-1.5.2-3,.92-4.48.72-1.49,1.81-2.85,3.26-4.07,1.46-1.24,2.98-2.07,4.53-2.5,1.56-.43,3.04-.47,4.44-.12,1.41.35,2.61,1.1,3.62,2.24l-3.15,2.66Z"/>
        <path class="cls-1" d="M172.2,90.3l-11.03-26.08,16.34-6.91,1.43,3.39-12.41,5.25,3.36,7.94,11.56-4.89,1.43,3.37-11.56,4.89,3.38,7.98,12.57-5.32,1.43,3.39-16.5,6.98Z"/>
        <path class="cls-1" d="M213.23,55.24c-.42-1.25-1.23-2.11-2.43-2.59s-2.59-.55-4.17-.21c-1.13.25-2.08.64-2.83,1.17-.75.54-1.29,1.16-1.61,1.88-.32.72-.4,1.46-.23,2.25.14.66.42,1.19.84,1.6.41.41.91.72,1.49.93.58.21,1.18.36,1.81.44.63.09,1.23.14,1.8.15l2.85.12c.93.02,1.9.12,2.9.29,1.01.17,1.97.47,2.9.9.92.43,1.73,1.04,2.41,1.83.68.79,1.16,1.8,1.43,3.04.34,1.56.24,3.04-.3,4.44-.54,1.39-1.5,2.6-2.87,3.64-1.37,1.03-3.14,1.78-5.3,2.25-2.07.45-3.93.51-5.59.18-1.66-.33-3.04-1-4.16-2.04-1.12-1.02-1.9-2.36-2.35-4l4.19-.91c.3.98.8,1.74,1.52,2.28s1.56.87,2.52.99c.96.13,1.98.07,3.06-.16,1.18-.25,2.19-.67,3.03-1.24.84-.57,1.46-1.26,1.84-2.04.38-.78.48-1.63.29-2.53-.18-.82-.56-1.44-1.13-1.86-.58-.42-1.3-.72-2.16-.89-.86-.17-1.82-.28-2.87-.33l-3.46-.18c-2.35-.13-4.29-.63-5.84-1.52-1.55-.89-2.53-2.3-2.95-4.23-.35-1.59-.22-3.08.39-4.45.61-1.38,1.58-2.55,2.91-3.54,1.33-.98,2.93-1.67,4.78-2.08,1.87-.41,3.6-.44,5.18-.09s2.91,1,3.98,1.97c1.08.97,1.8,2.19,2.15,3.67l-4.03.87Z"/>
        <path class="cls-1" d="M236.18,73.12l-.69-28.3,10.09-.25c2.2-.06,4.03.3,5.5,1.07,1.46.77,2.57,1.83,3.33,3.2s1.15,2.92,1.19,4.65c.04,1.74-.28,3.31-.97,4.72-.69,1.4-1.75,2.53-3.18,3.37-1.43.84-3.24,1.29-5.43,1.34l-6.94.17-.09-3.62,6.55-.16c1.39-.03,2.51-.3,3.37-.81.85-.5,1.47-1.18,1.86-2.03.38-.85.56-1.81.54-2.87s-.25-2.01-.68-2.83c-.43-.82-1.08-1.45-1.96-1.9s-2.03-.66-3.45-.62l-5.36.13.6,24.64-4.27.11Z"/>
        <path class="cls-1" d="M270.09,73.73l4.47-27.95,17.52,2.8-.58,3.63-13.31-2.13-1.36,8.51,12.39,1.99-.58,3.61-12.39-1.98-1.37,8.56,13.47,2.16-.58,3.63-17.69-2.83Z"/>
        <path class="cls-1" d="M330.53,70.32l-4.04-1.5c.16-.92.16-1.79-.02-2.6s-.49-1.56-.93-2.25c-.45-.68-1-1.28-1.67-1.8-.67-.51-1.43-.93-2.27-1.24-1.53-.57-3.04-.69-4.53-.37s-2.86,1.1-4.1,2.33c-1.25,1.23-2.27,2.92-3.06,5.06-.8,2.16-1.13,4.11-.98,5.86.14,1.74.68,3.22,1.61,4.43s2.15,2.09,3.66,2.65c.84.31,1.68.49,2.52.54s1.65-.03,2.43-.26c.78-.22,1.51-.58,2.17-1.07.67-.5,1.24-1.13,1.72-1.92l4.04,1.51c-.7,1.22-1.56,2.27-2.58,3.13-1.02.87-2.16,1.51-3.42,1.95-1.26.43-2.58.64-3.98.61-1.4-.03-2.82-.31-4.28-.85-2.3-.85-4.14-2.16-5.54-3.91-1.39-1.76-2.23-3.85-2.5-6.27-.28-2.42.11-5.05,1.16-7.87,1.05-2.83,2.47-5.08,4.26-6.73,1.79-1.65,3.79-2.69,5.99-3.12,2.2-.43,4.45-.22,6.74.63,1.41.52,2.65,1.21,3.72,2.07,1.07.85,1.95,1.85,2.64,2.98.69,1.14,1.15,2.38,1.38,3.73s.19,2.78-.11,4.28Z"/>
        <path class="cls-1" d="M354.41,72.61l-13.99,24.61-3.71-2.11,13.99-24.61,3.71,2.11Z"/>
        <path class="cls-1" d="M355.62,106.96l-3.54-2.83,25.63-15.75,3.86,3.08-9.72,28.48-3.54-2.83,8.21-23.09-.17-.14-20.73,13.09ZM363.13,98.78l11.49,9.18-2.24,2.81-11.49-9.18,2.24-2.8Z"/>
        <path class="cls-1" d="M404.93,113.83l-20.91,19.09-2.88-3.15,20.91-19.09,2.88,3.15Z"/>
        <path class="cls-1" d="M420.15,146.3c1.01-.85,1.51-1.91,1.52-3.21,0-1.29-.44-2.61-1.34-3.96-.64-.97-1.35-1.7-2.13-2.2-.77-.5-1.55-.77-2.33-.81-.78-.04-1.51.17-2.18.61-.56.38-.96.83-1.19,1.36-.23.54-.34,1.11-.32,1.73.02.61.1,1.23.25,1.85.15.62.32,1.19.52,1.73l.94,2.7c.32.87.58,1.81.79,2.81s.29,2.01.22,3.03c-.06,1.02-.33,1.99-.82,2.91s-1.25,1.74-2.31,2.44c-1.33.89-2.75,1.34-4.24,1.34s-2.97-.44-4.44-1.35c-1.46-.9-2.81-2.27-4.04-4.11-1.18-1.77-1.91-3.47-2.21-5.14-.3-1.66-.18-3.2.37-4.62.54-1.41,1.5-2.64,2.87-3.66l2.38,3.57c-.8.64-1.33,1.39-1.56,2.25-.24.86-.24,1.77,0,2.71.24.95.66,1.87,1.27,2.79.67,1,1.43,1.79,2.27,2.37.84.57,1.7.9,2.57.97.87.07,1.69-.15,2.46-.66.7-.47,1.14-1.05,1.32-1.74.18-.69.19-1.47.04-2.33-.16-.87-.4-1.79-.75-2.78l-1.1-3.29c-.74-2.23-.98-4.23-.72-5.99.26-1.76,1.21-3.19,2.86-4.28,1.36-.91,2.79-1.33,4.29-1.27,1.5.06,2.96.53,4.36,1.41s2.63,2.11,3.68,3.69c1.06,1.6,1.72,3.19,1.98,4.79.26,1.59.13,3.07-.38,4.43-.51,1.36-1.38,2.47-2.63,3.35l-2.29-3.43Z"/>
        <path class="cls-1" d="M444.51,210.24l-1.17-4.15c.84-.41,1.54-.93,2.09-1.55.55-.63.98-1.32,1.27-2.08s.45-1.56.47-2.41c.02-.84-.09-1.7-.34-2.57-.44-1.57-1.23-2.86-2.37-3.87-1.14-1.02-2.57-1.67-4.3-1.95-1.73-.29-3.69-.12-5.89.5-2.22.63-3.99,1.51-5.31,2.65-1.33,1.14-2.2,2.45-2.63,3.91s-.43,2.97,0,4.52c.24.86.59,1.65,1.04,2.36.45.71,1,1.31,1.64,1.81s1.35.88,2.15,1.13,1.65.33,2.57.26l1.16,4.16c-1.4.15-2.75.07-4.05-.25-1.3-.32-2.5-.86-3.59-1.62-1.09-.76-2.04-1.71-2.84-2.86-.8-1.14-1.41-2.46-1.83-3.96-.66-2.36-.69-4.62-.09-6.78.6-2.16,1.8-4.07,3.6-5.72,1.8-1.65,4.14-2.88,7.04-3.7,2.91-.82,5.56-.99,7.95-.52,2.39.48,4.4,1.48,6.05,3.01,1.64,1.53,2.79,3.47,3.45,5.82.41,1.45.58,2.85.52,4.23s-.34,2.67-.86,3.89-1.25,2.33-2.2,3.31c-.96.98-2.13,1.79-3.53,2.43Z"/>
        <path class="cls-1" d="M444.05,252.76c-3.02.18-5.64-.2-7.88-1.17-2.23-.97-3.99-2.37-5.28-4.22-1.28-1.85-2-3.99-2.15-6.43-.15-2.44.29-4.66,1.33-6.65,1.04-1.99,2.62-3.6,4.72-4.84,2.1-1.24,4.66-1.95,7.66-2.14,3.02-.18,5.64.21,7.88,1.17,2.23.97,3.99,2.38,5.28,4.22,1.28,1.85,2,3.99,2.15,6.44.15,2.44-.29,4.65-1.34,6.64-1.04,1.99-2.61,3.6-4.71,4.84-2.1,1.24-4.65,1.95-7.67,2.14ZM443.78,248.54c2.3-.14,4.21-.63,5.75-1.47,1.53-.84,2.66-1.93,3.4-3.26.73-1.33,1.05-2.81.95-4.42-.1-1.63-.6-3.06-1.49-4.28-.89-1.23-2.15-2.16-3.78-2.8-1.62-.64-3.59-.89-5.88-.74-2.3.14-4.21.63-5.75,1.47-1.53.84-2.66,1.92-3.4,3.25-.73,1.33-1.05,2.8-.95,4.43.1,1.62.6,3.05,1.49,4.28.89,1.23,2.15,2.17,3.78,2.81s3.59.89,5.88.74Z"/>
        <path class="cls-1" d="M457.36,272.02l-.84,5.11-23.17,5.33-.05.33,20.26,12.46-.84,5.11-27.93-4.58.66-4.01,20.22,3.32.04-.26-18.82-11.55.55-3.33,21.54-4.93.04-.26-20.23-3.32.66-4.01,27.93,4.58Z"/>
        <path class="cls-1" d="M420.47,355.01c.86.17,1.7.22,2.5.15.8-.07,1.56-.26,2.27-.57s1.37-.75,1.97-1.32,1.12-1.26,1.58-2.09c.77-1.4,1.11-2.85,1.01-4.37-.1-1.52-.66-2.98-1.68-4.39-1.03-1.41-2.54-2.67-4.54-3.78-2.01-1.11-3.89-1.72-5.64-1.83-1.75-.11-3.3.2-4.64.94-1.35.74-2.42,1.84-3.22,3.29-.74,1.35-1.12,2.68-1.12,3.98,0,1.31.34,2.51,1.04,3.62.7,1.1,1.73,2.04,3.09,2.79l-.72.87,3.92-7.09,3.08,1.7-5.38,9.74-2.82-1.55c-2.08-1.15-3.64-2.59-4.68-4.32-1.04-1.73-1.55-3.6-1.52-5.61.03-2.01.59-4.02,1.7-6.02,1.24-2.24,2.84-3.92,4.81-5.04s4.16-1.63,6.58-1.52c2.42.11,4.94.88,7.55,2.33,1.98,1.09,3.6,2.34,4.87,3.76,1.27,1.41,2.18,2.93,2.73,4.53.55,1.6.75,3.25.59,4.92-.16,1.68-.68,3.32-1.57,4.92-.74,1.34-1.63,2.48-2.66,3.42-1.03.93-2.17,1.66-3.39,2.17-1.23.5-2.5.78-3.83.83-1.33.05-2.65-.15-3.98-.61l2.12-3.84Z"/>
        <path class="cls-1" d="M387.66,389.08c-2.28-1.98-3.87-4.11-4.78-6.37-.91-2.26-1.17-4.49-.79-6.71.38-2.22,1.38-4.24,2.98-6.08,1.61-1.85,3.49-3.11,5.63-3.8,2.14-.68,4.39-.73,6.76-.13,2.37.6,4.69,1.88,6.96,3.86,2.28,1.99,3.87,4.11,4.78,6.37.91,2.26,1.17,4.5.79,6.71-.38,2.21-1.38,4.24-2.99,6.09-1.6,1.84-3.48,3.1-5.62,3.78-2.14.68-4.39.73-6.76.14-2.36-.6-4.68-1.88-6.96-3.87ZM390.43,385.89c1.74,1.51,3.45,2.51,5.12,2.99,1.68.48,3.25.5,4.71.07,1.46-.43,2.72-1.27,3.79-2.49,1.07-1.23,1.72-2.59,1.95-4.09s-.01-3.05-.72-4.65c-.7-1.6-1.93-3.15-3.66-4.67-1.74-1.51-3.44-2.51-5.12-2.99s-3.25-.5-4.7-.07c-1.46.43-2.72,1.26-3.79,2.49-1.07,1.23-1.71,2.59-1.94,4.09-.23,1.51,0,3.06.71,4.66.7,1.6,1.93,3.15,3.66,4.67Z"/>
        <path class="cls-1" d="M366.89,415.16c.91.95,2.01,1.39,3.3,1.31,1.29-.07,2.58-.6,3.86-1.59.92-.71,1.61-1.46,2.06-2.27.45-.8.67-1.6.66-2.38-.01-.79-.27-1.49-.75-2.13-.41-.53-.89-.9-1.44-1.09-.55-.2-1.13-.27-1.74-.21-.61.06-1.22.18-1.83.37s-1.17.4-1.7.63l-2.63,1.11c-.85.38-1.77.7-2.75.98-.98.27-1.98.41-3,.42-1.02,0-2.01-.21-2.96-.63-.95-.42-1.82-1.13-2.59-2.14-.98-1.27-1.51-2.66-1.61-4.14-.1-1.49.25-3,1.05-4.51.8-1.52,2.08-2.95,3.84-4.3,1.68-1.29,3.34-2.13,4.98-2.54,1.64-.41,3.18-.39,4.63.07,1.45.45,2.73,1.33,3.84,2.62l-3.4,2.6c-.69-.76-1.47-1.23-2.34-1.41s-1.78-.13-2.71.17-1.83.78-2.7,1.45c-.96.73-1.7,1.54-2.21,2.41-.52.88-.78,1.76-.8,2.63s.26,1.68.82,2.41c.51.67,1.12,1.07,1.82,1.2.7.14,1.48.1,2.33-.11.85-.21,1.76-.52,2.73-.93l3.21-1.31c2.18-.89,4.15-1.26,5.93-1.11s3.27,1,4.46,2.57c.99,1.3,1.51,2.69,1.54,4.2s-.34,2.98-1.13,4.44c-.79,1.46-1.94,2.76-3.44,3.92-1.52,1.16-3.07,1.93-4.65,2.29-1.58.36-3.06.33-4.44-.08-1.39-.42-2.56-1.22-3.51-2.41l3.27-2.5Z"/>
        <path class="cls-1" d="M350.8,430.18l1.64,3.29-19.6,9.78-1.64-3.29,7.9-3.94-10.99-22.04,3.81-1.9,10.99,22.04,7.89-3.93Z"/>
        <path class="cls-1" d="M311.27,450.93l-8.62-26.96,4.07-1.3,8.62,26.97-4.07,1.3Z"/>
        <path class="cls-1" d="M291.5,456.46l-5.14.67-11.8-20.65-.33.04-6.07,22.99-5.14.67-3.68-28.07,4.03-.53,2.66,20.31.26-.04,5.62-21.35,3.34-.44,10.94,19.2.26-.03-2.66-20.33,4.03-.53,3.68,28.07Z"/>
        <path class="cls-1" d="M197.33,444.23l4.22.88c-.03.93.11,1.8.41,2.57.3.78.72,1.47,1.26,2.08.54.61,1.18,1.12,1.92,1.53.74.4,1.55.7,2.43.89,1.6.33,3.11.22,4.53-.31,1.42-.54,2.66-1.52,3.71-2.92s1.81-3.22,2.27-5.46c.47-2.26.5-4.24.1-5.94-.4-1.7-1.15-3.08-2.25-4.14-1.1-1.06-2.43-1.75-4.01-2.08-.88-.18-1.73-.24-2.57-.16s-1.63.28-2.37.62c-.74.33-1.4.8-1.99,1.38-.59.59-1.06,1.31-1.42,2.16l-4.22-.89c.51-1.32,1.2-2.48,2.09-3.48.88-1.01,1.91-1.82,3.09-2.44,1.18-.62,2.46-1.02,3.84-1.2s2.84-.12,4.36.2c2.4.5,4.42,1.52,6.06,3.05,1.64,1.53,2.78,3.47,3.41,5.83.64,2.35.65,5.01.03,7.95-.62,2.96-1.69,5.39-3.21,7.29s-3.34,3.22-5.46,3.98c-2.11.75-4.37.88-6.76.38-1.47-.31-2.8-.8-3.99-1.49-1.19-.68-2.21-1.54-3.06-2.55-.85-1.02-1.49-2.18-1.92-3.47-.43-1.3-.6-2.72-.53-4.26Z"/>
        <path class="cls-1" d="M185.96,420.23l4.16,1.81-20.63,21.9-4.52-1.97,1.94-30.02,4.16,1.81-1.9,24.43.2.09,16.59-18.05ZM180.84,430.1l-13.49-5.86,1.43-3.29,13.49,5.86-1.43,3.29Z"/>
        <path class="cls-1" d="M131.28,413.83c-.62,1.16-.7,2.34-.23,3.54.47,1.2,1.37,2.26,2.7,3.19.96.66,1.88,1.08,2.79,1.26.91.18,1.73.15,2.47-.11s1.34-.71,1.8-1.37c.38-.55.58-1.12.6-1.7.02-.59-.1-1.16-.34-1.72-.24-.57-.55-1.11-.92-1.63s-.74-.99-1.12-1.42l-1.86-2.16c-.62-.69-1.21-1.46-1.78-2.32-.57-.85-1.01-1.76-1.32-2.73-.32-.97-.42-1.97-.32-3.01.11-1.03.52-2.08,1.24-3.12.91-1.32,2.06-2.26,3.45-2.81,1.39-.55,2.92-.68,4.62-.39,1.7.3,3.45,1.07,5.27,2.33,1.74,1.21,3.06,2.53,3.95,3.96.89,1.43,1.35,2.91,1.36,4.42.02,1.52-.42,3-1.32,4.46l-3.53-2.43c.51-.89.72-1.78.63-2.67-.1-.89-.43-1.73-1-2.52-.57-.79-1.3-1.49-2.2-2.12-.99-.68-1.99-1.14-2.98-1.36-.99-.22-1.91-.21-2.75.05s-1.52.76-2.04,1.52c-.48.69-.67,1.39-.59,2.1.09.71.36,1.44.83,2.19.47.74,1.04,1.52,1.72,2.31l2.23,2.65c1.51,1.8,2.48,3.56,2.88,5.3s.05,3.42-1.07,5.04c-.93,1.34-2.1,2.26-3.52,2.76-1.42.5-2.94.6-4.57.29-1.63-.3-3.22-.99-4.79-2.07-1.58-1.09-2.78-2.33-3.61-3.72-.83-1.39-1.25-2.81-1.28-4.26-.03-1.45.37-2.8,1.21-4.08l3.39,2.34Z"/>
        <path class="cls-1" d="M128.64,384.82l-20.1,19.94-12.5-12.6,2.61-2.59,9.49,9.57,6.12-6.07-8.84-8.91,2.6-2.58,8.84,8.91,6.15-6.1-9.61-9.69,2.61-2.59,12.61,12.72Z"/>
        <path class="cls-1" d="M81.21,373.54l22.81-16.77,2.53,3.44-22.81,16.76-2.53-3.44Z"/>
        <path class="cls-1" d="M95.21,343.7l-25.09,13.11-4.67-8.94c-1.02-1.94-1.52-3.74-1.53-5.37,0-1.63.42-3.08,1.27-4.34.85-1.25,2.04-2.28,3.59-3.09,1.54-.8,3.05-1.19,4.55-1.15,1.5.03,2.91.52,4.23,1.47,1.32.95,2.48,2.4,3.5,4.34l3.54,6.77-3.26,1.7-3.36-6.43c-.64-1.23-1.34-2.13-2.09-2.72-.75-.59-1.56-.88-2.42-.89s-1.76.23-2.69.73c-.95.49-1.67,1.1-2.18,1.83-.5.72-.74,1.57-.71,2.54.03.97.37,2.07,1.03,3.32l2.48,4.75,21.84-11.42,1.98,3.78ZM77.42,337.24l8.08-12.11,2.25,4.31-8.14,11.99-2.19-4.19Z"/>
        <path class="cls-1" d="M60.29,293.35c2.91-.83,5.55-1.02,7.95-.54,2.39.46,4.41,1.46,6.06,2.99,1.65,1.53,2.81,3.47,3.48,5.82.67,2.36.71,4.62.12,6.78-.59,2.17-1.78,4.08-3.57,5.74-1.79,1.66-4.13,2.9-7.03,3.73-2.91.83-5.55,1.01-7.94.54-2.39-.47-4.41-1.46-6.06-2.99-1.65-1.52-2.81-3.47-3.48-5.82-.67-2.35-.71-4.61-.12-6.77.59-2.17,1.78-4.08,3.56-5.74,1.78-1.66,4.13-2.9,7.03-3.73ZM61.45,297.42c-2.21.63-3.98,1.52-5.29,2.67s-2.19,2.45-2.62,3.91c-.43,1.46-.42,2.97.02,4.53.45,1.57,1.24,2.86,2.38,3.86,1.14,1.01,2.57,1.65,4.29,1.93,1.72.28,3.69.1,5.91-.53,2.22-.63,3.98-1.52,5.3-2.66,1.32-1.15,2.19-2.45,2.62-3.91.43-1.45.43-2.97-.02-4.53-.45-1.56-1.24-2.84-2.37-3.86-1.14-1.01-2.57-1.66-4.29-1.94-1.72-.28-3.69-.1-5.91.53Z"/>
      </g>
      <path class="cls-1" d="M250,500C112.15,500,0,387.85,0,250S112.15,0,250,0s250,112.15,250,250-112.15,250-250,250ZM250,7.54C116.31,7.54,7.54,116.31,7.54,250s108.77,242.46,242.46,242.46,242.46-108.77,242.46-242.46S383.69,7.54,250,7.54Z"/>
    </g>
  </g>
</svg>