<?xml version="1.0" encoding="UTF-8"?>
<svg id="Camada_2" data-name="Camada 2" xmlns="http://www.w3.org/2000/svg" viewBox="0 0 321.23 681.7">
  <defs>
    <style>
      .cls-1 {
        fill: #a78b6c;
        stroke-width: 0px;
      }
    </style>
  </defs>
  <g id="Para_Viagem" data-name="Para Viagem">
    <path id="_2_-_Para_Viagem" data-name="2 - Para Viagem" class="cls-1" d="M164.79,436.66c-1.26.1-2.2,1.21-2.1,2.47,3.81,47.64-34.93,69.91-35.32,70.12-1.1.62-1.5,2.01-.88,3.12.42.75,1.2,1.17,2,1.17.38,0,.76-.09,1.11-.29.42-.23,41.7-23.86,37.65-74.49-.1-1.26-1.23-2.22-2.47-2.1ZM312.03,42.06c.95-10.95-7.8-13.22-12.08-14.34-.78-.2-1.8-.46-2.29-.68-.2-.85-.34-2.87-.46-4.53-.43-6.04-1.01-14.31-5.11-18.93-1.42-1.6-4.08-4.58-120.46-3.25C114.35.98,55.46,2.48,52.76,2.84c-5.71.72-6.57,14.38-6.2,26.45-2.84,1.02-4.74,2.7-5.66,5.01-1.28,3.21-.2,6.7.85,8.96-3.12,1.97-4.92,5.09-5.94,7.83-7.68-10.92-14.19-13.2-17.64-13.51-3.7-.33-6.96,1.32-8.46,4.32-4.66,9.3,8.59,120.23,11.61,144.96-11.51,15.09-11.37,43.05-11.23,70.11.1,20.27.2,39.41-4.85,49.9-8.19,17.06-5.02,28.93-2.22,39.4,1.48,5.51,2.87,10.72,2.48,16.22-1.51,20.84,12.38,47.65,23.54,69.19,4.55,8.79,8.85,17.09,11.43,23.68,6.92,17.68-6.83,154.11-15.07,223.78-.07.65.13,1.3.57,1.79.43.49,1.05.77,1.71.77h2.12l.45-4.58c2.87-24.57,23.1-201.42,14.48-223.43-2.66-6.82-7.02-15.22-11.63-24.12-10.89-21.03-24.44-47.2-23.03-66.75.45-6.27-1.04-11.84-2.62-17.73-2.72-10.18-5.54-20.71,1.92-36.24,5.5-11.43,5.4-31.09,5.3-51.91-.14-26.62-.28-54.15,10.69-67.81t.01-.01c.06-.05.14-.12.23-.19.26-.23.66-.56,1.17-.98.1-.08.2-.16.31-.25.05-.04.1-.09.15-.13.16-.13.33-.27.5-.41.91-.74,2.03-1.65,3.34-2.68.29-.23.58-.47.89-.71,0,0,0-.01.02-.01.19-.15.38-.3.57-.45.58-.45,1.19-.92,1.82-1.41.35-.27.72-.55,1.09-.84.07-.05.14-.1.2-.15.36-.27.72-.55,1.09-.83,1.93-1.44,4.03-2.99,6.24-4.56.53-.38,1.06-.75,1.6-1.13s1.08-.76,1.64-1.13c.55-.38,1.11-.76,1.67-1.14.56-.37,1.12-.75,1.69-1.12,2.4-1.58,4.87-3.13,7.34-4.59,1.04-.62,2.08-1.21,3.12-1.78.43-.24.86-.47,1.29-.7.85-.46,1.69-.89,2.54-1.32.42-.21.85-.42,1.27-.62.04-.02.09-.04.13-.06.23-.12.47-.23.7-.34.07-.03.13-.06.2-.09.23-.11.46-.21.69-.32h.01c.46-.11,1.64-.37,3.4-.73.44-.09.91-.19,1.42-.3.25-.05.51-.1.79-.16.55-.1,1.12-.22,1.72-.34.31-.06.62-.12.95-.18,1.18-.23,2.48-.47,3.86-.72.46-.09.93-.17,1.41-.25h.01c.38-.07.77-.14,1.17-.2,1.18-.21,2.41-.42,3.69-.62h.01c.85-.14,1.71-.28,2.6-.41,3.04-.47,6.29-.92,9.63-1.31.02-.01.03-.01.05-.01h.03s.07-.01.1-.01c.06-.01.13-.02.19-.02,8.88-1.05,16.79-1.53,23.61-1.45.32,0,.64.01.96.01.25.01.49.01.74.02.37.01.74.02,1.11.04.36.01.71.02,1.06.04.39.02.78.04,1.16.06,1.45.08,2.84.2,4.17.35-.32,0-.65.01-.97.02-.78.02-1.56.06-2.33.1-.77.05-1.52.11-2.26.18-.13.01-.26.02-.39.04-.37.04-.73.08-1.08.12-.12.01-.23.02-.35.04-.35.04-.69.09-1.03.14-1.65.23-3.19.51-4.56.82-.97.22-1.86.46-2.64.71-.03.01-.05.02-.08.02-.44.14-.84.28-1.21.43-.14.06-.28.11-.4.16-.47.2-.86.4-1.17.6-.29.19-.57.41-.83.67-.09.09-.18.17-.26.26-2.67,2.84-3.6,8.67-3.29,13.65.05.78.12,1.53.23,2.26.08.55.18,1.07.28,1.58.11.51.24,1.01.37,1.48.37,1.27.84,2.41,1.4,3.4.15.25.29.48.44.71.23.34.48.67.73.97.12.15.25.29.39.43.13.14.26.27.4.4.55.51,1.16.93,1.81,1.25h.01c.56.27,1.24.5,2.03.68.24.06.48.11.74.16.06.01.12.02.18.03.28.05.56.1.86.14.04.01.09.01.14.02.3.04.62.08.94.1.64.06,1.3.09,2,.12h.06c.18.01.36.02.54.01.18.01.36.01.55.01.27,0,.55,0,.83-.02.4,0,.81-.02,1.23-.04.21-.01.42-.02.64-.03.14-.01.27-.02.41-.03.37-.02.74-.05,1.12-.08.49-.04.99-.1,1.49-.16.48-.06.97-.12,1.46-.19,2.94-.42,5.98-1.1,8.86-2.06.48-.16.96-.33,1.43-.5.54-.2,1.07-.41,1.59-.63-.25.24-.5.46-.76.67-.26.23-.53.46-.8.68-.54.46-1.1.92-1.68,1.36-.33.26-.66.52-1,.78-.55.42-1.11.83-1.68,1.24-.31.22-.62.45-.93.67-.95.67-1.92,1.33-2.91,1.99-.66.44-1.33.88-2.02,1.31-.35.22-.7.44-1.06.67-1.04.65-2.09,1.29-3.16,1.91-1.44.86-2.91,1.69-4.4,2.51-1.12.61-2.25,1.22-3.39,1.83-1.86.98-3.74,1.94-5.63,2.88-.05.02-.09.04-.13.06-5.08,2.51-10.22,4.84-15.1,6.93-.61.26-1.22.52-1.82.77-1.81.76-3.58,1.48-5.29,2.16-.46.18-.91.36-1.36.54-.35.13-.69.26-1.02.4-1.68.65-3.3,1.27-4.84,1.84-.31.11-.61.23-.91.34-.89.32-1.76.63-2.58.93-.01,0-.02,0-.03.01-1.12.39-2.17.75-3.15,1.09h-.01s-.09.03-.13.05c-.03.02-.07.03-.1.05h-.01l-1.23.58s-.02.01-.03.02l-20.64,9.69c-1.15.54-1.64,1.9-1.1,3.05.39.83,1.21,1.32,2.07,1.32.33,0,.66-.07.97-.22l17.6-8.26-6.16,25.89v.02c-7.87,3.65-14.42,8.44-19.45,14.28-12.22,14.2-22.28,28.92-22.38,29.07-.71,1.05-.44,2.47.6,3.18.4.27.84.4,1.29.4.73,0,1.45-.35,1.9-1,.1-.14,10.01-14.66,22.06-28.66,5.98-6.95,13.57-11.22,18.88-13.57,0,0,0,0,0,0,.03-.01.06-.03.08-.04.01-.01.02-.01.03-.02.33-.14.66-.27.98-.42,1.71-.72,3.29-1.29,4.64-1.75.11-.03.21-.06.32-.1.2-.07.39-.13.58-.19.38-.12.73-.23,1.06-.32.17-.05.33-.1.48-.14.33-.09.63-.17.9-.25.24-.06.47-.12.66-.17.2-.04.37-.08.5-.11.04-.01.08-.02.12-.03.03-.01.06-.02.09-.02.02,0,.03-.01.04-.02h.04s.05-.01.05-.01h.02c.48-.05.96-.1,1.44-.14.4-.04.81-.08,1.21-.11.61-.06,1.22-.12,1.83-.17,10.08-.91,34.19-2.87,58.34-3.4,9.63-.21,17.75-.16,24.59.09.29.01.57.02.85.03,2.02.09,3.96.2,5.81.32-.12.03-.24.05-.36.07-.26.05-.51.1-.76.15-.37.08-.72.16-1.05.23-.51.12-.99.24-1.43.36-.2.06-.39.11-.58.17-.23.07-.44.14-.64.2-.07.03-.14.05-.21.07-.13.05-.26.09-.38.14-.48.18-.88.36-1.19.54-3.6,2.1-4.9,8.14-4.58,13.19.02.39.06.78.11,1.16.05.57.14,1.13.25,1.66.07.38.15.75.24,1.1.14.52.29,1.02.47,1.5,1.04,2.82,2.76,4.85,5,5.81h.01c.59.25,1.34.45,2.22.61,1.47.27,3.31.41,5.38.41.9,0,1.85-.04,2.83-.09.57-.03,1.16-.07,1.75-.12.6-.05,1.2-.11,1.81-.18.32-.04.64-.08.97-.12.03,0,.06,0,.1-.01,1.53-.2,3.09-.47,4.65-.8.52-.12,1.05-.23,1.57-.35t.02-.01c.33-.08.66-.16.98-.25.98-.25,1.95-.53,2.91-.85.63-.21,1.25-.43,1.87-.66.61-.23,1.21-.48,1.8-.74.91-.39,1.8-.83,2.63-1.3.03-.01.05-.02.07-.04-.15.19-.31.38-.48.56-.15.19-.32.38-.5.56-.17.19-.35.37-.53.56-.18.18-.37.36-.56.55-.58.54-1.2,1.09-1.86,1.62-.41.34-.84.67-1.29,1-.03.01-.06.04-.09.06-.46.34-.93.68-1.43,1.01-.03.01-.05.02-.07.04-.77.51-1.59,1.02-2.44,1.53-.01,0-.02,0-.03.01-.58.34-1.17.68-1.79,1.01-.46.25-.93.5-1.41.75-.97.49-1.97.98-3.03,1.46-.52.24-1.06.48-1.61.72-1.32.57-2.7,1.14-4.15,1.69-1.92.74-3.97,1.47-6.13,2.18-16.57,5.47-40,10.12-70.91,14.11-.14.02-.27.05-.4.09-.1.03-.19.07-.28.11-.09.04-.19.09-.27.15-.11.07-.21.15-.3.24-.06.03-.12.09-.17.15l-11.14,12.46-.02.02s0,0,0,0l-18.41,15.13c-.98.8-1.12,2.25-.32,3.22.45.55,1.11.84,1.77.84.51,0,1.03-.17,1.45-.52l15.41-12.67,2.43,15.82-32.46,8.12c-1.23.31-1.97,1.55-1.67,2.78.26,1.04,1.19,1.74,2.22,1.74.18,0,.37-.02.56-.07l34.3-8.58h.02l.16-.02h.19c.62-.06,2.25-.2,4.69-.39.37-.03.77-.06,1.18-.09.61-.05,1.27-.1,1.97-.15.46-.04.94-.07,1.44-.11s1.01-.07,1.54-.11c.27-.02.53-.04.81-.06,1.08-.07,2.23-.15,3.44-.24,2.11-.14,4.38-.29,6.78-.44,1.37-.08,2.79-.16,4.24-.25,2.91-.16,5.97-.33,9.12-.48,1.58-.08,3.18-.15,4.8-.22,5.67-.24,11.57-.44,17.42-.54,5.61-.1,10.62-.11,15.08-.06,1.04.02,2.04.03,3.02.06,1.08.02,2.12.04,3.13.08.33.02.66.03.98.04-.13.03-.26.07-.38.11h-.01c-.12.03-.23.07-.34.1-.21.07-.42.14-.61.21-.24.09-.47.18-.66.26-.19.08-.37.16-.51.25-.37.21-.71.47-1.02.77-.16.14-.31.3-.46.46-2.13,2.41-2.9,6.66-2.67,10.32.15,2.47.73,4.6,1.67,6.28l1.66,2.16c.32.3.66.57,1.01.8.36.24.74.44,1.14.6.35.14.75.26,1.22.37.23.06.48.11.74.15.38.08.8.14,1.23.18.02.01.03.01.04,0,.29.03.59.06.9.08.32.02.64.04.98.06.51.03,1.03.04,1.58.04.28,0,.58-.02.86-.02.34-.01.68-.02,1.03-.03h.07c.58-.02,1.17-.06,1.78-.11.43-.03.87-.07,1.32-.12.51-.06,1.02-.12,1.54-.19.59-.07,1.19-.15,1.79-.26.36-.06.73-.13,1.09-.19.87-.16,1.75-.35,2.62-.56,1.05-.25,2.08-.54,3.09-.86.26-.08.51-.16.76-.25.5-.17.99-.35,1.47-.53,1.54-.59,2.99-1.28,4.29-2.07.53-.32,1.04-.66,1.52-1.01.04-.03.08-.06.12-.1-.06.13-.13.26-.2.39-.11.21-.23.42-.36.63-.12.19-.24.38-.38.57-.11.17-.23.33-.36.5-.12.16-.24.32-.37.48-3.99,4.92-12.14,9.3-24.43,13.6-.73.25-1.47.51-2.24.76-.43.14-.87.29-1.31.44-9.82,3.19-22.45,6.53-38.59,10.27-2.3.53-4.68,1.07-7.13,1.62-.84.18-1.69.37-2.55.57-1.37.3-2.76.6-4.18.91-.77.17-1.54.34-2.32.51-.83.17-1.66.35-2.5.54-.84.18-1.69.36-2.54.54-2.54.54-5.15,1.1-7.82,1.66,0,0-.02,0-.02,0l-1.22.31-1.27.33s0,0-.01,0c0,0,0,0,0,0l-2.83.75c-2.43.64-5.54,1.47-9.06,2.41-.08.02-.16.05-.24.08-11.36,3.06-26.86,7.4-36.66,10.76-1.2.41-1.83,1.71-1.42,2.91.33.95,1.22,1.55,2.17,1.55.25,0,.5-.04.74-.12,8.29-2.85,20.74-6.4,31.24-9.28-3.85,5.8-12.04,15.59-25.82,20.72-1.19.44-1.79,1.76-1.35,2.95.34.92,1.22,1.49,2.15,1.49.27,0,.54-.05.8-.14,19.43-7.23,28.49-22.67,30.6-26.76,3.09-.83,5.85-1.56,8.03-2.14l.43-.11h0s2.05,11.51,2.05,11.51c.01.07.03.13.05.2.01.05.03.09.05.13.07.22.18.42.31.6.04.05.07.11.11.15h0c.11.13.24.24.37.34.02.02.04.03.06.05.01.01.03.02.04.03.06.04.12.08.19.12.05.03.11.05.16.08.27.12.55.19.86.2.02,0,.04,0,.06,0h103.83c-2.5,4.89-7.6,14.61-13.74,24.99-6.14,10.37-13.34,21.4-20.04,28.9-16.23,18.19.15,190.46,3.15,220.47h-.24l.8,4.58h1.97c.65,0,1.26-.27,1.7-.75.43-.48.64-1.13.58-1.77-3.82-37.63-10.43-116.95-10.43-169.52,0-25.79,1.59-45.14,5.89-49.96,15.1-16.91,31.98-49.9,35.5-56.94h69.74c1.21,0,2.21-.94,2.28-2.16l14.95-250.11,5.35-89.48,10.57-.55c1.12-.05,2.03-.92,2.16-2.03.66-6-6.53-13.75-9.16-16.37ZM75.41,245.31c-.31.09-.63.19-.96.3-.33.11-.69.23-1.05.35-.13.05-.26.09-.4.14-.37.13-.75.27-1.15.41l3.17-13.32,2.07,11.64c-.48.13-1.05.29-1.68.48ZM53.5,7.36c4.09-.32,58.55-1.75,115.99-2.43,101.84-1.19,117.16,1.08,119.37,1.92,2.89,3.55,3.42,11.01,3.77,15.98.09,1.28.17,2.35.27,3.23l-241.77,2.6c-.23-10.26.8-19.8,2.37-21.3ZM45.15,35.99c.51-1.27,1.89-2.19,4.11-2.73h.02s0,0,0,0l245.44-2.64c1,.74,2.42,1.11,4.08,1.54,5.12,1.33,8.83,2.77,8.72,8.47,0,0,0,0,0,0l-261.31,1.31s0,0,0,0c-.88-1.66-1.76-4.17-1.06-5.95ZM61.22,158.82c-.17.09-.34.18-.51.26-5.09,2.63-10.29,5.82-15.14,9.07-.49.32-.98.65-1.46.99-7.92,5.39-14.78,10.8-18.63,13.94-6.33-52.19-14.73-132.8-11.68-139.14.59-1.17,1.81-1.82,3.4-1.82.18,0,.37.01.56.02,1.82.17,8.48,1.77,16.88,15.54h0c.09.24.23.46.39.66,4.9,8.21,10.36,20.56,15.78,39.15v.02s.01.05.02.07c0,.05.02.1.03.15l9.65,54.08s0,.02,0,.03v.04s.02.07.03.11l1.18,6.57c-.16.08-.33.17-.5.26ZM40.76,59.14h7.34l1.37,19.56c-2.94-7.94-5.87-14.37-8.71-19.56ZM75.89,154.67h-.04c-.24.05-.47.09-.7.14-.73.14-1.43.27-2.09.4-.05.01-.1.02-.15.03-.35.07-.69.13-1.02.2-.49.1-.97.19-1.41.28-.44.09-.86.18-1.24.26-.04.01-.09.01-.13.03-.31.07-.6.13-.87.18-.07.01-.13.03-.2.04-.11-.7-.22-1.4-.33-2.09,0,0,0,0,0-.01,2.73.18,5.46.36,8.18.54,0,0,0,0,0,0ZM140.12,178.38c-.39.18-.79.35-1.19.51-.2.09-.39.16-.58.23-.03.02-.07.03-.1.04-.35.14-.7.27-1.06.39-.43.15-.86.3-1.3.43-.97.3-1.95.56-2.93.8h-.01c-.99.23-1.97.43-2.95.6h-.01c-1.46.25-2.9.43-4.27.55-.92.08-1.8.13-2.64.15-.4.01-.79.02-1.17.02-.36,0-.72,0-1.06,0h-.11c-.29-.01-.56-.02-.83-.04-.19-.01-.37-.02-.55-.04-.54-.04-1.03-.1-1.48-.17-.12-.02-.23-.04-.35-.06-.33-.06-.64-.13-.91-.21-.13-.04-.26-.08-.37-.13-.12-.04-.23-.08-.32-.13-1.85-.9-3.22-4.29-3.49-8.64-.34-5.54,1.15-9.7,2.32-10.46.05-.03.11-.07.18-.1.06-.04.14-.08.22-.11.16-.08.34-.15.54-.23.32-.11.68-.23,1.08-.35.14-.04.28-.08.43-.12.73-.2,1.59-.4,2.54-.59.18-.04.37-.07.56-.11.4-.08.82-.15,1.25-.22.04-.01.07-.01.11-.02.24-.03.49-.08.74-.11.28-.04.57-.08.86-.12h.01c.42-.06.85-.11,1.28-.16.44-.05.89-.1,1.34-.14.45-.04.91-.08,1.37-.11h.01c.46-.04.93-.07,1.39-.09h.01c.47-.02.94-.04,1.42-.05,2.78-.07,5.63.06,8.26.48.54.09,1.08.19,1.6.31.53.11,1.04.25,1.53.39,1,.29,1.94.64,2.8,1.06.22.1.42.21.62.32.19.1.37.21.54.32.21.13.42.26.61.41.04.03.08.06.12.09.1.07.19.14.28.22.19.16.37.32.54.49.15.15.28.3.41.46.12.14.22.27.32.41.1.14.19.29.28.44.02.03.03.06.05.09.04.06.07.12.1.19.04.08.08.17.12.26.04.08.08.16.11.25.11.27.2.56.26.85.07.29.11.59.14.9h.01c.31,3.38-1.29,6.24-4.9,8.74-.3.21-.61.41-.93.6,0,.01-.02.01-.03.02-.18.11-.36.22-.54.32-.01,0-.01.01-.02.01-.3.19-.62.36-.94.52-.43.23-.87.45-1.32.65ZM200.3,262.08c-8.12,5.96-25.51,7.13-29.42,5.48-1.8-.77-3.07-3.56-3.3-7.3-.24-3.81.73-7.27,1.87-8.55.03-.04.07-.09.11-.12.04-.04.07-.07.11-.1.07-.06.15-.12.22-.16.27-.15.68-.32,1.22-.49.22-.07.46-.14.71-.21h.01c.26-.07.53-.14.82-.21.29-.07.6-.14.92-.21h.01c3.27-.69,8.14-1.32,13.06-1.37,2.95-.03,5.92.15,8.58.64.66.12,1.3.26,1.91.43.47.12.92.25,1.35.4.73.25,1.42.54,2.05.86,2.13,1.1,3.25,2.51,3.43,4.3.23,2.47-.96,4.63-3.66,6.61ZM201.07,346.08c-6.81,5.03-22.12,6.13-25.45,4.76-.09-.04-.17-.08-.25-.13-.17-.1-.34-.23-.5-.38-.08-.07-.16-.15-.23-.24-.12-.13-.22-.27-.33-.42h0c-.11-.16-.21-.33-.3-.5-.07-.13-.14-.27-.2-.42-.07-.15-.13-.3-.18-.45-.06-.16-.12-.33-.17-.5-.05-.17-.1-.34-.14-.51-.03-.11-.06-.22-.08-.33-.03-.13-.06-.27-.08-.41-.04-.2-.07-.41-.1-.63-.05-.31-.08-.64-.1-.97-.23-3.72.92-6.74,1.85-7.27.22-.13.58-.26,1.05-.41.16-.05.34-.1.53-.15.14-.03.28-.07.43-.11.16-.04.34-.08.52-.12.14-.03.27-.06.42-.1.05-.01.1-.02.16-.03.05,0,.1-.01.15-.02.26-.06.53-.11.81-.16.62-.11,1.28-.22,1.99-.32.33-.05.67-.09,1.02-.14.02,0,.04,0,.07-.01.32-.04.65-.08.99-.11.05-.01.1-.01.15-.02.68-.07,1.37-.13,2.09-.19.38-.03.77-.06,1.16-.08.26-.02.53-.02.79-.03-.66.03-1.31.06-1.95.11.69-.05,1.4-.08,2.12-.12.09,0,.19,0,.28-.01.25-.01.49-.02.74-.03.51-.01,1.03-.02,1.54-.02.41,0,.83,0,1.24,0,.74.02,1.48.05,2.2.1.12,0,.25.02.37.03.04,0,.07,0,.1,0,.81.07,1.61.15,2.37.27-.75-.12-1.53-.2-2.32-.27.23.02.46.03.69.06.55.05,1.1.13,1.63.21.44.07.87.15,1.29.24,1.45.3,2.76.72,3.85,1.29,2.23,1.16,2.6,2.45,2.68,3.32.18,1.91-.77,3.6-2.9,5.19ZM191.2,335.63c.09,0,.18,0,.27,0,.06,0,.12,0,.19.01.54.02,1.08.05,1.61.08-.68-.05-1.37-.08-2.07-.09ZM291.14,273.96l-7.42,124.22h-68.85s-.1-.01-.15-.01h-105.26v-10.44c19.27-4.05,34.96-7.65,47.7-11,.52-.14,1.03-.27,1.54-.41,1.53-.4,3.01-.8,4.45-1.21.72-.2,1.43-.4,2.13-.6.7-.2,1.39-.4,2.07-.59,1.36-.4,2.67-.79,3.95-1.18,3.19-.98,6.13-1.94,8.84-2.9,1.22-.43,2.39-.86,3.52-1.29.75-.29,1.48-.57,2.19-.85.36-.15.71-.29,1.06-.43.69-.28,1.37-.57,2.02-.85.43-.19.86-.38,1.28-.57h0c1.12-.51,2.17-1.02,3.18-1.52,1-.51,1.96-1.03,2.85-1.53.45-.26.88-.52,1.3-.77.84-.52,1.63-1.03,2.37-1.55h.01c.37-.27.73-.53,1.07-.79,1.16-.88,2.19-1.77,3.09-2.67.37-.37.71-.73,1.04-1.1.81-.92,1.51-1.86,2.11-2.82,2.82-4.54,3.38-9.59,1.76-15.89-.04-.14-.08-.27-.12-.41-.05-.14-.1-.28-.16-.41-.12-.28-.26-.56-.44-.83-.08-.11-.15-.22-.23-.33-.44-.58-1.04-1.15-1.87-1.71-.19-.13-.4-.26-.62-.39-.23-.13-.46-.26-.71-.39-.13-.06-.26-.13-.39-.19-.26-.12-.54-.24-.83-.37h-.01c-.29-.12-.6-.24-.92-.36-.33-.13-.67-.24-1.03-.36h-.01c-.54-.18-1.11-.35-1.73-.51h-.01c-.57-.15-1.17-.3-1.81-.44-.48-.11-.98-.21-1.5-.31-.52-.1-1.06-.2-1.63-.3-.84-.15-1.74-.29-2.69-.42-.32-.04-.64-.09-.97-.13-.33-.04-.66-.08-1-.12-.37-.05-.75-.09-1.14-.13-.77-.09-1.57-.17-2.41-.24-.52-.05-1.05-.1-1.6-.14-1.64-.14-3.39-.25-5.26-.35-.01-.01-.02-.01-.04,0-6.3-.34-13.95-.48-23.25-.37-.83.01-1.68.02-2.54.04-.44,0-.88.01-1.33.02-2.27.04-4.55.1-6.83.16-1.32.04-2.64.08-3.96.13-1.69.05-3.37.12-5.03.19-1.31.05-2.61.11-3.89.17-5.8.25-11.32.56-16.27.87-.44.02-.87.05-1.3.08-1.85.11-3.61.23-5.26.34-.5.03-1,.07-1.48.1-.08,0-.16.01-.24.02-.48.03-.95.06-1.41.1-1.56.11-3.01.21-4.31.31-.31.02-.62.04-.91.07-.26.02-.5.04-.74.05-.33.03-.65.05-.96.08-1.21.09-2.24.17-3.06.24l-3.22-18.09s0-.02,0-.03l-.08-.56h0s9.98-11.15,9.98-11.15c8.4-1.09,16.25-2.23,23.57-3.44,1.83-.3,3.63-.61,5.4-.91.58-.11,1.17-.21,1.75-.31,1.33-.24,2.64-.47,3.93-.71,1.09-.21,2.16-.41,3.22-.61,1.59-.31,3.14-.62,4.67-.93,1.02-.21,2.03-.42,3.02-.63.99-.22,1.97-.43,2.94-.64.96-.22,1.91-.43,2.85-.65,1.88-.44,3.7-.88,5.48-1.33,1.77-.44,3.49-.9,5.16-1.36.42-.12.83-.23,1.24-.35,1.23-.35,2.43-.7,3.6-1.05,1.57-.47,3.08-.95,4.54-1.44.55-.18,1.09-.37,1.62-.55,1.6-.55,3.13-1.11,4.6-1.68h0c.49-.19.97-.39,1.45-.58.36-.15.71-.29,1.06-.43.69-.28,1.37-.57,2.03-.87.34-.15.67-.29.99-.44h.01c.86-.4,1.7-.8,2.51-1.2.27-.13.54-.27.8-.4.34-.17.68-.35,1.01-.53h0s0,0,0,0c34.06-.05,67.64-2.12,99.89-6.15h0ZM298.36,153.24l-6.94,116.06c-29.99,3.78-61.16,5.83-92.8,6.15.53-.4,1.03-.81,1.52-1.21h.01c.52-.45,1.01-.88,1.48-1.32,6.28-5.91,8.54-12.69,6.89-20.51-1.21-5.74-9.35-13.23-65.68-12-7.51.16-15.02.46-22.1.83-1.17.06-2.33.12-3.48.19-1.14.06-2.28.13-3.4.2-2.25.13-4.44.26-6.55.41-1.77.11-3.47.23-5.11.35-1.09.07-2.16.15-3.2.23-.7.05-1.39.1-2.06.15-.43.03-.85.07-1.26.1-.87.07-1.72.13-2.53.2-.27.02-.54.05-.81.07-.65.04-1.29.1-1.9.15-.84.07-1.65.13-2.41.2-.03,0-.06.01-.1.01-.47.04-.92.08-1.36.12-.6.05-1.17.11-1.71.15-.09,0-.18.01-.26.02-1,.09-1.87.17-2.61.24h-.05c-.05.01-.1.01-.15.02-.05,0-.1.01-.15.01l-3.03-23.8c3.18-1.13,10.31-3.73,18.96-7.38,1.49-.63,3.03-1.3,4.6-1.99,1.05-.46,2.12-.94,3.19-1.42.83-.38,1.67-.76,2.52-1.16.85-.39,1.7-.79,2.55-1.2.45-.21.88-.42,1.33-.63.06-.03.12-.06.19-.09,1.25-.61,2.49-1.23,3.74-1.86.11-.05.23-.11.34-.17.28-.13.56-.27.84-.41.87-.44,1.72-.88,2.55-1.33.84-.44,1.66-.88,2.47-1.32.8-.44,1.6-.88,2.37-1.31.78-.44,1.54-.87,2.29-1.31,1.79-1.05,3.5-2.08,5.13-3.12.62-.4,1.23-.79,1.82-1.18.9-.59,1.76-1.18,2.6-1.76.84-.58,1.64-1.16,2.43-1.75.52-.39,1.03-.78,1.52-1.16.25-.19.5-.39.74-.58.73-.58,1.43-1.16,2.1-1.73,1.34-1.15,2.57-2.29,3.69-3.43,6.39-6.47,9.15-12.69,8.24-18.62-.4-2.59-1.45-4.86-3.14-6.82-.07-.08-.14-.16-.21-.23,17.71.55,34.25.82,49.6.82,41.17,0,73.75-1.97,97.28-5.89h0ZM298.64,148.54c-32.76,5.59-86.03,7.3-154.34,4.94,0,0,0,0-.01,0h-.02c-9.46-3.96-25.23-4.67-46.88-2.11-9.96-.55-20.19-1.18-30.44-1.88,0,0,0,0,0,0-3.35-20.01-7.26-37.77-11.62-52.81l-2.64-37.52,251.18,1.95-5.23,87.43ZM306.31,56.54h-.14s0,0-.01,0l-255.9-1.99s-.1,0-.14,0h-10.6c.66-2.62,2.24-6.55,5.87-8.03h.02s0,0,0,0l263.3-1.32c3.03,2.99,6.66,7.53,7.67,10.8l-10.07.53Z"/>
  </g>
</svg>