<?xml version="1.0" encoding="UTF-8"?>
<svg id="Camada_2" data-name="Camada 2" xmlns="http://www.w3.org/2000/svg" viewBox="0 0 500 500">
  <defs>
    <style>
      .cls-1 {
        fill: #a78b6c;
        stroke-width: 0px;
      }
    </style>
  </defs>
  <g id="Selo_Belga" data-name="Selo Belga">
    <path id="_2_-_Selo_Belga" data-name="2 - Selo Belga" class="cls-1" d="M68.62,286.87l-4.28,1.15,4.26,15.87-10.08,2.7-3.92-14.6-4.26,1.14,3.92,14.6-10.04,2.69-4.2-15.68-4.28,1.15,5.54,20.65,32.93-8.83-5.59-20.84ZM39.07,209.62c1.19,1.37,2.74,2.27,4.66,2.71,2.31.53,4.35.18,6.12-1.04,1.76-1.23,3.31-3.09,4.65-5.58l1.98-3.68c.59-1.11,1.2-2.1,1.82-2.95.63-.85,1.32-1.48,2.08-1.9.75-.41,1.63-.5,2.61-.28,1.08.25,1.95.78,2.61,1.61s1.09,1.84,1.28,3.05c.19,1.21.13,2.52-.2,3.94-.3,1.29-.76,2.42-1.39,3.41-.63.99-1.42,1.73-2.38,2.24-.95.5-2.04.67-3.26.49l-1.16,5.03c2.03.35,3.89.18,5.58-.51,1.69-.69,3.14-1.86,4.35-3.49,1.21-1.63,2.1-3.7,2.67-6.18.6-2.6.69-4.91.27-6.94-.43-2.03-1.25-3.7-2.49-5s-2.8-2.17-4.68-2.61c-1.49-.34-2.84-.34-4.05,0-1.21.34-2.28.91-3.23,1.69-.94.79-1.76,1.68-2.46,2.7-.7,1.01-1.3,2.02-1.81,3.02l-1.59,3.05c-.31.61-.68,1.24-1.09,1.88-.41.65-.89,1.23-1.41,1.75-.53.52-1.12.9-1.77,1.15-.66.24-1.38.27-2.17.09-.94-.22-1.72-.68-2.34-1.4-.61-.72-1.02-1.62-1.22-2.71-.2-1.09-.14-2.32.17-3.68.44-1.9,1.23-3.39,2.36-4.44,1.14-1.06,2.49-1.5,4.07-1.32l1.11-4.83c-1.79-.37-3.49-.21-5.1.47-1.61.68-3.01,1.79-4.19,3.33-1.19,1.54-2.04,3.44-2.56,5.69-.52,2.23-.58,4.32-.19,6.28.39,1.96,1.17,3.62,2.36,4.98ZM376.45,115.96c2.01,1.88,4.18,3.14,6.52,3.77,2.34.63,4.67.6,7-.11,2.32-.7,4.47-2.1,6.43-4.18l2.65-2.83-9.77-9.18-2.91,3.09,6.13,5.76c-1.23,1.26-2.57,2.14-4,2.6-1.5.49-3.01.53-4.54.14-1.52-.4-2.96-1.23-4.31-2.5-1.46-1.37-2.42-2.95-2.88-4.74-.47-1.79-.37-3.69.28-5.7.65-2.01,1.93-4.02,3.82-6.03,1.88-2.01,3.8-3.4,5.76-4.17,1.96-.78,3.83-.99,5.63-.66,1.8.34,3.4,1.16,4.8,2.48.83.78,1.49,1.6,1.97,2.47.49.87.81,1.76.96,2.69s.15,1.87-.01,2.82c-.16.95-.47,1.91-.92,2.87l3.85,3.61c.93-1.41,1.56-2.9,1.9-4.46.34-1.56.4-3.13.17-4.72-.22-1.58-.73-3.12-1.52-4.61-.79-1.48-1.85-2.86-3.19-4.12-1.61-1.51-3.37-2.61-5.28-3.3-1.9-.69-3.88-.95-5.91-.78-2.04.17-4.07.78-6.1,1.84-2.03,1.06-3.98,2.58-5.84,4.56-2.46,2.62-4.12,5.33-4.96,8.13-.85,2.8-.9,5.5-.18,8.13.72,2.63,2.21,5,4.46,7.11ZM93.99,150.39l-3.87-2.15-7.98,14.36-9.13-5.07,7.35-13.22-3.86-2.14-7.34,13.21-9.08-5.04,7.88-14.19-3.87-2.15-10.38,18.69,29.81,16.56,10.48-18.86ZM124.92,113.61l-3.18-3.08-10.75,11.1-21.31-20.65-3.58,3.7,24.49,23.73,14.33-14.79ZM86.42,340.36c-2.43-1.39-5.08-1.98-7.93-1.77-2.85.2-5.8,1.22-8.85,3.05-3.04,1.82-5.31,3.93-6.82,6.34-1.52,2.41-2.24,4.99-2.17,7.74s.96,5.57,2.68,8.43l5.86,9.76,29.24-17.55-5.68-9.46c-1.78-2.97-3.89-5.15-6.32-6.54ZM70.4,367.19l-3.05-5.08c-1.28-2.13-1.94-4.16-1.97-6.1-.04-1.93.53-3.75,1.69-5.43,1.16-1.69,2.89-3.22,5.18-4.6,2.31-1.39,4.49-2.2,6.53-2.43,2.04-.23,3.93.14,5.66,1.11,1.73.97,3.26,2.57,4.59,4.79l2.89,4.81-21.52,12.92ZM135.03,83.5c1.83,3.13,3.98,5.5,6.45,7.09,2.47,1.59,5.06,2.41,7.77,2.45,2.71.05,5.34-.68,7.89-2.17,2.54-1.48,4.46-3.41,5.74-5.79,1.29-2.38,1.85-5.03,1.68-7.96-.16-2.93-1.17-5.97-3-9.11-1.83-3.14-3.99-5.51-6.46-7.09-2.47-1.59-5.05-2.4-7.76-2.45-2.7-.04-5.33.67-7.87,2.16-2.55,1.49-4.47,3.42-5.76,5.8-1.29,2.38-1.85,5.03-1.69,7.96.17,2.93,1.17,5.97,3.01,9.11ZM138.04,68.61c.83-1.63,2.1-2.94,3.8-3.93,1.69-.99,3.45-1.44,5.28-1.37,1.83.07,3.61.7,5.34,1.89s3.3,2.99,4.7,5.38c1.4,2.4,2.19,4.64,2.38,6.74.19,2.09-.14,3.96-.98,5.58-.84,1.63-2.11,2.94-3.79,3.92-1.7.99-3.46,1.45-5.29,1.38-1.83-.07-3.61-.7-5.34-1.9-1.73-1.19-3.29-2.99-4.69-5.38-1.4-2.4-2.19-4.64-2.38-6.74-.19-2.09.13-3.95.97-5.58ZM302.3,67.9l-16.03-3.6,2.29-10.19,14.75,3.32.97-4.3-14.75-3.32,2.28-10.13,15.84,3.56.97-4.32-20.86-4.69-7.47,33.27,21.05,4.73.97-4.32ZM242.06,65.41c2.64-.13,4.79-.64,6.44-1.54,1.66-.89,2.85-2.04,3.6-3.46.75-1.42,1.07-3,.98-4.75-.09-1.76-.52-3.24-1.29-4.44-.77-1.19-1.71-2.1-2.83-2.71-1.11-.62-2.24-.92-3.37-.92l-.02-.33c1.03-.32,1.96-.79,2.8-1.42.84-.62,1.5-1.44,1.97-2.43.47-1,.67-2.2.6-3.63-.09-1.68-.56-3.18-1.41-4.49-.86-1.31-2.1-2.32-3.72-3.03-1.63-.71-3.65-1.01-6.06-.89l-12.47.63,1.72,34.06,13.05-.66ZM247.01,52.75c.58.87.91,1.84.96,2.92.07,1.43-.4,2.65-1.42,3.65-1.02,1.01-2.76,1.57-5.21,1.7l-7.42.37-.55-10.91,7.6-.38c1.37-.07,2.58.13,3.61.62,1.03.48,1.84,1.16,2.43,2.03ZM239.66,35.77c2.04-.11,3.58.3,4.61,1.2,1.03.9,1.59,2.06,1.66,3.47.06,1.1-.17,2.06-.68,2.89-.51.83-1.21,1.49-2.12,1.98-.9.49-1.93.76-3.08.82l-6.88.35-.53-10.36,7.02-.35ZM347.52,87.5l-13.7-7.15,13.72-26.3-4.56-2.38-15.78,30.23,18.26,9.53,2.05-3.93ZM437.38,136.99l-35.63,6.62,2.76,4.72,9.37-1.86,6.72,11.5-6.22,7.25,2.76,4.72,23.24-27.8-3-5.13ZM423.59,154.49l-5.21-8.91,15.1-3,.13.23-10.02,11.68ZM427.41,302.66l4.32.99,3.69-16.01,10.17,2.34-3.39,14.73,4.3.99,3.39-14.73,10.12,2.33-3.64,15.82,4.31.99,4.79-20.83-33.23-7.65-4.84,21.03ZM414.27,368.23c-2.78-2.34-5.59-3.84-8.45-4.52-2.86-.67-5.58-.57-8.14.29-2.57.86-4.8,2.42-6.71,4.68-1.42,1.69-2.43,3.49-3.02,5.42l-4.76-.22-3.39,4.02,7.54.35c0,1.95.42,3.91,1.24,5.88,1.14,2.7,3.1,5.23,5.88,7.58,2.78,2.35,5.6,3.85,8.46,4.52,2.86.67,5.57.57,8.14-.29,2.57-.86,4.8-2.42,6.69-4.67,1.9-2.25,3.06-4.72,3.49-7.4.41-2.67.05-5.36-1.08-8.07-1.14-2.7-3.1-5.23-5.88-7.58ZM416.43,383.27c-.24,1.81-1,3.47-2.27,4.97-1.26,1.49-2.77,2.52-4.51,3.07-1.75.55-3.64.55-5.67,0-2.03-.54-4.11-1.71-6.23-3.5-2.12-1.79-3.63-3.64-4.5-5.55-.6-1.31-.92-2.59-1-3.86l5.38.25,3.26-3.87-7.96-.39c.39-.95.92-1.84,1.63-2.69,1.27-1.5,2.77-2.53,4.52-3.07,1.74-.55,3.63-.55,5.66,0,2.03.55,4.11,1.71,6.23,3.5,2.12,1.79,3.62,3.64,4.5,5.55.88,1.91,1.2,3.77.95,5.58ZM362.65,403.51c-1.94-.94-4.04-1.3-6.32-1.09-2.28.22-4.56,1.06-6.85,2.53-2.3,1.47-4.02,3.2-5.16,5.18-1.14,1.98-1.69,4.05-1.64,6.2.05,2.15.72,4.23,2,6.24l12.11,18.87,4.34-2.79-11.88-18.52c-.83-1.3-1.29-2.63-1.37-4-.08-1.37.22-2.69.91-3.94.69-1.26,1.77-2.35,3.23-3.29,1.45-.93,2.88-1.45,4.31-1.55s2.75.17,3.97.81c1.23.64,2.25,1.61,3.08,2.91l11.89,18.53,4.33-2.78-12.11-18.87c-1.29-2.01-2.9-3.49-4.83-4.43ZM250,0C112.15,0,0,112.15,0,250s112.15,250,250,250,250-112.15,250-250S387.85,0,250,0ZM250,494.48c-134.81,0-244.48-109.68-244.48-244.48S115.19,5.52,250,5.52s244.48,109.68,244.48,244.48-109.67,244.48-244.48,244.48ZM468.47,236.99l-.58-11.37-34.05,1.74.56,11.02c.18,3.46,1.01,6.37,2.51,8.74,1.49,2.37,3.55,4.13,6.16,5.29,2.62,1.16,5.7,1.65,9.25,1.47,3.54-.18,6.54-.97,9.01-2.39,2.47-1.41,4.32-3.34,5.56-5.81,1.23-2.46,1.77-5.36,1.59-8.7ZM462.84,243.22c-.88,1.72-2.23,3.06-4.05,4-1.82.94-4.06,1.48-6.73,1.62-2.7.14-5-.17-6.91-.93-1.91-.76-3.4-1.97-4.47-3.64-1.07-1.67-1.67-3.8-1.8-6.39l-.29-5.6,25.08-1.28.3,5.92c.13,2.48-.25,4.59-1.13,6.31ZM343.22,201.65c.32,2.19.54,4.19.92,6.17.47,2.43.86,4.92,1.68,7.24,1.05,2.94,3.33,3.55,5.94,1.88.82-.52,1.55-1.18,2.36-1.73,4.82-3.31,9.61-6.68,14.5-9.89,3.71-2.43,7.6-4.58,11.33-6.98,3.44-2.22,3.45-3.2.4-6.03-2.01-1.87-4.15-3.61-6.07-5.57-9.81-10.03-18.04-21.15-29.05-29.9-5.45-4.32-13.02-3.92-19.42-1.2-7.29,3.1-14.69,6.04-22.39,7.99-4.19,1.06-6.71,1.17-10.95.23-4.16-.92-8.33-1.95-12.61-2.05-10.53-.23-20.52,5.16-31.05,5.26-16.8.16-31.47-10.97-48.1-2.58-.85.43-1.77.75-2.81,1.18-.76-1.02-9.56-11.86-13.54-16.13-2.91-3.13-6.37-3.94-10.61-1.96-14.31,6.7-29.2,12.35-42.93,20.21-.62.35-1.25.73-1.69,1.29-.87,1.13-.76,2.73-.36,4.1,1.34,4.65,2.43,9.45,2.91,14.29.58,5.89.32,11.86.47,17.8.06,2.3.11,4.62.38,6.9.25,2.05,1.16,2.41,2.88,1.16,1.21-.88,2.39-1.89,3.32-3.05,3.87-4.86,7.64-9.79,11.44-14.7.63-.81,1.24-1.64,1.95-2.59,2.71,3.14,8.21,20.8,9.44,26.17.15.67.18,1.42.05,2.09-2.06,11.06-1.53,22.07.4,33.09,1.13,6.45,4,12.26,6.32,18.3,5.13,13.33,9.72,26.87,14.54,40.32,1.55,4.33,3.37,8.58,5.74,12.53,2.42,4.03,5.24,6.94,9.3,9.34,6.1,3.61,12.95,6.24,20.08,6.54,3.32,3.55,7.14,6.43,11.43,8.49,6.02,2.89,11.86,3.72,16.7,3.72s8.39-.77,10.45-1.19c10.27-2.12,18.71-7.8,23.17-11.74l-.05-.04c7.71-.13,13.98-3.37,18.97-9.39,3.54-4.29,5.96-9.22,8.23-14.25,2.55-5.66,5.18-11.3,7.79-16.94,3.61-7.8,7.63-15.42,10.62-23.48,2.84-7.67,4.92-15.63,6.03-23.74,1.58-11.54,1.12-23.3-1.3-34.7-.15-.71-.16-1.67.21-2.23,1.97-3.05,9.99-13.11,13.03-14.18ZM164.22,209.82c-.19.02-.38.05-.56.07-1.9-4.84-8.18-19.44-7.94-21.74.23-2.2,9.46-15.88,12.49-20.56,1.43-2.22,3.26-4.19,5.03-6.17.8-.89,1.89-1.51,3.14-2.49.27.96.52,1.5.56,2.06.31,5.48.6,10.97.83,16.46.03.74-9.63,20.81-12.89,30.66-.19.58-.43,1.14-.65,1.71ZM255.48,347.25c-3.72.77-13.6,2.8-23.86-2.12-2.43-1.16-4.67-2.65-6.75-4.38,5.52-1.11,10.74-3.47,16.31-4.74,7.05-1.61,13.94-.09,20.71,1.94,3.27.98,6.59,1.64,9.94,2.08-3.99,2.87-9.47,5.81-16.35,7.23ZM326.2,259.21c-3.09,19.04-13.96,35.54-21.8,52.81-.39.87-.79,1.73-1.18,2.6-1.31,2.9-2.77,5.76-4.42,8.49-4.29,7.11-10.72,10.93-18.95,11.71-6.38.61-12.78,1.05-18.86-1.71-4.6-2.08-7.78-4.61-10.44-8.62.98-.73,2.01-1.39,3.08-1.95,3.14-1.63,6.55-2.85,9.28-5.09,2.73-2.24,4.71-5.92,3.66-9.3-1.48,1.49-3.17,2.76-5.01,3.79-1.8,1-4.01,1.75-5.88.89-1.65-.76-2.55-2.58-2.92-4.36-.32-1.53-.33-3.16.24-4.62.56-1.46,1.76-2.72,3.27-3.11.73-.19,1.54-.17,2.17.24.63.41.99,1.26.69,1.95-.17.38-.5.66-.72,1.01-.64,1-.24,2.43.68,3.19.92.75,2.2.92,3.38.76,3.59-.52,6.31-4.03,6.5-7.64.19-3.62-1.82-7.13-4.68-9.35-2.86-2.22-6.48-3.28-10.08-3.68-2.57-.28-5.12-.54-7.69-.56-2.56-.02-5.14.29-7.69.56-3.6.39-7.22,1.46-10.08,3.68-2.86,2.22-4.87,5.73-4.68,9.35.19,3.62,2.91,7.13,6.5,7.64,1.18.17,2.46,0,3.38-.76.92-.75,1.32-2.19.68-3.19-.22-.35-.55-.63-.72-1.01-.3-.69.06-1.54.69-1.95.63-.41,1.45-.43,2.17-.24,1.51.4,2.71,1.65,3.27,3.11.56,1.46.55,3.09.24,4.62-.37,1.78-1.27,3.6-2.92,4.36-1.87.86-4.08.11-5.88-.89-1.83-1.02-3.53-2.3-5.01-3.79-1.04,3.38.93,7.06,3.66,9.3,2.73,2.24,6.14,3.46,9.28,5.09,1.06.55,2.08,1.21,3.05,1.93-1.01,2.11-2.54,3.91-4.32,5.5-4.2,3.77-9.28,5.5-14.81,5.94-6.98.56-13.85.11-20.24-3.18-7.17-3.7-11.53-9.88-14.5-17.09-1.82-4.42-3.3-8.99-4.7-13.56-3.07-10.03-7.75-19.44-11.61-29.17-4.06-10.24-6.22-20.41-6.87-31.41-.69-11.67-.25-24.18,4.98-34.88,4.12-8.44,8.7-16.66,13.19-24.92.85-1.57,1.19-2.96.86-4.76-1.05-5.67-1.95-11.36-2.8-17.06-.85-5.7-3.53-6.93-8-3.22-2.56,2.13-5.02,4.62-6.82,7.4-4.25,6.53-28.91,39.77-30.12,40.63-.11-1.61-.98-21.35-2.96-29.93-.46-2.01-.03-3.21,1.58-4.53,6.68-5.46,14.14-9.42,22.24-12.28,5.94-2.09,11.9-4.13,17.81-6.31,2.39-.88,4.23-.54,5.9,1.44,4.37,5.2,9.15,11.96,14.55,16.12,3.58,2.76,7.96-.19,11.29-1.73,5.23-2.42,10.73-2.31,16.33-1.01,3.71.86,7.44,1.74,11.07,2.9,8.66,2.77,17.22,2.78,25.89,0,3.71-1.18,7.55-2.01,11.39-2.68,7.5-1.32,14.83-.33,22.05,1.97,1.52.49,3.34.63,4.89.32,9.43-1.89,18.52-4.91,27.24-8.99,1.85-.86,3.74-1.65,5.66-2.33,3.8-1.34,7.37-.86,10.49,1.8,3.38,2.87,6.82,5.69,10.01,8.77,8.23,7.96,16.33,16.04,24.47,24.09.62.61,1.17,1.29,2.17,2.4-1.87,1.43-3.38,2.79-5.08,3.84-2.34,1.44-4.77,2.74-7.26,3.91-5.16,2.43-10.08,5.21-14.42,8.96-.65.56-1.4,1-2.56,1.81-.46-2.52-.96-4.57-1.2-6.65-1.45-13-5.03-25.39-10.67-37.18-.76-1.59-1.76-3.09-2.84-4.48-1.52-1.96-3.21-2.5-5.4-1.41-2.28,1.13-4.58,2.45-6.44,4.15-3.47,3.15-6.6,6.69-9.95,9.98-1.32,1.29-1.2,2.43-.5,4,4.83,10.87,9.6,21.83,12.34,33.42,3.42,14.46,3.78,29.51,1.41,44.16ZM327.83,208.39c-.33-1.2-.57-2.04-.8-2.88-2.26-8.22-4.63-16.4-8.54-24.05-.3-.59-.18-1.83.25-2.31,3.27-3.62,6.58-7.2,10.05-10.64,1.79-1.77,2.54-1.63,3.7.45,4.86,8.67,7.6,18.1,10.02,28.02-5.11,4.13-9.56,7.64-14.68,11.4ZM161.45,414.63c-2.8.15-5.34,1.09-7.62,2.81-2.28,1.72-4.21,4.18-5.77,7.37-1.56,3.18-2.33,6.19-2.29,9.03.03,2.84.82,5.4,2.38,7.68,1.55,2.28,3.83,4.15,6.83,5.62l10.22,5.02,15.03-30.61-9.91-4.86c-3.11-1.53-6.07-2.21-8.86-2.06ZM162.56,445.85l-5.32-2.61c-2.23-1.1-3.89-2.45-4.97-4.05-1.08-1.61-1.59-3.43-1.53-5.48.06-2.05.68-4.27,1.86-6.67,1.19-2.42,2.58-4.28,4.17-5.58,1.59-1.3,3.38-2.01,5.35-2.14,1.98-.12,4.13.39,6.46,1.53l5.03,2.47-11.06,22.54ZM200.45,463.13l5.02,1.11,7.35-33.3-5.03-1.11-7.34,33.3ZM124.33,397.64l-9.83-8.99,3.79-8.76-4.03-3.68-13.95,33.45,4.39,4.01,32.06-16.89-4.03-3.68-8.39,4.55ZM106.77,407.17l-.2-.18,6.11-14.13,7.62,6.97-13.53,7.34ZM239.98,434.81l.02,4.43,15.45-.08.15,29.67,5.15-.02-.18-34.1-20.59.11ZM202.9,231.58c-7.77-.5-11.05,9.54-9.46,15.78.19.76.48,1.52.86,2.28,2.88,5.79,10.6,10.85,14.98,3.8,3.52-5.67,3.56-11.64.22-17.39-1.39-2.41-3.76-4.28-6.61-4.47ZM206.83,246.66c-1.64.34-2.42-.76-2.87-2.08-.64-1.87.26-4.29,1.7-4.78,1.26-.43,2.55.51,3.01,2.2.56,2.03-.32,4.35-1.85,4.66ZM282.75,238.46c-2.42,3.87-2.94,9.04-1.45,13.43.67,1.99,1.76,3.82,3.27,5.29,4.32,4.23,9.27,1.3,11.82-3.2,2.02-3.57,2.28-7.36.93-11.22-2.34-6.69-9.69-12.1-14.56-4.3ZM293.4,246.66c-1.64.34-2.42-.76-2.87-2.08-.64-1.87.26-4.29,1.7-4.78,1.26-.43,2.55.51,3.01,2.2.56,2.03-.32,4.35-1.85,4.66ZM309.59,434.48l-12.81,3.67-5.48-7.82-5.25,1.51,21.19,29.4,5.71-1.64,2.41-36.16-5.25,1.5-.52,9.53ZM308.51,454.43l-.26.07-8.84-12.6,9.93-2.85-.83,15.38Z"/>
  </g>
</svg>