<?xml version="1.0" encoding="UTF-8"?>
<svg id="Camada_2" data-name="Camada 2" xmlns="http://www.w3.org/2000/svg" viewBox="0 0 500 454.47">
  <defs>
    <style>
      .cls-1 {
        fill: #a78b6c;
        stroke-width: 0px;
      }
    </style>
  </defs>
  <g id="Patinha_Belga" data-name="Patinha Belga">
    <path id="_2_-_Patinha_Belga" data-name="2 - Patinha Belga" class="cls-1" d="M323.13,174.27c37.05,0,67.19-39.09,67.19-87.13S360.17,0,323.13,0s-67.19,39.09-67.19,87.14,30.14,87.13,67.19,87.13ZM323.13,24.69c23.03,0,42.5,28.6,42.5,62.44s-19.46,62.44-42.5,62.44-42.5-28.59-42.5-62.44,19.46-62.44,42.5-62.44ZM252.7,160.22c-1.39-.04-4-.04-5.39,0-48.6.05-100.22,40-125.57,97.18-33.64,75.92-17.93,160.22,35.02,187.93,11.71,6.13,24.43,9.15,37.56,9.15,18.29,0,37.39-5.87,55.68-17.42,31.53,19.84,65.26,22.89,93.23,8.27,52.96-27.71,68.66-112.01,35.02-187.93-25.34-57.18-76.97-97.13-125.57-97.18ZM331.79,423.44c-20.92,10.95-47.24,7.43-72.4-9.76-2-1.32-5.03-3.31-9.39-3.31s-7.38,1.99-9.57,3.43c-24.98,17.07-51.3,20.6-72.22,9.63-41.65-21.79-52.37-91.79-23.89-156.04,25.12-56.68,71.04-82.49,103.08-82.49l.62-.02c.39-.01,1.19-.01,1.98-.01.74,0,1.49,0,1.9.01l.7.02c32.04,0,77.96,25.81,103.08,82.49,28.48,64.25,17.76,134.25-23.89,156.04ZM432.81,117.45c-37.05,0-67.19,39.09-67.19,87.13s30.14,87.13,67.19,87.13,67.19-39.09,67.19-87.13-30.14-87.13-67.19-87.13ZM432.81,267.01c-23.03,0-42.49-28.59-42.49-62.44s19.46-62.44,42.49-62.44,42.5,28.59,42.5,62.44-19.46,62.44-42.5,62.44ZM176.87,174.27c37.05,0,67.19-39.09,67.19-87.13S213.93,0,176.87,0s-67.19,39.09-67.19,87.14,30.14,87.13,67.19,87.13ZM176.87,24.69c23.04,0,42.5,28.6,42.5,62.44s-19.46,62.44-42.5,62.44-42.5-28.59-42.5-62.44,19.46-62.44,42.5-62.44ZM134.38,204.58c0-48.05-30.14-87.13-67.19-87.13S0,156.53,0,204.58s30.14,87.13,67.19,87.13,67.19-39.09,67.19-87.13ZM67.19,267.01c-23.03,0-42.5-28.59-42.5-62.44s19.46-62.44,42.5-62.44,42.49,28.59,42.49,62.44-19.46,62.44-42.49,62.44Z"/>
  </g>
</svg>