<?xml version="1.0" encoding="UTF-8"?>
<svg id="Camada_2" data-name="Camada 2" xmlns="http://www.w3.org/2000/svg" viewBox="0 0 500 499.04">
  <defs>
    <style>
      .cls-1 {
        fill: #a78b6c;
        stroke-width: 0px;
      }
    </style>
  </defs>
  <g id="Selinho_Cafés_Espaciais" data-name="Selinho Cafés Espaciais">
    <g id="_2_-_Selinho_Cafés_Espaciais" data-name="2 - Selinho Cafés Espaciais">
      <path class="cls-1" d="M40.04,138.16l-1.95,4.42c-1.39-.3-2.7-.34-3.94-.12s-2.4.65-3.46,1.28c-1.07.63-2.01,1.43-2.84,2.4-.82.97-1.5,2.06-2.03,3.27-.98,2.21-1.3,4.45-.97,6.72s1.35,4.41,3.05,6.42c1.71,2,4.14,3.71,7.29,5.09,3.15,1.39,6.05,2.04,8.69,1.95,2.63-.09,4.9-.79,6.8-2.08,1.9-1.3,3.34-3.05,4.31-5.25.53-1.21.88-2.45,1.04-3.71.16-1.26.12-2.5-.14-3.71-.25-1.21-.72-2.35-1.4-3.42-.68-1.08-1.6-2.02-2.74-2.83l1.94-4.41c1.72,1.15,3.12,2.49,4.2,4.02,1.08,1.52,1.85,3.16,2.3,4.92.45,1.76.59,3.56.41,5.42-.18,1.86-.67,3.7-1.49,5.54-1.37,3.11-3.34,5.53-5.93,7.29-2.59,1.75-5.59,2.7-8.99,2.86-3.41.15-7.04-.62-10.88-2.31s-6.86-3.85-9.05-6.47c-2.19-2.62-3.51-5.48-3.96-8.57-.45-3.09,0-6.19,1.38-9.29.81-1.84,1.84-3.45,3.09-4.84,1.25-1.39,2.67-2.5,4.27-3.35,1.6-.85,3.33-1.39,5.18-1.63,1.85-.23,3.78-.1,5.81.39Z"/>
      <path class="cls-1" d="M72.67,136.93l-2.96,4.11-23.8-35.11,2.9-4.04,40.87,11.36-2.95,4.11-34.16-9.89-.19.25,20.28,29.22ZM61.13,126.34l11.89-16.55,3.47,2.5-11.89,16.54-3.47-2.49Z"/>
      <path class="cls-1" d="M97.67,104.98l-27.34-28.94,17.36-16.4,2.94,3.11-13.85,13.09,9.24,9.78,12.55-11.86,2.94,3.1-12.55,11.86,12.23,12.94-3.51,3.31Z"/>
      <path class="cls-1" d="M125.94,80.13l-21.7-33.38,20.15-13.1,2.33,3.59-16.11,10.47,7.34,11.28,15.06-9.79,2.33,3.59-15.06,9.79,7.37,11.34,16.37-10.63,2.33,3.58-20.41,13.26ZM110.32,37.97l-.94-10.15,4.5-2.93-.17,10.87-3.39,2.21Z"/>
      <path class="cls-1" d="M167.33,24.56c-.97-1.73-2.43-2.79-4.38-3.16s-4.04-.1-6.26.82c-1.63.67-2.94,1.52-3.95,2.55-1,1.03-1.65,2.14-1.95,3.35-.29,1.2-.2,2.39.28,3.56.4.98.99,1.73,1.75,2.24.76.5,1.61.84,2.54.99.93.15,1.86.21,2.8.17.94-.05,1.78-.12,2.54-.22l4.15-.53c1.06-.14,2.28-.24,3.64-.28,1.37-.04,2.75.09,4.14.41,1.4.31,2.69.91,3.89,1.81,1.2.9,2.15,2.21,2.86,3.93.82,1.99,1.04,4,.67,6.04s-1.36,3.93-2.95,5.7-3.8,3.23-6.64,4.39c-2.63,1.09-5.09,1.6-7.36,1.54-2.28-.06-4.28-.63-6-1.69-1.73-1.07-3.07-2.58-4.04-4.53l4.6-1.9c.69,1.34,1.64,2.29,2.83,2.86,1.2.56,2.51.81,3.96.72,1.44-.08,2.9-.43,4.36-1.03,1.7-.7,3.11-1.61,4.24-2.72,1.13-1.11,1.88-2.34,2.26-3.66.38-1.33.29-2.66-.26-4-.5-1.22-1.25-2.08-2.26-2.57-1-.48-2.15-.74-3.46-.76-1.31-.02-2.69.06-4.13.23l-5.06.57c-3.22.36-5.98.12-8.29-.73-2.31-.84-3.97-2.51-5-4.98-.85-2.07-1.03-4.1-.55-6.1.49-2,1.51-3.82,3.05-5.46s3.49-2.94,5.85-3.91c2.37-.98,4.65-1.42,6.85-1.34s4.13.63,5.82,1.65c1.69,1.02,2.95,2.44,3.77,4.27l-4.31,1.78Z"/>
      <path class="cls-1" d="M218.08,41.98l-3.9-39.63,23.92-2.35.41,4.26-19.11,1.88,1.31,13.39,17.88-1.76.42,4.26-17.88,1.76,1.33,13.46,19.42-1.9.42,4.26-24.22,2.38Z"/>
      <path class="cls-1" d="M280.41,11.77c-.05-1.98-.86-3.59-2.41-4.82-1.56-1.24-3.54-1.96-5.94-2.17-1.75-.16-3.31-.02-4.67.43-1.37.45-2.45,1.14-3.27,2.07-.82.93-1.28,2.02-1.4,3.29-.09,1.06.08,1.99.52,2.79.44.8,1.04,1.49,1.8,2.05.75.57,1.56,1.05,2.41,1.45.84.4,1.63.73,2.35.98l3.93,1.45c1.01.37,2.12.85,3.35,1.44,1.23.6,2.39,1.35,3.49,2.28,1.09.93,1.96,2.07,2.61,3.41.65,1.35.89,2.95.72,4.81-.19,2.14-.92,4.03-2.2,5.66-1.27,1.63-3.02,2.86-5.25,3.68-2.23.83-4.87,1.11-7.91.83-2.84-.26-5.25-.94-7.25-2.04-1.98-1.11-3.5-2.53-4.53-4.28s-1.53-3.71-1.49-5.9l4.96.45c0,1.51.39,2.79,1.19,3.85.79,1.05,1.85,1.88,3.17,2.48,1.32.6,2.77.96,4.35,1.1,1.83.17,3.51.02,5.02-.45,1.51-.47,2.74-1.2,3.69-2.21.95-1,1.49-2.22,1.62-3.67.12-1.32-.15-2.42-.82-3.31-.66-.9-1.56-1.66-2.72-2.28-1.15-.62-2.41-1.19-3.77-1.7l-4.76-1.83c-3.01-1.17-5.35-2.67-7.01-4.48-1.66-1.82-2.37-4.06-2.12-6.73.2-2.22.98-4.11,2.34-5.66,1.35-1.55,3.1-2.69,5.23-3.43,2.13-.74,4.46-.99,6.99-.76,2.56.23,4.79.89,6.69,1.98,1.91,1.09,3.37,2.48,4.4,4.16,1.03,1.68,1.49,3.52,1.37,5.53l-4.65-.43Z"/>
      <path class="cls-1" d="M295.89,44.61l11.03-38.27,12.93,3.73c3,.87,5.3,2.11,6.9,3.74,1.6,1.63,2.6,3.49,2.99,5.59.39,2.09.26,4.27-.38,6.52-.65,2.25-1.7,4.17-3.15,5.75-1.45,1.58-3.28,2.64-5.5,3.18-2.22.54-4.82.38-7.8-.48l-9.27-2.67,1.18-4.11,9.12,2.63c2.05.59,3.81.71,5.25.36,1.45-.35,2.63-1.04,3.56-2.1.91-1.05,1.59-2.34,2.04-3.88s.55-2.98.34-4.36c-.22-1.37-.86-2.58-1.92-3.64-1.06-1.05-2.63-1.88-4.71-2.48l-8.14-2.35-9.85,34.15-4.64-1.33Z"/>
      <path class="cls-1" d="M334.03,57.13l17.87-35.58,21.47,10.79-1.92,3.82-17.17-8.63-6.04,12.03,16.05,8.06-1.92,3.82-16.05-8.06-6.07,12.09,17.44,8.76-1.92,3.82-21.75-10.93Z"/>
      <path class="cls-1" d="M409.52,73.38l-3.8-2.98c.63-1.27.99-2.53,1.08-3.79s-.03-2.49-.38-3.68c-.34-1.18-.89-2.29-1.63-3.33-.73-1.04-1.62-1.96-2.67-2.78-1.9-1.49-3.99-2.35-6.27-2.6-2.28-.24-4.62.21-6.98,1.37-2.37,1.16-4.61,3.1-6.74,5.81-2.13,2.72-3.47,5.35-4.03,7.93-.56,2.58-.44,4.94.34,7.1.78,2.17,2.12,3.99,4.02,5.47,1.04.82,2.16,1.46,3.34,1.92,1.18.46,2.4.72,3.62.78,1.24.05,2.46-.12,3.66-.51,1.21-.39,2.35-1.04,3.42-1.95l3.8,2.98c-1.54,1.38-3.18,2.4-4.93,3.08-1.74.67-3.52,1.01-5.34,1.01-1.81,0-3.59-.31-5.35-.94s-3.42-1.57-5-2.81c-2.67-2.09-4.53-4.6-5.59-7.54-1.06-2.94-1.24-6.07-.55-9.42s2.33-6.67,4.93-9.97c2.58-3.3,5.42-5.7,8.5-7.17,3.08-1.48,6.17-2.05,9.28-1.73,3.1.33,5.99,1.54,8.66,3.64,1.58,1.24,2.89,2.63,3.92,4.18,1.04,1.56,1.77,3.21,2.2,4.98.43,1.76.53,3.57.3,5.42s-.84,3.7-1.81,5.53Z"/>
      <path class="cls-1" d="M434.31,81.41l-29.19,27.09-3.28-3.54,29.19-27.09,3.28,3.54Z"/>
      <path class="cls-1" d="M416.54,121.67l-2.84-4.18,41.15-10.27,2.8,4.12-24.73,34.46-2.84-4.18,21.04-28.68-.18-.26-34.41,8.99ZM430.46,114.48l11.45,16.85-3.54,2.41-11.45-16.86,3.54-2.4Z"/>
      <path class="cls-1" d="M476.08,144.18l-35.93,17.17-2.08-4.36,35.92-17.17,2.08,4.35Z"/>
      <path class="cls-1" d="M481.55,187.73c1.81-.8,2.99-2.16,3.54-4.07.55-1.91.47-4.01-.24-6.31-.52-1.68-1.25-3.07-2.18-4.16-.93-1.09-1.98-1.83-3.15-2.24-1.17-.41-2.36-.42-3.58-.05-1.01.31-1.81.83-2.38,1.54-.58.71-.98,1.52-1.22,2.45-.24.91-.38,1.84-.42,2.77-.04.93-.05,1.78-.02,2.55l.16,4.19c.04,1.07.02,2.28-.05,3.64-.09,1.36-.35,2.72-.79,4.09-.44,1.36-1.16,2.6-2.16,3.71-1,1.11-2.39,1.94-4.17,2.49-2.06.63-4.08.67-6.07.12-2-.56-3.79-1.71-5.41-3.46-1.61-1.75-2.87-4.09-3.77-7-.84-2.72-1.13-5.22-.86-7.48.26-2.26,1.01-4.2,2.23-5.82,1.22-1.62,2.85-2.82,4.88-3.62l1.47,4.76c-1.4.56-2.43,1.42-3.11,2.55-.68,1.14-1.03,2.43-1.08,3.88-.05,1.44.16,2.92.63,4.43.55,1.76,1.32,3.25,2.33,4.47s2.16,2.08,3.44,2.58c1.28.5,2.62.53,4.01.11,1.27-.39,2.18-1.06,2.76-2.02.57-.95.93-2.08,1.07-3.38.14-1.31.19-2.69.15-4.14l-.11-5.09c-.07-3.24.43-5.97,1.47-8.19,1.05-2.22,2.86-3.73,5.42-4.52,2.13-.66,4.17-.66,6.12,0,1.95.67,3.67,1.84,5.16,3.54,1.49,1.69,2.61,3.75,3.37,6.18.75,2.45.99,4.76.71,6.94-.29,2.17-1.01,4.05-2.17,5.65-1.16,1.59-2.7,2.71-4.6,3.37l-1.38-4.47Z"/>
      <path class="cls-1" d="M486.85,268.76l.05-4.82c1.39-.27,2.61-.75,3.66-1.45,1.06-.7,1.95-1.55,2.68-2.54.73-.99,1.28-2.1,1.66-3.32.38-1.21.57-2.48.58-3.81.02-2.41-.56-4.6-1.76-6.56-1.2-1.97-2.98-3.53-5.34-4.7-2.36-1.17-5.26-1.77-8.71-1.81-3.45-.03-6.36.51-8.75,1.63-2.38,1.13-4.19,2.66-5.43,4.6-1.23,1.94-1.87,4.11-1.89,6.52-.02,1.32.15,2.59.5,3.82.36,1.22.89,2.34,1.59,3.35.71,1.01,1.59,1.88,2.64,2.59,1.05.72,2.26,1.23,3.63,1.52l-.05,4.82c-2.04-.38-3.85-1.06-5.44-2.04-1.6-.98-2.95-2.18-4.05-3.62-1.11-1.43-1.95-3.04-2.51-4.81-.56-1.78-.84-3.67-.82-5.68.03-3.4.89-6.41,2.58-9.03,1.68-2.63,4.07-4.69,7.14-6.18s6.71-2.21,10.91-2.17c4.2.05,7.82.84,10.87,2.38,3.04,1.55,5.38,3.65,7.01,6.31,1.63,2.66,2.43,5.69,2.4,9.08-.02,2-.33,3.89-.94,5.66-.6,1.76-1.47,3.35-2.6,4.77-1.14,1.42-2.51,2.59-4.12,3.54s-3.44,1.59-5.49,1.93Z"/>
      <path class="cls-1" d="M469.67,318.25c-4.1-.95-7.46-2.51-10.09-4.68-2.64-2.17-4.47-4.73-5.49-7.68-1.02-2.95-1.14-6.08-.38-9.39.77-3.31,2.26-6.06,4.47-8.26,2.21-2.2,4.98-3.7,8.31-4.48,3.32-.79,7.03-.71,11.12.24,4.09.95,7.46,2.51,10.09,4.67,2.64,2.17,4.47,4.73,5.49,7.68,1.02,2.95,1.15,6.08.38,9.39-.77,3.3-2.26,6.06-4.47,8.26-2.21,2.2-4.98,3.7-8.3,4.48-3.32.79-7.03.7-11.12-.24ZM470.72,313.7c3.36.78,6.32.87,8.9.29,2.57-.58,4.67-1.69,6.29-3.31,1.63-1.63,2.72-3.61,3.26-5.96.55-2.35.44-4.61-.31-6.79-.75-2.17-2.15-4.09-4.2-5.74s-4.76-2.87-8.11-3.64c-3.36-.78-6.32-.88-8.9-.3-2.57.58-4.67,1.68-6.3,3.31s-2.71,3.61-3.25,5.96c-.55,2.35-.44,4.61.3,6.78s2.14,4.09,4.19,5.75c2.05,1.65,4.76,2.86,8.12,3.64Z"/>
      <path class="cls-1" d="M481.9,343.43l-2.56,5.15-35.62-2.6-.21.42,23.57,26.84-2.56,5.15-35.65-17.74,2.01-4.04,27.09,13.47.17-.35-21.54-24.62,1.94-3.9,32.63,2.34.17-.35-27.08-13.47,2.01-4.04,35.65,17.73Z"/>
      <path class="cls-1" d="M406.22,428.16c1.21.65,2.44,1.11,3.66,1.38,1.22.27,2.43.34,3.63.21,1.2-.13,2.37-.47,3.5-1.03,1.14-.56,2.23-1.33,3.26-2.33,1.7-1.64,2.82-3.56,3.37-5.78.54-2.22.4-4.58-.42-7.08-.83-2.5-2.43-4.99-4.83-7.48-2.39-2.48-4.83-4.17-7.31-5.08-2.48-.91-4.84-1.12-7.11-.62-2.27.49-4.28,1.59-6.06,3.3-1.64,1.59-2.75,3.34-3.33,5.25-.57,1.92-.59,3.86-.05,5.83.55,1.97,1.66,3.84,3.35,5.59l-1.28.8,8.62-8.31,2.97,3.08-10.92,10.52-2.97-3.08c-2.28-2.36-3.76-4.9-4.43-7.61-.68-2.72-.6-5.39.23-8.05.84-2.65,2.4-5.08,4.67-7.27,2.54-2.45,5.34-4,8.41-4.65,3.07-.65,6.2-.39,9.39.78,3.19,1.17,6.24,3.27,9.16,6.29,2.18,2.27,3.85,4.6,4.98,7,1.14,2.41,1.76,4.79,1.88,7.15.12,2.36-.27,4.62-1.14,6.77-.87,2.16-2.22,4.12-4.07,5.89-1.51,1.46-3.14,2.59-4.89,3.4-1.75.81-3.54,1.3-5.36,1.47-1.83.17-3.64.02-5.43-.46s-3.49-1.28-5.09-2.42l3.58-3.46Z"/>
      <path class="cls-1" d="M354.78,454.49c-2.19-3.58-3.44-7.07-3.73-10.48-.31-3.4.24-6.5,1.63-9.29,1.39-2.79,3.54-5.08,6.43-6.85s5.91-2.64,9.03-2.6c3.12.03,6.12.96,9.01,2.78,2.89,1.82,5.43,4.52,7.62,8.11,2.19,3.59,3.44,7.08,3.74,10.47.3,3.4-.24,6.5-1.63,9.29-1.39,2.8-3.54,5.08-6.43,6.85-2.89,1.77-5.9,2.64-9.03,2.61-3.12-.04-6.13-.97-9.02-2.79-2.89-1.82-5.43-4.52-7.62-8.1ZM358.76,452.05c1.8,2.95,3.8,5.13,6.02,6.55,2.22,1.42,4.47,2.15,6.77,2.17,2.3.02,4.48-.6,6.54-1.86,2.05-1.26,3.59-2.92,4.63-4.97,1.03-2.05,1.42-4.4,1.16-7.01-.26-2.62-1.29-5.41-3.09-8.35s-3.81-5.12-6.02-6.55c-2.21-1.43-4.47-2.15-6.77-2.17-2.3-.02-4.48.6-6.54,1.85-2.06,1.26-3.6,2.92-4.63,4.98s-1.41,4.4-1.16,7.02c.26,2.62,1.28,5.4,3.09,8.34Z"/>
      <path class="cls-1" d="M321.88,478.17c.88,1.78,2.29,2.9,4.22,3.37,1.92.46,4.03.29,6.29-.52,1.67-.6,3.01-1.39,4.06-2.36,1.04-.98,1.75-2.07,2.1-3.25.36-1.19.32-2.38-.11-3.58-.36-1-.91-1.77-1.64-2.31-.73-.54-1.57-.91-2.49-1.11-.92-.19-1.85-.29-2.79-.29-.94,0-1.78.02-2.55.09l-4.17.33c-1.06.1-2.28.13-3.65.11-1.36-.02-2.74-.22-4.12-.6-1.38-.38-2.65-1.04-3.8-2-1.16-.94-2.04-2.3-2.67-4.05-.72-2.03-.85-4.05-.38-6.06.47-2.02,1.54-3.87,3.22-5.56,1.68-1.68,3.95-3.04,6.83-4.07,2.69-.96,5.16-1.36,7.43-1.19,2.27.16,4.24.82,5.91,1.97,1.67,1.15,2.95,2.72,3.83,4.72l-4.69,1.68c-.63-1.37-1.52-2.37-2.69-2.99-1.17-.62-2.48-.92-3.92-.91-1.45.01-2.91.29-4.4.82-1.73.62-3.19,1.46-4.37,2.52-1.18,1.06-1.98,2.24-2.43,3.56-.44,1.3-.41,2.64.07,4.01.45,1.25,1.15,2.14,2.13,2.66.98.53,2.12.84,3.42.92,1.32.08,2.69.07,4.14-.03l5.09-.33c3.23-.21,5.97.17,8.25,1.11,2.27.95,3.85,2.69,4.76,5.22.75,2.1.84,4.14.26,6.12-.58,1.97-1.68,3.75-3.3,5.31s-3.63,2.77-6.02,3.63c-2.42.87-4.72,1.2-6.9,1.01-2.19-.19-4.1-.83-5.74-1.92-1.64-1.09-2.82-2.58-3.56-4.45l4.4-1.57Z"/>
      <path class="cls-1" d="M301.53,489.72l.65,4.23-29.52,4.5-.65-4.23,12.37-1.88-5.35-35.14,4.77-.73,5.35,35.14,12.38-1.89Z"/>
      <path class="cls-1" d="M248.42,499.04l-.13-39.81,4.82-.02.13,39.82-4.82.02Z"/>
      <path class="cls-1" d="M226.05,498.64l-5.67-1-7.57-34.9-.46-.08-19.08,30.2-5.67-1.01,6.93-39.21,4.44.79-5.27,29.79.39.07,17.52-27.63,4.29.76,6.99,31.96.39.06,5.26-29.79,4.45.78-6.93,39.21Z"/>
      <path class="cls-1" d="M119.03,447.89l4.21,2.36c-.43,1.35-.59,2.65-.49,3.92s.41,2.45.94,3.58c.53,1.11,1.23,2.13,2.11,3.04s1.91,1.69,3.06,2.34c2.1,1.18,4.3,1.72,6.6,1.61,2.3-.11,4.53-.92,6.69-2.42,2.16-1.51,4.08-3.77,5.77-6.77,1.68-3.01,2.61-5.83,2.77-8.45.16-2.63-.31-4.96-1.42-6.97-1.1-2.02-2.71-3.61-4.81-4.8-1.15-.64-2.35-1.11-3.59-1.39-1.24-.28-2.48-.35-3.71-.22-1.23.14-2.41.5-3.54,1.07-1.14.58-2.16,1.39-3.08,2.45l-4.2-2.36c1.31-1.59,2.78-2.86,4.4-3.79s3.33-1.54,5.12-1.82c1.79-.28,3.6-.25,5.43.11,1.83.36,3.62,1.03,5.37,2.01,2.96,1.66,5.19,3.86,6.69,6.6s2.16,5.82,1.98,9.22c-.17,3.41-1.28,6.95-3.34,10.61-2.06,3.67-4.49,6.46-7.31,8.39-2.82,1.92-5.79,2.96-8.91,3.12s-6.16-.6-9.12-2.26c-1.75-.98-3.26-2.16-4.52-3.54-1.26-1.37-2.23-2.9-2.93-4.57-.69-1.68-1.07-3.44-1.12-5.31-.06-1.86.26-3.78.94-5.75Z"/>
      <path class="cls-1" d="M120.99,415.31l3.8,3.33-37.23,20.33-3.75-3.28,15.23-39.59,3.81,3.33-13.13,33.05.23.21,31.03-17.38ZM109.34,425.78l-15.33-13.42,2.82-3.22,15.33,13.43-2.82,3.21Z"/>
      <path class="cls-1" d="M54.61,388.4c-1.42,1.39-2.05,3.06-1.9,5.05.15,1.98.96,3.92,2.42,5.83,1.07,1.4,2.24,2.45,3.49,3.14,1.25.7,2.5,1.03,3.74,1,1.24-.02,2.36-.43,3.37-1.2.84-.65,1.4-1.41,1.69-2.28.29-.87.39-1.77.29-2.72-.1-.94-.29-1.86-.57-2.75-.29-.89-.58-1.69-.87-2.4l-1.61-3.87c-.41-.99-.82-2.13-1.22-3.44-.4-1.31-.63-2.68-.69-4.11-.06-1.43.18-2.84.73-4.23.55-1.39,1.57-2.65,3.05-3.79,1.71-1.31,3.59-2.05,5.65-2.22,2.06-.16,4.15.29,6.27,1.36,2.12,1.08,4.11,2.83,5.97,5.25,1.74,2.26,2.88,4.5,3.42,6.71.54,2.21.51,4.29-.07,6.23-.58,1.94-1.69,3.64-3.32,5.09l-3.03-3.95c1.11-1.02,1.79-2.18,2.02-3.48.24-1.3.12-2.64-.34-4.01-.46-1.37-1.17-2.69-2.13-3.94-1.12-1.45-2.37-2.58-3.74-3.38-1.37-.79-2.74-1.2-4.12-1.21-1.38-.02-2.65.41-3.8,1.3-1.05.8-1.68,1.75-1.88,2.84s-.15,2.28.18,3.54c.32,1.27.75,2.58,1.3,3.93l1.88,4.74c1.18,3.01,1.67,5.74,1.46,8.19-.21,2.45-1.38,4.49-3.51,6.13-1.77,1.35-3.68,2.06-5.74,2.12-2.06.05-4.08-.45-6.07-1.52s-3.76-2.6-5.3-4.62c-1.56-2.04-2.59-4.12-3.08-6.26-.49-2.14-.46-4.16.07-6.05.54-1.9,1.59-3.48,3.15-4.75l2.84,3.7Z"/>
      <path class="cls-1" d="M68.22,354.64l-35.51,18.01-10.87-21.44,3.81-1.93,8.69,17.13,12-6.08-8.13-16.02,3.82-1.93,8.13,16.02,12.06-6.12-8.82-17.41,3.81-1.93,11.01,21.71Z"/>
      <path class="cls-1" d="M12.96,327.42l37.69-12.82,1.55,4.57-37.7,12.82-1.55-4.57Z"/>
      <path class="cls-1" d="M45.97,299.56l-39.17,7.17-2.42-13.23c-.56-3.06-.5-5.66.18-7.82.68-2.15,1.84-3.87,3.48-5.14,1.64-1.27,3.61-2.12,5.92-2.54,2.31-.43,4.44-.33,6.4.29,1.96.62,3.63,1.81,5,3.58s2.33,4.17,2.89,7.2l1.96,10.71-4.28.78-1.93-10.56c-.38-2.09-.99-3.72-1.84-4.89s-1.89-1.94-3.12-2.32c-1.23-.37-2.63-.41-4.2-.12-1.57.29-2.89.83-3.95,1.63-1.06.8-1.8,1.9-2.21,3.3-.41,1.41-.42,3.17-.03,5.29l1.53,8.34,34.96-6.4.87,4.74ZM25,284.34l15.83-12.86,1.01,5.51-15.86,12.7-.98-5.35Z"/>
      <path class="cls-1" d="M20.93,225.88c4.2.12,7.81.97,10.83,2.57s5.32,3.75,6.91,6.43,2.33,5.73,2.24,9.12c-.09,3.4-1,6.39-2.73,8.99-1.73,2.59-4.15,4.61-7.25,6.04-3.1,1.44-6.74,2.1-10.94,1.98s-7.81-.97-10.82-2.57c-3.02-1.59-5.32-3.74-6.91-6.43-1.58-2.69-2.33-5.73-2.24-9.12.09-3.39,1-6.39,2.74-8.98,1.73-2.6,4.14-4.62,7.24-6.05s6.74-2.09,10.94-1.98ZM20.81,230.55c-3.44-.09-6.37.4-8.78,1.49-2.4,1.08-4.24,2.58-5.5,4.5-1.28,1.92-1.94,4.09-2.01,6.49-.07,2.41.49,4.61,1.65,6.59,1.17,1.98,2.92,3.58,5.27,4.79,2.34,1.21,5.23,1.86,8.67,1.95,3.45.09,6.37-.4,8.78-1.48,2.4-1.08,4.24-2.58,5.51-4.5,1.27-1.92,1.94-4.08,2-6.49.07-2.41-.48-4.6-1.65-6.59-1.17-1.98-2.92-3.58-5.26-4.79-2.34-1.21-5.23-1.86-8.68-1.96Z"/>
    </g>
  </g>
</svg>