<?xml version="1.0" encoding="UTF-8"?>
<svg id="Camada_2" data-name="Camada 2" xmlns="http://www.w3.org/2000/svg" viewBox="0 0 500 494.36">
  <defs>
    <style>
      .cls-1 {
        fill: #a78b6c;
        stroke-width: 0px;
      }
    </style>
  </defs>
  <g id="Selinho_para_viagem" data-name="Selinho para viagem">
    <g id="_2_-_Selinho_para_viagem" data-name="2 - Selinho para viagem">
      <path class="cls-1" d="M35.66,131.88c1.65.96,3.27,1.85,4.88,2.67,1.61.81,2.85,1.42,3.7,1.81.99.46,1.95.87,2.88,1.24.92.37,1.72.68,2.38.94l-.68,1.49c-3.32-1.05-6.03-1.65-8.12-1.8-2.1-.15-3.85.26-5.26,1.23-1.41.97-2.68,2.71-3.82,5.2l-1.57,3.42c-.63,1.38-.99,2.48-1.08,3.3-.09.82.16,1.52.75,2.1s1.64,1.22,3.15,1.91l32.17,14.74c1.59.73,2.87,1.11,3.82,1.12.95.02,1.78-.38,2.47-1.21s1.48-2.16,2.37-3.99l1.36.62c-.62,1.12-1.36,2.61-2.24,4.45-.87,1.84-1.76,3.76-2.66,5.74-.79,1.72-1.53,3.38-2.23,4.96-.7,1.58-1.25,2.93-1.66,4.05l-1.29-.59c.58-1.5.91-2.68.99-3.53.08-.85-.22-1.57-.88-2.16-.67-.59-1.77-1.24-3.33-1.95l-32.05-14.67c-1.59-.73-2.82-1.15-3.68-1.26-.86-.11-1.61.15-2.23.78-.62.62-1.28,1.64-1.98,3.04l-1.29-.59c.81-1.66,1.65-3.4,2.51-5.22.86-1.82,1.71-3.62,2.55-5.4.84-1.78,1.62-3.44,2.33-4.99.71-1.55,1.3-2.82,1.75-3.81.91-1.98,1.93-4.24,3.06-6.77,1.13-2.53,2.11-4.81,2.93-6.83ZM45.84,146.86c2.38,1.3,4.22,2.23,5.52,2.8,1.3.57,2.49,1.1,3.57,1.59,1.08.5,2.27,1.02,3.59,1.57,1.31.55,3.23,1.3,5.77,2.25l-.68,1.49c-1.5-.48-2.99-.85-4.46-1.1-1.47-.26-2.82-.12-4.06.41-1.23.53-2.26,1.7-3.09,3.51l-1.29-.59c.63-1.38.85-2.59.65-3.65-.19-1.05-.65-2-1.35-2.85-.71-.84-1.5-1.59-2.38-2.22-.88-.64-1.7-1.21-2.46-1.72l.68-1.49ZM53.75,152.13l1.29.59-5.74,12.54-1.29-.59,5.74-12.53Z"/>
      <path class="cls-1" d="M89.57,142.04c-1.15,1.62-2.45,2.79-3.89,3.51-1.44.72-2.91.99-4.4.8-1.49-.19-2.94-.78-4.33-1.77-1.7-1.2-2.81-2.57-3.32-4.1-.51-1.53-.67-3.13-.46-4.82.21-1.68.58-3.36,1.11-5.05.53-1.68,1.02-3.28,1.48-4.79.46-1.5.69-2.84.72-4.02.02-1.18-.41-2.08-1.3-2.71l-3.94-2.8c-1.39-.99-2.66-1.55-3.81-1.7-1.14-.14-2.16.04-3.04.54s-1.7,1.28-2.44,2.32c-.63.89-1.18,1.92-1.64,3.11-.46,1.18-.53,2.32-.21,3.42.83-.69,1.79-1.07,2.86-1.15,1.07-.08,2.11.24,3.12.95,1.08.77,1.67,1.73,1.78,2.88.11,1.16-.22,2.27-.98,3.35-.85,1.2-1.86,1.82-3.02,1.86-1.17.04-2.25-.29-3.26-1-1.05-.74-1.71-1.61-1.99-2.59-.29-.99-.42-2.11-.4-3.38.04-1.36.36-2.92.97-4.67.6-1.75,1.53-3.51,2.8-5.29,1.18-1.66,2.38-2.97,3.62-3.93,1.23-.96,2.54-1.55,3.92-1.78,1.58-.34,3.14-.19,4.69.45,1.55.63,3.28,1.63,5.17,2.97l15.99,11.35c.96.69,1.74,1.05,2.32,1.08.58.04,1.08-.23,1.49-.81.27-.39.45-.83.52-1.34.07-.5.08-1.15.05-1.92l1.4.12c.08,1.28.02,2.47-.18,3.57-.21,1.1-.76,2.29-1.66,3.57-.88,1.24-1.78,2.1-2.72,2.6-.94.5-1.9.67-2.89.51-1-.15-2.03-.61-3.11-1.38.91,2.16,1.3,4.23,1.16,6.23-.14,1.99-.86,3.92-2.18,5.77ZM88.77,137.28c.77-1.08,1.18-2.31,1.23-3.7.05-1.39-.25-2.92-.91-4.61l-11.53-8.19c.32.86.41,1.86.28,2.99-.13,1.13-.29,2.32-.49,3.58-.19,1.26-.29,2.51-.28,3.77,0,1.26.28,2.49.83,3.68.54,1.2,1.53,2.31,2.96,3.32,1.51,1.07,2.97,1.53,4.38,1.37,1.42-.16,2.59-.89,3.53-2.2Z"/>
      <path class="cls-1" d="M100.11,73.19l11.23,39.39,4.56-4.49c1.35-1.33,2.28-2.78,2.8-4.35.52-1.57.5-3.31-.06-5.23-.55-1.92-1.77-3.97-3.67-6.16l1.17-1.15c2.23,2.27,4.1,4.14,5.63,5.63,1.53,1.49,2.81,2.69,3.84,3.6-1.58,1.43-3.2,2.92-4.86,4.48-1.66,1.56-3.28,3.12-4.86,4.69-1.72,1.69-3.45,3.44-5.17,5.23-1.72,1.8-3.36,3.52-4.92,5.19l-11.23-39.39-4.66,4.58c-1.46,1.43-2.43,2.93-2.93,4.52-.5,1.59-.44,3.29.18,5.1.62,1.82,1.86,3.84,3.72,6.06l-1.11,1.1c-2.26-2.3-4.13-4.17-5.63-5.63-1.49-1.45-2.77-2.65-3.84-3.6,1.55-1.39,3.15-2.87,4.81-4.43,1.65-1.56,3.29-3.13,4.91-4.73,1.69-1.66,3.4-3.39,5.12-5.19s3.38-3.54,4.97-5.23Z"/>
      <path class="cls-1" d="M138.63,29.92l.78,1.19c-1.26.93-2.09,1.82-2.51,2.66-.42.84-.45,1.78-.11,2.83s1.05,2.39,2.11,4.01l11.23,17.2c1.76,2.7,3.15,5.21,4.16,7.55,1.02,2.34,1.56,4.55,1.63,6.66.09,2.31-.49,4.6-1.75,6.87-1.26,2.27-3.22,4.27-5.88,6.01-1.9,1.24-3.89,2.23-5.96,2.96-2.07.73-4.18.92-6.33.57-1.89-.29-3.59-.85-5.09-1.68-1.5-.83-2.96-2.07-4.38-3.72-1.42-1.65-3-3.8-4.73-6.46l-12.2-18.68c-.96-1.47-1.78-2.47-2.45-3.03-.67-.55-1.43-.73-2.27-.55-.84.18-1.95.69-3.32,1.53l-.78-1.19c.94-.56,2.14-1.29,3.62-2.19,1.47-.91,3.04-1.9,4.71-2.99,1.51-.99,2.99-1.98,4.45-3,1.46-1.01,2.66-1.84,3.58-2.51l.78,1.19c-1.32.92-2.25,1.74-2.78,2.45-.53.71-.68,1.49-.46,2.34.21.85.8,2.01,1.76,3.48l13.45,20.59c1.32,2.03,2.65,3.82,3.98,5.38,1.33,1.56,2.71,2.77,4.14,3.62,1.43.85,2.98,1.22,4.64,1.13s3.46-.78,5.41-2.05c2.93-1.92,4.77-4.07,5.51-6.44.74-2.38.68-4.94-.18-7.69-.86-2.75-2.27-5.61-4.21-8.59l-11.5-17.61c-1.11-1.7-2.13-2.91-3.04-3.62-.91-.7-1.9-1-2.97-.91-1.06.1-2.36.59-3.88,1.47l-.78-1.19c.78-.45,1.78-1.04,3-1.78,1.22-.74,2.32-1.43,3.31-2.08,1.03-.67,2.02-1.35,2.97-2.02.95-.68,1.72-1.24,2.33-1.69Z"/>
      <path class="cls-1" d="M178.36,27.22c1.71-.56,3.23-.8,4.55-.71,1.32.09,2.48.42,3.47,1,1.09.59,2.03,1.54,2.81,2.86.77,1.31,1.52,3.05,2.23,5.21l5.93,18.1c.62,1.89,1.4,3.05,2.34,3.49.94.44,2.27.38,3.98-.18l.46,1.42c-.78.2-1.98.54-3.6.99-1.62.46-3.2.94-4.73,1.44-1.53.5-3.02,1.03-4.45,1.57-1.44.55-2.54.97-3.29,1.26l-.47-1.42c1.49-.49,2.43-1.17,2.81-2.04.39-.88.27-2.26-.35-4.15l-6.55-19.99c-.43-1.3-.9-2.46-1.43-3.46-.53-1-1.23-1.72-2.09-2.16-.87-.44-2-.43-3.39.03-1.58.51-2.83,1.45-3.76,2.8-.93,1.35-1.49,2.97-1.7,4.86-.2,1.89.03,3.84.69,5.87l5.33,16.28c.62,1.89,1.35,3.07,2.21,3.54.85.47,2,.47,3.44,0l.47,1.42c-.74.19-1.83.49-3.3.89-1.47.41-2.96.86-4.49,1.36-1.53.5-3.12,1.06-4.76,1.68-1.64.61-2.86,1.07-3.65,1.39l-.47-1.42c1.75-.57,2.89-1.32,3.41-2.24.52-.92.47-2.32-.14-4.22l-6.95-21.21c-.67-2.02-1.49-3.41-2.49-4.16-.99-.74-2.43-.81-4.32-.19l-.47-1.42c1.48-.34,2.9-.73,4.25-1.17,1.53-.5,2.94-1.05,4.21-1.64,1.28-.59,2.42-1.23,3.45-1.92l2.41,7.36c.28-3.08,1.21-5.53,2.79-7.35,1.57-1.81,3.44-3.07,5.6-3.78ZM198.68,20.55c1.71-.56,3.23-.79,4.55-.7,1.32.09,2.48.42,3.47,1,1.09.59,2.03,1.54,2.8,2.86.78,1.31,1.53,3.05,2.24,5.21l5.93,18.1c.63,1.89,1.42,3.05,2.38,3.48.96.43,2.32.36,4.08-.22l.47,1.42c-.78.21-1.99.54-3.63,1.01-1.64.46-3.25.95-4.83,1.47-1.53.5-3.02,1.03-4.46,1.57-1.44.55-2.53.97-3.28,1.26l-.47-1.42c1.49-.49,2.42-1.17,2.81-2.04.39-.88.27-2.26-.35-4.15l-6.55-19.99c-.43-1.31-.9-2.46-1.43-3.46-.53-1-1.24-1.72-2.13-2.15-.89-.43-2.05-.41-3.49.06-1.58.52-2.83,1.46-3.75,2.84-.92,1.38-1.48,3-1.69,4.89-.2,1.89.03,3.84.69,5.87l-2.11-5.51c.24-3.37,1.21-5.93,2.9-7.68s3.64-2.99,5.85-3.72Z"/>
      <path class="cls-1" d="M248.55.03c3.12-.15,5.71.19,7.77,1.01,2.06.82,3.9,1.81,5.52,2.97.98.66,1.71.71,2.18.15.47-.57.75-1.88.84-3.92l1.63-.08c0,1.8.03,3.97.11,6.5.08,2.53.22,5.91.43,10.12l-1.63.08c-.43-2.06-.83-3.75-1.21-5.06-.37-1.31-.83-2.42-1.37-3.35s-1.26-1.81-2.16-2.67c-1.45-1.64-3.2-2.78-5.22-3.44-2.03-.66-4.15-.94-6.37-.83-2.42.12-4.51.82-6.3,2.12-1.79,1.3-3.25,3.09-4.4,5.37-1.15,2.28-1.98,4.96-2.49,8.02-.52,3.06-.68,6.39-.51,9.98.18,3.69.7,7.03,1.55,9.99.86,2.97,2.01,5.5,3.46,7.59,1.46,2.09,3.17,3.66,5.15,4.73,1.97,1.07,4.14,1.54,6.51,1.42,1.94-.09,3.93-.58,5.98-1.46,2.04-.88,3.64-2.16,4.8-3.83,1.25-1.49,2.08-3.13,2.49-4.92.41-1.8.71-4.24.89-7.34l1.64-.08c.21,4.35.4,7.86.58,10.54s.36,4.93.55,6.77l-1.63.08c-.29-2.02-.67-3.28-1.15-3.78-.47-.5-1.22-.39-2.22.32-1.69,1.32-3.5,2.48-5.42,3.5-1.92,1.02-4.42,1.6-7.49,1.75-4.68.23-8.82-.59-12.43-2.45-3.6-1.86-6.47-4.66-8.59-8.4-2.13-3.74-3.32-8.31-3.59-13.7-.26-5.3.52-9.98,2.33-14.06,1.82-4.07,4.42-7.3,7.82-9.7,3.39-2.4,7.38-3.7,11.97-3.93Z"/>
      <path class="cls-1" d="M285.21,53.33c-1.96-.32-3.58-.97-4.86-1.95-1.28-.97-2.17-2.18-2.65-3.6-.48-1.42-.59-2.98-.32-4.66.34-2.06,1.08-3.65,2.22-4.78,1.15-1.13,2.52-1.97,4.12-2.53,1.61-.55,3.28-.96,5.03-1.23,1.75-.27,3.4-.53,4.95-.77,1.55-.25,2.86-.62,3.93-1.12,1.06-.5,1.68-1.28,1.86-2.36l.78-4.77c.28-1.68.23-3.07-.15-4.16-.37-1.09-.98-1.92-1.82-2.5-.84-.57-1.9-.96-3.16-1.16-1.07-.18-2.25-.21-3.51-.11s-2.32.54-3.17,1.32c.98.45,1.75,1.14,2.29,2.07.54.93.71,2,.51,3.22-.21,1.31-.82,2.27-1.8,2.87-.99.61-2.14.8-3.45.59-1.45-.24-2.45-.87-3.01-1.9-.55-1.03-.73-2.15-.53-3.36.21-1.26.69-2.24,1.45-2.93.77-.69,1.71-1.3,2.86-1.84,1.24-.56,2.79-.96,4.62-1.19,1.84-.23,3.83-.17,5.98.19,2.01.33,3.72.84,5.12,1.52,1.4.69,2.51,1.6,3.33,2.74.99,1.27,1.54,2.73,1.66,4.41.11,1.68-.03,3.66-.4,5.95l-3.17,19.36c-.19,1.17-.18,2.02.05,2.57.22.54.68.86,1.38.98.47.08.94.04,1.43-.12.48-.16,1.06-.43,1.75-.8l.51,1.31c-1.11.63-2.21,1.1-3.29,1.41s-2.4.33-3.94.08c-1.5-.24-2.67-.68-3.53-1.3-.86-.62-1.43-1.41-1.73-2.37-.3-.96-.34-2.09-.12-3.4-1.54,1.77-3.23,3.02-5.09,3.78-1.85.75-3.89.95-6.14.58ZM289.14,50.52c1.3.21,2.59.04,3.86-.52,1.27-.56,2.52-1.51,3.74-2.84l2.29-13.96c-.64.66-1.49,1.19-2.56,1.56-1.07.38-2.21.76-3.43,1.13-1.21.38-2.38.85-3.51,1.41-1.13.56-2.11,1.35-2.95,2.36-.84,1.02-1.4,2.39-1.68,4.12-.3,1.82-.07,3.34.7,4.54.76,1.2,1.94,1.94,3.53,2.2Z"/>
      <path class="cls-1" d="M346.58,10.95c1.35.45,2.49,1.03,3.4,1.73.91.7,1.68,1.49,2.29,2.34.45.74.75,1.57.9,2.47.15.9.08,1.8-.22,2.69-.37,1.13-1.06,1.95-2.05,2.46-1,.52-2.08.58-3.24.2-1.17-.39-2.04-1.08-2.61-2.07-.57-.99-.65-2.11-.23-3.37.34-1.03.91-1.8,1.69-2.28.79-.49,1.72-.7,2.8-.64-.02-.41-.23-.81-.64-1.23-.42-.41-1.05-.76-1.9-1.04-.99-.33-1.9-.41-2.73-.23-.83.18-1.56.53-2.19,1.07-.78.69-1.53,1.85-2.24,3.49-.72,1.63-1.65,4.18-2.8,7.64l-1.05,3.17,7.21,2.4-.45,1.35-7.22-2.4-8.78,26.44c-.74,2.2-.61,3.88.38,5.03.99,1.15,2.54,2.08,4.66,2.78l-.47,1.42c-1.06-.41-2.56-.97-4.5-1.68-1.93-.72-4-1.44-6.2-2.18-1.58-.52-3.15-1.01-4.72-1.46-1.57-.45-2.77-.78-3.6-1.01l.47-1.42c1.75.58,3.11.66,4.08.23.97-.43,1.77-1.58,2.4-3.47l9-27.11-5.12-1.7.44-1.35,5.13,1.7c.88-2.65,1.74-4.82,2.58-6.52.84-1.69,1.74-3.09,2.7-4.2.97-1.1,2.06-2,3.3-2.69,1.27-.67,2.74-1.08,4.41-1.23,1.67-.15,3.38.07,5.13.66Z"/>
      <path class="cls-1" d="M368.06,39.77c3.73,1.86,6.09,4.45,7.09,7.75.99,3.31.28,7.39-2.16,12.27l-21.93-10.96.47-1.27,15.32,7.65c1.08-2.05,1.87-4.06,2.36-6.01.5-1.95.61-3.65.34-5.11-.28-1.46-1.07-2.53-2.39-3.18-1.82-.91-3.88-.73-6.18.53-2.3,1.26-4.66,3.93-7.07,8.02l.03.41c-.34.57-.7,1.2-1.09,1.88-.39.68-.76,1.36-1.1,2.03-1.46,2.93-2.24,5.61-2.35,8.04-.11,2.44.31,4.51,1.25,6.23.94,1.72,2.16,2.94,3.64,3.68,1.15.57,2.35.95,3.61,1.13,1.26.18,2.59.08,4.01-.31,1.41-.38,2.88-1.14,4.4-2.29l1.01,1.15c-1.23,1.19-2.72,2.21-4.48,3.08-1.76.87-3.68,1.33-5.76,1.37-2.09.04-4.23-.49-6.44-1.59-2.97-1.48-5.22-3.44-6.76-5.88-1.54-2.43-2.28-5.2-2.21-8.29.06-3.09.95-6.36,2.66-9.79,1.89-3.77,4.11-6.69,6.67-8.74,2.56-2.06,5.31-3.24,8.24-3.55,2.94-.31,5.87.27,8.79,1.73Z"/>
      <path class="cls-1" d="M413.9,70.4l-37.21,17.12,5.13,3.82c1.52,1.13,3.09,1.83,4.72,2.1,1.63.27,3.35-.01,5.16-.85,1.81-.84,3.65-2.36,5.53-4.57l1.31.98c-1.89,2.54-3.46,4.69-4.69,6.42-1.24,1.74-2.23,3.19-2.97,4.35-1.65-1.35-3.38-2.72-5.17-4.12-1.8-1.4-3.59-2.76-5.37-4.09-1.94-1.44-3.93-2.88-5.96-4.31-2.04-1.43-4-2.78-5.88-4.07l37.21-17.12-5.24-3.9c-1.63-1.22-3.27-1.95-4.92-2.2-1.65-.25-3.32.07-5.01.96-1.7.89-3.51,2.42-5.42,4.6l-1.25-.93c1.92-2.58,3.49-4.73,4.7-6.43,1.2-1.7,2.2-3.15,2.97-4.35,1.61,1.32,3.32,2.68,5.11,4.08s3.61,2.77,5.43,4.13c1.9,1.42,3.87,2.84,5.9,4.27,2.04,1.43,4.02,2.8,5.94,4.11Z"/>
      <path class="cls-1" d="M431.63,86.92l-21.79,21.82c-1.41,1.41-2.09,2.64-2.03,3.7.05,1.05.73,2.24,2.04,3.54l-1.06,1.05c-.54-.6-1.37-1.52-2.51-2.76-1.14-1.23-2.33-2.48-3.57-3.71-1.18-1.18-2.41-2.35-3.69-3.54-1.29-1.19-2.26-2.07-2.89-2.63l1.05-1.06c1.31,1.31,2.49,1.99,3.55,2.04,1.06.05,2.28-.63,3.69-2.04l15.77-15.79c1.5-1.51,2.36-2.87,2.59-4.1.22-1.22-.38-2.54-1.78-3.94l1.05-1.06c.97,1.18,1.96,2.26,2.97,3.26,1.14,1.14,2.26,2.15,3.37,3.01,1.11.87,2.2,1.61,3.27,2.21ZM440.72,71.79c1.04,1.03,1.59,2.23,1.64,3.59.05,1.35-.41,2.52-1.38,3.49-.97.97-2.13,1.43-3.49,1.38-1.36-.05-2.56-.59-3.59-1.63-1.04-1.04-1.59-2.23-1.64-3.59s.41-2.52,1.38-3.49c.97-.97,2.13-1.43,3.5-1.39,1.35.05,2.55.59,3.59,1.63Z"/>
      <path class="cls-1" d="M457.54,118.26c.98,1.5,1.6,2.91,1.86,4.22.26,1.3.23,2.5-.07,3.6-.29,1.21-.97,2.36-2.03,3.45-1.07,1.09-2.56,2.26-4.46,3.5l-15.96,10.4c-1.67,1.08-2.59,2.14-2.77,3.16-.18,1.03.22,2.29,1.2,3.8l-1.25.81c-.4-.7-1.03-1.77-1.89-3.23-.86-1.45-1.72-2.84-2.6-4.19-.88-1.35-1.77-2.65-2.67-3.9-.9-1.25-1.59-2.2-2.07-2.85l1.25-.81c.86,1.31,1.75,2.04,2.7,2.19.95.15,2.25-.32,3.92-1.41l17.62-11.48c1.15-.75,2.14-1.51,2.97-2.27.83-.77,1.35-1.63,1.54-2.58.2-.95-.1-2.04-.9-3.27-.91-1.39-2.13-2.36-3.68-2.91-1.54-.55-3.25-.68-5.13-.39-1.88.29-3.71,1.01-5.5,2.18l-14.35,9.35c-1.67,1.08-2.62,2.1-2.85,3.04-.23.95.07,2.05.89,3.32l-1.25.81c-.38-.66-.95-1.64-1.72-2.95-.77-1.31-1.59-2.64-2.47-3.99s-1.82-2.74-2.84-4.17c-1.02-1.43-1.78-2.49-2.29-3.18l1.25-.81c1.01,1.55,2.03,2.46,3.05,2.72,1.02.27,2.36-.14,4.03-1.23l18.7-12.18c1.79-1.16,2.91-2.32,3.38-3.47.47-1.15.16-2.56-.93-4.23l1.25-.81c.71,1.35,1.46,2.62,2.23,3.81.88,1.35,1.77,2.57,2.67,3.65.9,1.08,1.82,2.03,2.74,2.84l-6.49,4.23c3.05-.52,5.66-.26,7.82.8s3.86,2.54,5.1,4.44ZM469.21,136.18c.99,1.51,1.6,2.92,1.86,4.22.25,1.3.23,2.5-.07,3.61-.29,1.2-.97,2.35-2.03,3.45-1.07,1.09-2.56,2.26-4.46,3.5l-15.96,10.39c-1.66,1.09-2.59,2.15-2.75,3.2-.17,1.04.25,2.34,1.26,3.89l-1.25.81c-.4-.7-1.03-1.78-1.9-3.25-.87-1.47-1.76-2.9-2.67-4.29-.88-1.35-1.77-2.65-2.67-3.9-.9-1.25-1.59-2.2-2.07-2.85l1.25-.81c.85,1.31,1.75,2.04,2.69,2.19.94.15,2.25-.32,3.92-1.41l17.63-11.48c1.15-.75,2.14-1.51,2.97-2.27s1.34-1.63,1.53-2.61-.13-2.09-.96-3.36c-.9-1.38-2.14-2.35-3.7-2.88-1.57-.54-3.29-.66-5.16-.37-1.87.29-3.7,1.02-5.49,2.18l4.79-3.46c3.32-.63,6.04-.36,8.17.82,2.13,1.19,3.83,2.75,5.09,4.69Z"/>
      <path class="cls-1" d="M492.01,194.43l-42.45,9.78c-2.04.47-3.26,1.36-3.69,2.67-.43,1.31-.41,2.99.06,5.02l-1.46.34c-.2-1.07-.48-2.56-.85-4.47-.37-1.91-.8-3.95-1.3-6.12-.35-1.52-.73-3.01-1.14-4.48-.42-1.46-.73-2.58-.96-3.35l1.46-.34c.37,1.62.95,2.69,1.73,3.22.78.52,2.02.59,3.73.2l34.84-8.02c2.07-.48,3.53-1.18,4.36-2.1.84-.92,1.03-2.35.58-4.29l1.46-.34c.2,1.51.46,2.96.78,4.34.35,1.53.77,2.96,1.25,4.31.48,1.35,1.01,2.56,1.61,3.64ZM494.76,205.4c.55,2.4.39,4.71-.49,6.93s-2.45,4.17-4.74,5.87c-2.29,1.69-5.32,2.97-9.11,3.85-2.77.64-5.47.92-8.08.84-2.62-.08-5.01-.56-7.19-1.45-2.18-.88-4.03-2.19-5.57-3.93-1.54-1.74-2.63-3.97-3.26-6.69-.47-2.03-.44-3.92.08-5.67.52-1.75,1.38-3.1,2.57-4.05l1.13.47c-1.01.86-1.77,1.93-2.26,3.18-.49,1.26-.55,2.69-.17,4.31.55,2.4,1.76,4.11,3.62,5.11,1.86,1.01,4.18,1.48,6.96,1.42,2.78-.05,5.86-.47,9.23-1.25,3.79-.87,6.78-1.85,8.99-2.95,2.2-1.09,3.72-2.31,4.55-3.67.83-1.36,1.07-2.82.7-4.39-.48-2.08-1.74-3.77-3.79-5.07-2.05-1.3-4.78-1.76-8.19-1.36l1.3-1.03c3.6-.2,6.61.58,9.03,2.33,2.42,1.75,3.99,4.15,4.69,7.2Z"/>
      <path class="cls-1" d="M499.99,253.65c.05,1.37-.18,2.55-.71,3.55-.53.99-1.22,1.76-2.07,2.29-.86.53-1.83.82-2.92.86-1.38.06-2.56-.31-3.56-1.1-1.01-.79-1.54-1.87-1.59-3.24-.05-1.19.26-2.2.94-3.06.68-.86,1.63-1.31,2.86-1.36,1.04-.04,1.94.19,2.7.71.76.51,1.36,1.12,1.82,1.81.36-.49.5-1.06.43-1.72-.09-1.28-.56-2.45-1.38-3.5-.83-1.06-1.86-1.94-3.09-2.65-1.24-.71-2.55-1.24-3.94-1.62-1.39-.37-2.68-.53-3.86-.48l-16.33.66c-2.32.1-3.84.8-4.57,2.11s-1.05,3.1-.95,5.38l-1.49.06c0-1.09,0-2.64-.01-4.66,0-2.01-.07-4.13-.15-6.36-.07-1.7-.17-3.4-.32-5.11-.14-1.7-.26-3-.34-3.9l1.49-.06c.07,1.84.48,3.14,1.22,3.89.74.76,2.11,1.09,4.1,1.01l22.3-.91c2.13-.09,3.69-.51,4.68-1.26s1.44-2.12,1.36-4.11l1.49-.06c-.08,1.52-.09,2.99-.03,4.41.07,1.61.21,3.11.43,4.5.22,1.39.53,2.67.91,3.84l-8.16.33c1.4.51,2.75,1.22,4.07,2.11,1.32.89,2.42,1.99,3.3,3.28.88,1.29,1.36,2.74,1.42,4.35Z"/>
      <path class="cls-1" d="M460.69,275.31c.26-1.97.86-3.61,1.8-4.92.94-1.31,2.11-2.23,3.52-2.76,1.41-.53,2.96-.68,4.65-.46,2.06.27,3.68.97,4.85,2.08,1.16,1.11,2.05,2.46,2.65,4.05.6,1.59,1.06,3.25,1.38,4.99.32,1.74.63,3.38.92,4.92.3,1.55.71,2.84,1.24,3.89.53,1.05,1.33,1.65,2.41,1.79l4.79.64c1.69.23,3.07.14,4.16-.27s1.89-1.04,2.44-1.9c.54-.86.9-1.92,1.07-3.19.14-1.08.15-2.25,0-3.51-.14-1.26-.61-2.31-1.41-3.13-.42,1-1.09,1.78-2,2.35-.91.57-1.98.78-3.2.61-1.31-.18-2.29-.75-2.92-1.72-.64-.97-.87-2.11-.69-3.43.19-1.46.79-2.47,1.8-3.05,1.01-.58,2.13-.8,3.34-.63,1.27.17,2.26.62,2.97,1.36.72.74,1.36,1.68,1.93,2.8.6,1.23,1.04,2.76,1.32,4.59.28,1.83.28,3.82,0,5.98-.27,2.02-.72,3.74-1.37,5.16-.64,1.42-1.52,2.56-2.64,3.41-1.24,1.03-2.69,1.63-4.36,1.78-1.67.16-3.65.09-5.95-.22l-19.45-2.59c-1.17-.15-2.03-.11-2.56.12-.54.24-.85.71-.94,1.42-.06.47,0,.95.17,1.42s.46,1.05.85,1.72l-1.29.55c-.67-1.09-1.17-2.18-1.51-3.25-.33-1.07-.4-2.38-.19-3.93.2-1.5.6-2.69,1.19-3.57.6-.88,1.37-1.48,2.32-1.8.95-.33,2.08-.41,3.4-.23-1.81-1.49-3.12-3.14-3.92-4.97-.81-1.83-1.07-3.87-.76-6.12ZM463.62,279.15c-.18,1.31.03,2.59.63,3.85.6,1.25,1.58,2.47,2.95,3.65l14.02,1.87c-.68-.62-1.23-1.46-1.63-2.51s-.82-2.19-1.23-3.39c-.42-1.2-.92-2.35-1.51-3.46-.59-1.11-1.41-2.06-2.45-2.87-1.04-.81-2.43-1.33-4.16-1.56-1.83-.24-3.34.04-4.52.83-1.18.8-1.88,2-2.09,3.59Z"/>
      <path class="cls-1" d="M473.34,363.76l-1.31-.55c.22-.89.11-1.84-.3-2.86-.42-1.03-1.38-2.2-2.87-3.55l-23.46-21.99c.15-.35.3-.71.45-1.08.15-.37.3-.73.45-1.08l34.03.22c2,.01,3.32-.24,3.98-.77.66-.52,1.08-1.02,1.29-1.5l1.38.58c-.53,1.01-1.05,2.07-1.59,3.15-.53,1.09-1.08,2.31-1.65,3.66-.57,1.35-1.13,2.8-1.7,4.34-.56,1.53-1.07,2.98-1.54,4.32l-1.38-.58c.44-1.05.76-2.01.97-2.87.21-.86.05-1.55-.49-2.05-.53-.5-1.68-.81-3.43-.93l-23.69-.44-.3-.74,15.07,14.24c1.48,1.39,2.78,2.24,3.9,2.55,1.12.32,2.13.2,3-.36.88-.55,1.67-1.56,2.38-3.01l1.31.55c-.35.72-.68,1.4-.96,2.02-.29.62-.57,1.23-.84,1.81-.27.58-.54,1.2-.81,1.86-.4.96-.76,1.88-1.07,2.75-.31.87-.59,1.64-.82,2.31Z"/>
      <path class="cls-1" d="M462.64,383.04l-26.39-15.96c-1.7-1.03-3.06-1.4-4.07-1.09-1.01.3-2,1.24-2.95,2.82l-1.28-.77c.46-.67,1.16-1.7,2.09-3.1.93-1.4,1.85-2.85,2.76-4.35.86-1.42,1.71-2.9,2.56-4.43.85-1.54,1.47-2.69,1.87-3.44l1.28.77c-.95,1.58-1.33,2.89-1.13,3.93.21,1.04,1.16,2.07,2.86,3.1l19.1,11.55c1.82,1.1,3.35,1.61,4.6,1.53,1.24-.08,2.37-.97,3.4-2.67l1.28.77c-.91,1.22-1.73,2.45-2.47,3.66-.83,1.38-1.54,2.71-2.12,3.99-.58,1.28-1.03,2.51-1.37,3.7ZM479.51,388.26c-.76,1.26-1.8,2.07-3.1,2.45-1.31.37-2.55.2-3.72-.51-1.18-.71-1.9-1.73-2.18-3.06-.27-1.33-.03-2.62.73-3.88.76-1.26,1.79-2.07,3.1-2.45,1.3-.37,2.54-.2,3.72.51,1.18.71,1.9,1.73,2.18,3.06.27,1.33.03,2.62-.73,3.88Z"/>
      <path class="cls-1" d="M418.7,379.78c1.28-1.53,2.65-2.6,4.15-3.21,1.49-.61,2.97-.77,4.45-.46,1.47.3,2.86,1,4.18,2.09,1.6,1.33,2.6,2.78,3,4.34s.43,3.17.09,4.84c-.34,1.66-.83,3.31-1.49,4.96-.66,1.64-1.27,3.19-1.84,4.66-.57,1.46-.91,2.78-1.02,3.96-.11,1.17.25,2.1,1.09,2.8l3.72,3.09c1.31,1.09,2.53,1.75,3.66,1.98,1.13.23,2.16.13,3.07-.31.92-.44,1.79-1.15,2.6-2.13.7-.84,1.32-1.83,1.87-2.97.55-1.14.7-2.28.47-3.4-.88.62-1.87.93-2.94.93s-2.09-.4-3.04-1.18c-1.02-.85-1.54-1.85-1.57-3.01-.02-1.16.39-2.25,1.23-3.27.94-1.13,1.99-1.68,3.16-1.63,1.16.04,2.22.46,3.17,1.25.98.81,1.58,1.73,1.79,2.73.21,1.01.26,2.14.14,3.4-.14,1.36-.58,2.89-1.31,4.58-.74,1.7-1.8,3.39-3.19,5.07-1.3,1.56-2.6,2.78-3.9,3.64-1.3.86-2.65,1.35-4.05,1.49-1.59.21-3.14-.05-4.64-.81-1.5-.76-3.14-1.87-4.93-3.36l-15.08-12.53c-.91-.76-1.66-1.18-2.24-1.26-.58-.08-1.1.15-1.55.7-.3.36-.51.8-.61,1.3-.1.5-.17,1.13-.2,1.91l-1.38-.22c.02-1.28.17-2.46.45-3.55.29-1.09.93-2.23,1.93-3.43.97-1.17,1.94-1.96,2.91-2.39.97-.43,1.94-.53,2.93-.3.97.23,1.98.77,3,1.61-.74-2.22-.97-4.32-.68-6.29.28-1.98,1.16-3.84,2.61-5.59ZM419.15,384.59c-.85,1.02-1.35,2.22-1.51,3.59-.16,1.38.03,2.93.56,4.67l10.88,9.04c-.25-.89-.27-1.88-.05-3,.22-1.11.47-2.29.76-3.53.29-1.24.48-2.49.57-3.74s-.1-2.5-.55-3.73c-.45-1.24-1.35-2.42-2.7-3.54-1.43-1.18-2.84-1.75-4.27-1.7-1.43.05-2.66.69-3.68,1.93Z"/>
      <path class="cls-1" d="M383.02,398.59c2.04-1.69,4.1-3.06,6.16-4.09,2.07-1.04,3.96-1.57,5.67-1.62,1.72-.04,3.11.58,4.17,1.86,1,1.2,1.37,2.68,1.1,4.44-.26,1.76-1.13,3.65-2.6,5.66l-1.11-.56c.49-.96.65-1.99.46-3.06-.18-1.08-.64-2.05-1.36-2.93-1.33-1.61-3.11-2.23-5.33-1.86-2.22.36-4.55,1.56-6.99,3.58-1.64,1.36-3.03,2.86-4.16,4.51-1.13,1.64-1.77,3.32-1.91,5.04-.14,1.72.4,3.32,1.64,4.82.96,1.17,2.19,1.8,3.68,1.89,1.49.09,3.48-.89,5.96-2.95l3.83-3.17c1.28-1.06,2.55-1.93,3.83-2.62,1.28-.69,2.52-1,3.72-.92,1.2.08,2.29.7,3.26,1.87,1.09,1.32,1.57,3.01,1.44,5.08-.13,2.07-1.02,4.75-2.67,8.02l-1.06.05c.57-1.46,1.02-2.83,1.34-4.11.32-1.28.12-2.36-.6-3.24-.97-1.16-2.3-1.05-3.97.34l-6.51,5.4c-1.71,1.42-3.45,2.48-5.21,3.17-1.77.69-3.48.89-5.13.61-1.66-.29-3.15-1.24-4.48-2.84-1.42-1.72-2.2-3.79-2.34-6.23-.14-2.43.51-5.04,1.97-7.81,1.45-2.78,3.86-5.55,7.21-8.34ZM403.35,440.27l1.3-.43c.54,1.7.59,3.54.14,5.51-.45,1.97-1.36,3.52-2.71,4.64-1.02.85-2.07,1.23-3.14,1.17s-2.03-.61-2.88-1.63c-.94-1.13-1.3-2.18-1.09-3.15.21-.97.64-1.73,1.3-2.28.59-.49,1.29-.73,2.11-.74s1.63.39,2.41,1.19c.78.8,1.42,2.12,1.92,3.99l-.78.28c.97-1.8,1.53-3.29,1.68-4.49.14-1.2.05-2.55-.28-4.06ZM400.88,420.81c1.86-1.54,3.81-2.65,5.84-3.32,2.03-.66,4.01-.73,5.95-.18,1.94.55,3.73,1.83,5.4,3.84,1.66,2,2.59,4.02,2.79,6.04.2,2.02-.22,3.97-1.25,5.84-1.03,1.87-2.48,3.58-4.34,5.12-1.94,1.6-3.9,2.72-5.89,3.36-1.99.63-3.97.67-5.91.1-1.95-.57-3.75-1.85-5.42-3.86-1.66-2-2.59-4.01-2.77-6.01-.19-2,.22-3.92,1.22-5.77,1-1.84,2.46-3.56,4.39-5.16ZM401.7,421.79c-1.28,1.05-1.81,2.42-1.59,4.09.22,1.67,1.53,3.96,3.95,6.88,2.42,2.92,4.44,4.65,6.05,5.19,1.61.54,3.06.28,4.34-.78,1.2-1,1.71-2.35,1.52-4.07-.19-1.72-1.5-4.04-3.92-6.96-2.42-2.92-4.45-4.62-6.08-5.11-1.64-.49-3.06-.24-4.26.76Z"/>
      <path class="cls-1" d="M375.29,465.78c-3.64,2.04-7.1,2.55-10.4,1.52-3.29-1.03-6.28-3.92-8.94-8.67l21.38-12,.78,1.11-14.93,8.38c1.09,2.05,2.31,3.82,3.64,5.33,1.34,1.5,2.69,2.55,4.05,3.15,1.36.59,2.69.53,3.97-.19,1.77-1,2.79-2.8,3.03-5.41s-.64-6.06-2.68-10.35l-.36-.21c-.28-.6-.59-1.26-.93-1.96s-.7-1.39-1.07-2.05c-1.6-2.85-3.38-5-5.34-6.46-1.96-1.46-3.91-2.27-5.86-2.46-1.95-.18-3.65.13-5.09.95-1.12.62-2.1,1.41-2.96,2.35-.86.94-1.52,2.1-2,3.48-.48,1.38-.66,3.02-.58,4.93l-1.51.2c-.29-1.68-.31-3.5-.04-5.44.27-1.95.97-3.79,2.1-5.54,1.14-1.75,2.78-3.23,4.93-4.43,2.89-1.62,5.78-2.39,8.65-2.3,2.88.1,5.59,1.04,8.11,2.83,2.52,1.79,4.73,4.36,6.61,7.7,2.06,3.67,3.23,7.15,3.49,10.43.26,3.27-.3,6.21-1.7,8.81-1.39,2.6-3.51,4.7-6.36,6.3Z"/>
      <path class="cls-1" d="M308.09,491.32c-1.74.48-3.26.65-4.58.5-1.32-.15-2.46-.53-3.42-1.15-1.06-.63-1.95-1.63-2.67-2.97-.72-1.35-1.39-3.12-2-5.31l-5.12-18.34c-.53-1.92-1.28-3.11-2.22-3.59-.94-.47-2.3-.46-4.09.03l-.4-1.43c.79-.17,2.01-.45,3.68-.84s3.29-.81,4.89-1.26c1.55-.43,3.06-.89,4.53-1.37,1.46-.48,2.57-.86,3.34-1.12l.4,1.44c-1.51.42-2.47,1.06-2.9,1.92-.43.86-.37,2.24.17,4.16l5.66,20.26c.37,1.32.8,2.5,1.28,3.52.48,1.02,1.16,1.77,2.03,2.24.87.47,2.03.5,3.49.09,1.6-.45,2.89-1.34,3.87-2.66.98-1.34,1.62-2.94,1.9-4.81.29-1.88.14-3.84-.43-5.89l1.86,5.61c-.39,3.35-1.47,5.87-3.24,7.55s-3.78,2.82-6.01,3.45ZM328.7,485.56c-1.74.49-3.26.65-4.59.5-1.32-.15-2.46-.53-3.42-1.15-1.06-.64-1.95-1.63-2.67-2.98s-1.39-3.12-2-5.31l-5.12-18.34c-.54-1.92-1.26-3.12-2.19-3.59-.92-.48-2.25-.48-3.98,0l-.4-1.44c.79-.17,2-.45,3.64-.83s3.24-.79,4.78-1.23c1.55-.43,3.06-.89,4.53-1.37s2.57-.86,3.34-1.12l.4,1.44c-1.51.42-2.47,1.06-2.9,1.92-.43.85-.37,2.24.17,4.16l5.65,20.26c.37,1.32.8,2.49,1.28,3.51.48,1.02,1.14,1.77,1.99,2.25.84.48,1.97.52,3.39.12,1.59-.45,2.89-1.32,3.88-2.63.99-1.31,1.63-2.9,1.91-4.78.29-1.87.14-3.84-.43-5.89l-4.61-16.5c-.53-1.92-1.22-3.13-2.05-3.63-.83-.51-1.97-.55-3.43-.15l-.4-1.43c.74-.16,1.85-.41,3.33-.75,1.48-.34,2.99-.73,4.54-1.16,1.55-.43,3.16-.92,4.84-1.46,1.67-.54,2.9-.95,3.72-1.22l.4,1.44c-1.78.5-2.95,1.19-3.51,2.09-.57.89-.58,2.3-.04,4.22l6.01,21.49c.57,2.05,1.34,3.47,2.3,4.27.96.79,2.4.92,4.32.38l.4,1.44c-1.5.27-2.93.6-4.3.98-1.55.43-2.98.92-4.28,1.46-1.31.53-2.48,1.12-3.53,1.76l-2.08-7.46c-.42,3.07-1.46,5.47-3.11,7.21-1.65,1.74-3.57,2.92-5.76,3.53Z"/>
      <path class="cls-1" d="M273.43,466.5c-1.09.07-2-.08-2.74-.46-.74-.38-1.37-.9-1.89-1.58-.57-.72-.98-1.55-1.2-2.49-.23-.93-.37-1.78-.43-2.53-.16-2.31.29-4.48,1.33-6.5,1.05-2.02,2.79-3.7,5.21-5.06l.73,1.23c-1.38.72-2.54,1.74-3.49,3.09-.95,1.35-1.43,2.69-1.43,4.01,0,.72.09,1.37.28,1.98.8-.86,1.81-1.34,3.04-1.42,1.37-.09,2.56.25,3.56,1.04,1,.78,1.56,1.93,1.66,3.45.1,1.46-.3,2.68-1.21,3.65-.91.96-2.05,1.5-3.41,1.59Z"/>
      <path class="cls-1" d="M209.29,490.85c-2.42-.46-4.47-1.54-6.15-3.23-1.68-1.69-2.84-3.93-3.47-6.7-.63-2.77-.58-6.07.14-9.88.53-2.79,1.36-5.37,2.48-7.74,1.12-2.37,2.53-4.37,4.21-6,1.68-1.63,3.63-2.81,5.84-3.53,2.21-.71,4.69-.81,7.44-.29,2.05.39,3.76,1.18,5.16,2.35,1.39,1.18,2.28,2.51,2.68,3.98l-.89.85c-.38-1.28-1.05-2.39-2-3.35-.95-.96-2.24-1.58-3.88-1.89-2.42-.46-4.46-.04-6.13,1.26-1.66,1.3-3.03,3.23-4.1,5.8-1.06,2.57-1.92,5.56-2.56,8.96-.73,3.82-1.03,6.95-.92,9.41.11,2.46.62,4.34,1.53,5.65.91,1.3,2.16,2.11,3.74,2.41,2.1.4,4.15-.08,6.17-1.43,2.02-1.35,3.53-3.67,4.54-6.95l.42,1.6c-1.26,3.38-3.18,5.82-5.76,7.34-2.58,1.51-5.4,1.97-8.47,1.39ZM220.43,492.74l8.12-42.8c.39-2.04.07-3.53-.96-4.45s-2.57-1.57-4.62-1.96l.28-1.46c1.06.25,2.54.59,4.44,1.02,1.9.43,3.93.85,6.13,1.27,1.54.29,3.06.54,4.56.76,1.5.22,2.65.37,3.45.48l-.28,1.46c-1.63-.31-2.84-.22-3.63.28-.79.5-1.36,1.61-1.68,3.34l-6.67,35.12c-.39,2.1-.34,3.71.17,4.84.51,1.13,1.74,1.89,3.69,2.26l-.28,1.46c-1.46-.42-2.9-.77-4.29-1.03-1.54-.29-3.02-.49-4.45-.59-1.43-.1-2.76-.1-3.98,0Z"/>
      <path class="cls-1" d="M167.59,478.05c-2.95-1.19-5.3-2.87-7.09-5.03-1.78-2.16-2.82-4.83-3.11-8.01-.29-3.19.43-6.91,2.16-11.17,1.73-4.26,3.81-7.42,6.23-9.47,2.42-2.06,5.02-3.23,7.79-3.51,2.77-.28,5.63.18,8.57,1.37,2.9,1.18,5.26,2.84,7.1,5,1.83,2.15,2.89,4.81,3.17,7.96.28,3.15-.45,6.86-2.18,11.12-1.73,4.25-3.8,7.43-6.21,9.52-2.41,2.09-5.03,3.28-7.85,3.56-2.82.28-5.69-.16-8.58-1.34ZM168.12,476.74c2.28.93,4.68.38,7.19-1.64,2.51-2.03,4.96-5.98,7.35-11.86,2.39-5.88,3.38-10.4,2.98-13.56-.4-3.15-1.75-5.2-4.03-6.12-2.24-.91-4.61-.38-7.12,1.59-2.52,1.97-4.97,5.89-7.36,11.78-2.39,5.88-3.38,10.43-2.97,13.63.41,3.21,1.73,5.27,3.97,6.18Z"/>
      <path class="cls-1" d="M121.81,453.6c-1.16-.74-2-1.6-2.51-2.6-.51-1-.75-2.01-.7-3.01.05-1.01.37-1.97.95-2.89.74-1.16,1.71-1.93,2.93-2.3,1.22-.38,2.41-.2,3.57.54,1,.63,1.66,1.47,1.98,2.52s.15,2.09-.51,3.13c-.56.88-1.26,1.48-2.12,1.81-.85.33-1.7.49-2.53.46.2.58.59,1.02,1.18,1.34,1.11.65,2.33.93,3.67.85,1.34-.07,2.65-.42,3.94-1.03,1.29-.61,2.48-1.39,3.57-2.32,1.1-.93,1.97-1.89,2.6-2.89l8.76-13.8c1.24-1.96,1.54-3.61.87-4.96-.66-1.34-1.95-2.63-3.87-3.85l.8-1.26c.9.62,2.18,1.5,3.83,2.64,1.67,1.14,3.43,2.31,5.32,3.5,1.44.91,2.9,1.8,4.38,2.65,1.48.85,2.61,1.5,3.39,1.95l-.8,1.26c-1.56-.99-2.86-1.39-3.9-1.21-1.04.18-2.09,1.11-3.16,2.79l-11.96,18.84c-1.15,1.8-1.69,3.32-1.63,4.56.05,1.24.92,2.39,2.6,3.46l-.8,1.26c-1.2-.93-2.4-1.78-3.61-2.54-1.36-.86-2.67-1.59-3.94-2.2-1.27-.61-2.49-1.09-3.67-1.45l4.38-6.9c-1.21.85-2.57,1.57-4.05,2.14-1.48.57-3.01.85-4.57.84-1.57-.01-3.03-.45-4.39-1.31Z"/>
      <path class="cls-1" d="M66.31,428.55c-.99-1.03-1.72-2.06-2.2-3.11-.48-1.05-.8-2.09-.94-3.13-.05-.87.07-1.74.35-2.61.29-.86.77-1.62,1.46-2.28.86-.82,1.84-1.23,2.97-1.22,1.12,0,2.11.46,2.96,1.35.85.89,1.3,1.9,1.34,3.04.04,1.14-.41,2.17-1.37,3.09-.79.75-1.64,1.16-2.57,1.23-.92.07-1.84-.18-2.77-.74-.18.37-.18.83,0,1.38.17.56.57,1.16,1.2,1.81.72.75,1.49,1.25,2.31,1.48.82.24,1.63.26,2.43.08,1.01-.24,2.22-.92,3.61-2.04,1.4-1.11,3.41-2.93,6.05-5.45l2.41-2.31-5.26-5.49,1.02-.99,5.26,5.49,20.11-19.28c1.68-1.61,2.34-3.15,2.01-4.63-.34-1.48-1.28-3.02-2.82-4.63l1.08-1.03c.76.85,1.82,2.05,3.19,3.58,1.37,1.54,2.86,3.15,4.47,4.82,1.15,1.2,2.31,2.36,3.49,3.49,1.18,1.13,2.09,1.99,2.71,2.57l-1.08,1.03c-1.28-1.33-2.45-2.03-3.5-2.11-1.05-.07-2.3.58-3.74,1.96l-20.62,19.77,3.74,3.9-1.03.99-3.74-3.9c-2.02,1.93-3.79,3.46-5.32,4.56-1.53,1.11-2.98,1.92-4.35,2.45-1.37.53-2.76.81-4.16.84-1.44,0-2.93-.32-4.48-.97-1.54-.65-2.95-1.65-4.23-2.98Z"/>
      <path class="cls-1" d="M95.79,376.13c1.14,1.63,1.81,3.25,2,4.85.19,1.6-.05,3.07-.73,4.41-.68,1.34-1.72,2.5-3.12,3.48-1.71,1.19-3.36,1.77-4.98,1.75-1.61-.03-3.17-.43-4.69-1.19-1.52-.76-2.98-1.68-4.39-2.74-1.41-1.07-2.75-2.07-4.01-3-1.26-.94-2.45-1.61-3.55-2.03s-2.1-.31-2.99.31l-3.96,2.77c-1.4.98-2.36,1.98-2.88,3.01-.52,1.03-.7,2.04-.51,3.05.18,1,.64,2.03,1.37,3.07.62.89,1.41,1.76,2.37,2.59.96.84,2.01,1.28,3.15,1.35-.36-1.02-.4-2.05-.12-3.08.29-1.04.93-1.91,1.94-2.62,1.09-.76,2.2-1,3.32-.72,1.13.28,2.07.97,2.83,2.06.84,1.2,1.09,2.36.74,3.47-.35,1.11-1.03,2.02-2.04,2.73-1.05.73-2.08,1.07-3.11,1-1.02-.06-2.13-.31-3.31-.76-1.27-.5-2.63-1.32-4.07-2.48s-2.79-2.63-4.04-4.42c-1.17-1.67-1.99-3.24-2.48-4.73-.49-1.48-.61-2.91-.36-4.3.21-1.59.88-3.02,2-4.27,1.12-1.25,2.64-2.54,4.54-3.86l16.07-11.24c.97-.68,1.57-1.28,1.8-1.82.23-.54.14-1.1-.26-1.68-.27-.39-.63-.7-1.09-.93-.45-.24-1.05-.47-1.79-.7l.58-1.27c1.23.35,2.33.81,3.31,1.38.97.57,1.9,1.49,2.8,2.77.87,1.24,1.38,2.39,1.54,3.44s0,2.01-.49,2.9c-.48.89-1.26,1.71-2.35,2.47,2.34-.13,4.42.2,6.25,1,1.83.8,3.4,2.13,4.7,4ZM91.04,375.29c-.76-1.09-1.78-1.89-3.07-2.4-1.29-.52-2.84-.75-4.65-.7l-11.59,8.11c.92,0,1.89.24,2.9.74s2.09,1.06,3.2,1.66,2.27,1.12,3.46,1.53c1.19.42,2.43.57,3.74.46,1.32-.11,2.69-.66,4.13-1.67,1.51-1.06,2.44-2.28,2.76-3.67.33-1.39.03-2.74-.89-4.06Z"/>
      <path class="cls-1" d="M33.4,339.98l1.29-.6c.51.76,1.28,1.32,2.32,1.7,1.04.38,2.56.47,4.56.27l32.06-2.5c.16.34.33.7.5,1.06.17.36.34.72.49,1.06l-23.11,24.99c-1.35,1.47-2.06,2.62-2.12,3.45-.05.84.02,1.49.24,1.96l-1.35.63c-.39-1.07-.81-2.17-1.25-3.3-.45-1.12-.98-2.35-1.6-3.69-.62-1.33-1.3-2.72-2.06-4.17-.75-1.45-1.47-2.81-2.15-4.05l1.35-.63c.48,1.03.97,1.92,1.47,2.65.49.74,1.11,1.08,1.84,1.03.74-.05,1.74-.69,2.99-1.9l16.3-17.21.76.28-20.68,1.53c-2.02.16-3.53.54-4.52,1.16-.99.62-1.58,1.44-1.76,2.46-.18,1.02.03,2.28.62,3.78l-1.29.6c-.3-.76-.58-1.45-.85-2.08-.26-.63-.52-1.25-.77-1.84-.25-.59-.52-1.21-.82-1.85-.44-.95-.88-1.83-1.3-2.65-.43-.82-.82-1.54-1.16-2.16Z"/>
      <path class="cls-1" d="M25.03,314.84c-.8-3.07-.86-5.97-.19-8.69.67-2.72,2.19-5.14,4.58-7.28,2.39-2.13,5.81-3.77,10.25-4.92,4.45-1.15,8.22-1.36,11.32-.65,3.09.72,5.58,2.11,7.46,4.17,1.88,2.06,3.21,4.62,4.01,7.7.78,3.03.86,5.92.23,8.68-.63,2.76-2.13,5.19-4.5,7.29-2.37,2.11-5.78,3.73-10.22,4.88-4.45,1.15-8.24,1.38-11.35.69-3.11-.69-5.63-2.08-7.54-4.18-1.91-2.1-3.26-4.67-4.04-7.69ZM26.4,314.48c.62,2.39,2.49,3.99,5.61,4.79,3.12.81,7.76.42,13.9-1.17,6.15-1.59,10.37-3.49,12.66-5.69,2.29-2.21,3.13-4.51,2.51-6.89-.6-2.34-2.45-3.93-5.53-4.77-3.08-.85-7.69-.47-13.84,1.11-6.14,1.59-10.38,3.5-12.72,5.74-2.33,2.24-3.19,4.53-2.59,6.87Z"/>
      <path class="cls-1" d="M17.38,263.35c-.1-1.37.1-2.56.6-3.57.49-1.01,1.16-1.8,2-2.35.84-.56,1.8-.88,2.89-.96,1.37-.1,2.57.23,3.6.99,1.03.76,1.59,1.82,1.69,3.19.08,1.18-.2,2.21-.84,3.09-.65.88-1.59,1.36-2.81,1.45-1.04.08-1.95-.13-2.72-.62-.77-.49-1.39-1.08-1.87-1.75-.34.5-.47,1.08-.37,1.74.14,1.27.64,2.42,1.5,3.45.86,1.03,1.92,1.88,3.18,2.55,1.26.67,2.59,1.17,3.99,1.49,1.4.33,2.7.45,3.87.36l16.31-1.18c2.32-.17,3.81-.92,4.5-2.25.69-1.33.95-3.13.79-5.4l1.49-.11c.03,1.09.09,2.65.16,4.66.08,2.01.19,4.13.35,6.35.12,1.7.28,3.4.48,5.09.19,1.69.35,2.99.46,3.89l-1.49.11c-.13-1.84-.58-3.13-1.35-3.86-.77-.73-2.14-1.02-4.12-.88l-22.26,1.61c-2.13.15-3.67.62-4.63,1.41-.97.78-1.38,2.16-1.23,4.15l-1.49.11c.04-1.52,0-2.99-.11-4.41-.11-1.61-.3-3.1-.57-4.48-.26-1.38-.61-2.65-1.02-3.81l8.15-.59c-1.41-.47-2.79-1.13-4.14-1.99-1.34-.85-2.48-1.9-3.4-3.17-.92-1.26-1.44-2.7-1.56-4.31Z"/>
      <path class="cls-1" d="M.01,238.27c.07-1.14.54-2.08,1.39-2.84.85-.75,2.13-1.07,3.84-.96,1.89.12,4.17.44,6.85.94,2.68.51,5.59,1.09,8.76,1.74,3.16.66,6.51,1.27,10.03,1.86,3.52.58,7.11,1.02,10.74,1.3l-.08,1.27c-3.64-.23-7.25-.29-10.81-.16-3.57.13-6.97.31-10.19.55-3.22.24-6.19.46-8.91.64-2.72.18-5.02.21-6.91.09-1.7-.11-2.93-.59-3.68-1.45-.75-.85-1.09-1.85-1.01-2.98ZM46.74,241.28c.09-1.47.63-2.64,1.61-3.53.98-.89,2.18-1.28,3.6-1.19,1.37.09,2.49.63,3.35,1.64.86,1.01,1.25,2.24,1.15,3.7-.09,1.42-.63,2.58-1.61,3.5-.98.91-2.16,1.32-3.53,1.23-1.42-.09-2.55-.65-3.41-1.68-.86-1.03-1.24-2.25-1.15-3.67Z"/>
    </g>
  </g>
</svg>