<?xml version="1.0" encoding="UTF-8"?>
<svg id="Camada_2" data-name="Camada 2" xmlns="http://www.w3.org/2000/svg" viewBox="0 0 500 321.73">
  <defs>
    <style>
      .cls-1 {
        fill: #a78b6c;
        stroke-width: 0px;
      }
    </style>
  </defs>
  <g id="Xícara">
    <path id="_2_-_Xícara" data-name="2 - Xícara" class="cls-1" d="M419.62,53.68c-11.93-21.07-44.1-32.72-65.31-38.55C309.37,2.79,257.3-.69,210.86.11l-.88.02h-.02c-46.22.86-97.78,6.15-141.99,19.96C43.28,27.79-.54,45.58,0,77.31c0,.37.02.74.04,1.11,1.36,66.92,20.52,133.91,68.27,182.71,38.31,39.15,90.21,60.87,144.98,60.6,74.83-.36,140.53-40.86,177.18-105.34,142.14.15,139.52-162.3,29.14-162.71ZM288.87,271.29c-22.68,11.34-47.67,17.41-73.02,17.85-25.29.44-50.62-4.8-73.63-15.32-62.82-28.71-96.3-88.73-106.62-154.29,10.97,5.44,23,9.5,34.29,12.6,44.86,12.32,96.8,15.81,143.17,15.03h.33c46.44-.81,98.37-6.08,142.85-19.98,11.17-3.49,23.06-7.96,33.83-13.78-8.05,65.88-39.44,127.01-101.22,157.89ZM382.2,81.41c-10.31,6.67-23.82,11.56-35.49,15.21-41.54,12.97-90.5,17.79-133.86,18.54h-.14s-.09,0-.09,0c-43.3.74-92.35-2.36-134.25-13.87-11.79-3.24-25.46-7.65-35.99-13.97-2.83-1.69-10.31-6.66-10.38-10.56-.07-3.89,7.24-9.12,10.01-10.91,10.31-6.67,23.82-11.56,35.49-15.21,41.55-12.97,90.52-17.79,133.88-18.54h.19c43.3-.75,92.35,2.36,134.26,13.87,11.79,3.24,25.46,7.65,35.99,13.97,2.83,1.69,10.31,6.66,10.38,10.56.07,3.89-7.24,9.11-10.01,10.9ZM458.16,159.61c-12.41,16.62-32.67,23.5-52.75,25.07,12.19-31.57,17.81-65.33,18.65-99.13,17.39,1.13,32.98,9.56,40.24,26.55,6.73,15.73,4.01,33.9-6.15,47.51Z"/>
  </g>
</svg>