<?xml version="1.0" encoding="UTF-8"?>
<svg id="Camada_2" data-name="Camada 2" xmlns="http://www.w3.org/2000/svg" viewBox="0 0 600 488.83">
  <defs>
    <style>
      .cls-1 {
        fill: #fff;
      }

      .cls-1, .cls-2 {
        stroke-width: 0px;
      }

      .cls-2 {
        fill: #a78b6c;
      }
    </style>
  </defs>
  <g id="Rostinho_Belga" data-name="Rostinho Belga">
    <g id="_2_-_Rostinho_Belga" data-name="2 - Rostinho Belga">
      <path class="cls-2" d="M594.71,108.17c-4.76-4.41-9.81-8.53-14.34-13.16-23.17-23.67-42.6-49.94-68.59-70.58-12.86-10.21-30.75-9.26-45.86-2.84-17.22,7.31-34.68,14.27-52.85,18.86-9.89,2.5-15.84,2.75-25.85.54-9.82-2.17-19.67-4.61-29.78-4.84-24.86-.55-48.46,12.18-73.32,12.42-39.68.37-74.31-25.9-113.56-6.1-2.02,1.02-4.17,1.76-6.64,2.79-1.78-2.4-22.57-27.99-31.96-38.09-6.87-7.39-15.05-9.31-25.05-4.63C73.12,18.36,37.98,31.7,5.55,50.26c-1.46.84-2.95,1.71-3.99,3.04-2.06,2.66-1.79,6.45-.86,9.68,3.16,10.98,5.74,22.32,6.87,33.74,1.38,13.91.76,28.01,1.11,42.02.13,5.44.25,10.9.9,16.29.58,4.84,2.75,5.68,6.79,2.73,2.85-2.08,5.64-4.46,7.83-7.21,9.13-11.47,18.03-23.12,27-34.72,1.49-1.92,2.92-3.88,4.59-6.11,6.41,7.41,19.39,49.11,22.28,61.78.36,1.58.42,3.35.13,4.93-4.87,26.11-3.62,52.12.95,78.12,2.68,15.23,9.44,28.95,14.93,43.21,12.11,31.48,22.96,63.44,34.33,95.2,3.66,10.22,7.96,20.25,13.55,29.58,5.71,9.52,12.37,16.38,21.95,22.05,14.37,8.51,30.51,14.74,47.33,15.47,7.84,8.4,16.93,15.13,27.08,20,14.22,6.83,28.01,8.77,39.42,8.77s19.82-1.82,24.67-2.82c24.26-5,44.18-18.43,54.71-27.71h0c18.16-.33,32.91-8.06,44.66-22.27,8.37-10.12,14.07-21.78,19.42-33.66,6.03-13.37,12.22-26.67,18.38-39.98,8.51-18.41,18.02-36.4,25.07-55.45,6.7-18.11,11.62-36.9,14.24-56.04,3.73-27.25,2.66-55.02-3.08-81.92-.36-1.67-.37-3.93.48-5.25,4.66-7.21,23.58-30.94,30.77-33.48.76,5.17,1.27,9.9,2.17,14.56,1.11,5.74,2.02,11.61,3.98,17.08,2.48,6.94,7.87,8.37,14.03,4.43,1.94-1.24,3.67-2.79,5.57-4.1,11.39-7.82,22.68-15.77,34.23-23.34,8.75-5.74,17.95-10.81,26.74-16.49,8.12-5.24,8.15-7.54.93-14.24ZM84.45,149.55c-.44.06-.89.11-1.33.17-4.5-11.43-19.32-45.9-18.74-51.34.55-5.2,22.34-37.5,29.49-48.54,3.39-5.23,7.7-9.9,11.87-14.56,1.88-2.1,4.45-3.57,7.41-5.87.63,2.26,1.24,3.55,1.31,4.86.72,12.95,1.41,25.9,1.95,38.86.07,1.76-22.74,49.14-30.44,72.4-.45,1.36-1.02,2.69-1.53,4.03ZM299.93,474.03c-8.78,1.81-32.1,6.62-56.33-5-5.74-2.75-11.09-6.22-16.02-10.31,13.07-2.62,25.41-8.22,38.58-11.24,16.65-3.81,32.91-.2,48.89,4.58,7.7,2.3,15.49,3.94,23.38,4.97-9.42,6.75-22.32,13.66-38.52,17ZM470.73,146.18c-.79-2.83-1.35-4.81-1.89-6.79-5.33-19.42-10.92-38.73-20.17-56.77-.72-1.4-.43-4.32.59-5.45,7.71-8.55,15.54-17.01,23.72-25.11,4.22-4.18,5.99-3.85,8.74,1.06,11.47,20.47,17.95,42.73,23.65,66.15-12.06,9.75-22.57,18.05-34.65,26.92ZM579,122.96c-5.52,3.39-11.27,6.48-17.13,9.23-12.19,5.73-23.81,12.3-34.05,21.15-1.53,1.32-3.31,2.35-6.04,4.26-1.09-5.96-2.28-10.8-2.82-15.7-3.42-30.7-11.87-59.94-25.19-87.77-1.79-3.75-4.15-7.3-6.69-10.59-3.58-4.63-7.57-5.91-12.75-3.34-5.38,2.67-10.8,5.78-15.21,9.79-8.2,7.45-15.58,15.79-23.5,23.55-3.12,3.05-2.84,5.74-1.19,9.44,11.41,25.67,22.66,51.53,29.14,78.91,8.08,34.13,8.93,69.67,3.32,104.26-7.29,44.94-32.96,83.9-51.48,124.68-.93,2.05-1.85,4.09-2.78,6.14-3.1,6.86-6.55,13.61-10.44,20.04-10.14,16.78-25.31,25.81-44.73,27.65-15.07,1.43-30.16,2.47-44.52-4.04-10.89-4.93-18.43-10.91-24.71-20.43,2.31-1.72,4.82-3.22,7.35-4.53,7.41-3.85,15.46-6.72,21.91-12.02,6.45-5.3,11.11-13.99,8.64-21.96-3.5,3.51-7.5,6.53-11.83,8.94-4.25,2.36-9.46,4.14-13.87,2.11-3.89-1.79-6.02-6.1-6.89-10.29-.75-3.61-.77-7.46.56-10.9,1.33-3.44,4.16-6.41,7.73-7.35,1.71-.45,3.64-.39,5.13.57,1.49.96,2.35,2.98,1.64,4.6-.39.89-1.17,1.56-1.7,2.38-1.52,2.36-.57,5.74,1.6,7.53,2.17,1.78,5.2,2.18,7.98,1.78,8.47-1.22,14.89-9.51,15.34-18.05.44-8.54-4.3-16.82-11.06-22.06-6.76-5.24-15.3-7.75-23.81-8.68-6.06-.66-12.08-1.28-18.17-1.33-6.05-.05-12.14.67-18.17,1.33-8.5.93-17.04,3.44-23.81,8.68-6.76,5.24-11.5,13.52-11.06,22.06.44,8.54,6.87,16.83,15.34,18.05,2.78.4,5.81,0,7.98-1.78,2.17-1.78,3.12-5.17,1.6-7.53-.53-.82-1.31-1.48-1.7-2.38-.71-1.62.15-3.64,1.64-4.6,1.49-.96,3.42-1.02,5.13-.57,3.57.94,6.39,3.91,7.73,7.35,1.33,3.44,1.31,7.29.56,10.9-.87,4.2-3,8.5-6.89,10.29-4.41,2.03-9.63.26-13.87-2.11-4.33-2.41-8.32-5.43-11.83-8.94-2.47,7.98,2.19,16.66,8.64,21.96,6.45,5.3,14.5,8.18,21.91,12.02,2.49,1.29,4.97,2.77,7.25,4.46-2.38,5.03-6.02,9.29-10.25,13.08-9.91,8.9-21.91,12.98-34.96,14.01-16.49,1.31-32.7.26-47.78-7.51-16.94-8.73-27.21-23.32-34.23-40.34-4.3-10.43-7.79-21.22-11.1-32.01-7.26-23.68-18.3-45.9-27.41-68.88-9.58-24.17-14.68-48.19-16.21-74.15-1.63-27.55-.59-57.09,11.75-82.35,9.73-19.93,20.54-39.33,31.14-58.83,2.01-3.71,2.81-6.99,2.02-11.24-2.49-13.38-4.6-26.83-6.6-40.29-2-13.45-8.34-16.36-18.88-7.59-6.05,5.04-11.84,10.9-16.11,17.46-10.03,15.42-68.24,93.9-71.12,95.93-.25-3.8-2.32-50.41-6.99-70.68-1.09-4.74-.08-7.59,3.73-10.7,15.76-12.9,33.39-22.25,52.5-28.98,14.03-4.94,28.1-9.75,42.05-14.89,5.64-2.08,9.98-1.28,13.93,3.41,10.32,12.27,21.6,28.24,34.34,38.06,8.45,6.51,18.78-.44,26.65-4.08,12.36-5.72,25.34-5.45,38.55-2.38,8.77,2.04,17.56,4.1,26.13,6.84,20.44,6.54,40.66,6.55,61.13.02,8.75-2.79,17.84-4.74,26.9-6.33,17.71-3.12,35.01-.78,52.07,4.66,3.59,1.15,7.88,1.49,11.55.75,22.27-4.46,43.72-11.59,64.31-21.22,4.36-2.04,8.82-3.89,13.36-5.5,8.98-3.17,17.4-2.02,24.76,4.24,7.98,6.79,16.11,13.43,23.62,20.7,19.42,18.79,38.55,37.88,57.78,56.87,1.47,1.45,2.77,3.05,5.13,5.67-4.42,3.38-7.98,6.6-12,9.07ZM175.78,200.93c-18.34-1.19-26.08,22.53-22.34,37.26.45,1.78,1.14,3.6,2.03,5.38,6.79,13.68,25.03,25.61,35.37,8.97,8.31-13.38,8.4-27.48.53-41.06-3.29-5.68-8.87-10.11-15.59-10.55ZM364.29,217.16c-5.71,9.14-6.95,21.34-3.43,31.7,1.59,4.69,4.16,9.01,7.72,12.5,10.2,9.98,21.88,3.06,27.91-7.56,4.78-8.43,5.38-17.38,2.19-26.48-5.54-15.79-22.87-28.58-34.38-10.16Z"/>
      <path class="cls-1" d="M393.81,225.52c1.31,4.79-.75,10.27-4.36,11.01-3.87.8-5.7-1.8-6.78-4.91-1.52-4.41.62-10.14,4.02-11.3,2.98-1.02,6.02,1.21,7.12,5.2Z"/>
      <path class="cls-1" d="M189.42,225.52c1.31,4.79-.75,10.27-4.36,11.01-3.87.8-5.7-1.8-6.78-4.91-1.52-4.41.62-10.14,4.02-11.3,2.98-1.02,6.02,1.21,7.12,5.2Z"/>
    </g>
  </g>
</svg>